<?xml version="1.0" encoding="utf-8"?>
<!-- Generator: Adobe Illustrator 17.1.0, SVG Export Plug-In . SVG Version: 6.00 Build 0)  -->
<!DOCTYPE svg PUBLIC "-//W3C//DTD SVG 1.1//EN" "http://www.w3.org/Graphics/SVG/1.1/DTD/svg11.dtd">
<svg version="1.1" id="icons" xmlns="http://www.w3.org/2000/svg" xmlns:xlink="http://www.w3.org/1999/xlink" x="0px" y="0px"
	 width="372.3px" height="1106.5px" viewBox="0 0 372.3 1106.5" enable-background="new 0 0 372.3 1106.5" xml:space="preserve">
<path fill="#FF46A2" d="M305.8,148.9c-4.2-5.2-8.3-0.1-6.7,3.7c1.1,3.1,4.4,4.9,6.7,6.1c0,0,0,0,0,0c0,0,0,0,0,0c0,0,0,0,0,0
	c0,0,0,0,0,0c2.3-1.2,5.6-2.9,6.7-6.1C314.1,148.8,310,143.7,305.8,148.9z"/>
<path fill="#FFFFFF" d="M335.8,148.9c-4.2-5.2-8.3-0.1-6.7,3.7c1.1,3.1,4.4,4.9,6.7,6.1c0,0,0,0,0,0c0,0,0,0,0,0c0,0,0,0,0,0
	c0,0,0,0,0,0c2.3-1.2,5.6-2.9,6.7-6.1C344.1,148.8,340,143.7,335.8,148.9z"/>
<g>
	<path fill="#FF46A2" d="M309.8,178.5l3.1,3.1l-3.1,3.2v-2.2l-7.9,0c0,0-0.1,0-0.1,0.1c0,0,0,0.1,0,0.1v1.2l-2,1.9v-4.7
		c0,0,0-0.3,0.2-0.4c0.2-0.2,0.4-0.2,0.4-0.2l9.6,0L309.8,178.5z"/>
	<path fill="#FF46A2" d="M302.4,191.5l-3.1-3.1l3.1-3.2v2.2l7.9,0c0,0,0.1,0,0.1-0.1c0,0,0-0.1,0-0.1V186l2-1.9v4.7
		c0,0,0,0.3-0.2,0.4c-0.2,0.2-0.4,0.2-0.4,0.2l-9.6,0L302.4,191.5z"/>
</g>
<g>
	<path fill="#FFFFFF" d="M339.8,178.5l3.1,3.1l-3.1,3.2v-2.2l-7.9,0c0,0-0.1,0-0.1,0.1c0,0,0,0.1,0,0.1v1.2l-2,1.9v-4.7
		c0,0,0-0.3,0.2-0.4c0.2-0.2,0.4-0.2,0.4-0.2l9.6,0L339.8,178.5z"/>
	<path fill="#FFFFFF" d="M332.4,191.5l-3.1-3.1l3.1-3.2v2.2l7.9,0c0,0,0.1,0,0.1-0.1c0,0,0-0.1,0-0.1V186l2-1.9v4.7
		c0,0,0,0.3-0.2,0.4c-0.2,0.2-0.4,0.2-0.4,0.2l-9.6,0L332.4,191.5z"/>
</g>
<g id="apple">
	<g>
		<path d="M240,35.6c-0.6,1.2-0.8,1.8-1.6,2.9c-1,1.5-2.4,3.5-4.2,3.5c-1.6,0-2-1-4.1-1c-2.1,0-2.6,1-4.1,1c-1.8,0-3.1-1.8-4.1-3.3
			c-2.8-4.3-3.1-9.4-1.4-12.1c1.2-1.9,3.2-3,5-3c1.9,0,3.1,1,4.6,1c1.5,0,2.4-1,4.6-1c1.6,0,3.4,0.9,4.6,2.4
			C235.2,28.3,235.9,34.1,240,35.6z"/>
		<g>
			<path d="M233,21.9c0.8-1,1.4-2.4,1.2-3.9c-1.3,0.1-2.8,0.9-3.7,2c-0.8,1-1.5,2.4-1.2,3.8C230.7,23.8,232.2,23,233,21.9z"/>
		</g>
	</g>
</g>
<path id="facebook" fill="#231F20" d="M27,42v-8.7h-3v-4.6h3c0,0,0-1.9,0-3.9c0-3.1,1.8-5.9,5.8-5.9c1.6,0,2.8,0.2,2.8,0.2l-0.1,4.3
	c0,0-1.2,0-2.6,0c-1.5,0-1.7,0.8-1.7,2c0,1,0-2.1,0,3.4h4.4l-0.2,4.6h-4.2V42L27,42L27,42z"/>
<path id="twitter" d="M105,23.4c-0.9,0.4-1.9,0.7-2.9,0.8c1-0.6,1.8-1.6,2.2-2.8c-1,0.6-2,1-3.2,1.2c-0.9-1-2.2-1.6-3.6-1.6
	c-2.8,0-5,2.2-5,5c0,0.4,0,0.8,0.1,1.1C88.5,27,84.8,25,82.4,22c-0.4,0.7-0.7,1.6-0.7,2.5c0,1.7,0.9,3.3,2.2,4.1
	c-0.8,0-1.6-0.2-2.3-0.6c0,0,0,0,0,0.1c0,2.4,1.7,4.4,4,4.9c-0.4,0.1-0.9,0.2-1.3,0.2c-0.3,0-0.6,0-0.9-0.1c0.6,2,2.5,3.4,4.7,3.5
	c-1.7,1.3-3.9,2.1-6.2,2.1c-0.4,0-0.8,0-1.2-0.1c2.2,1.4,4.8,2.2,7.6,2.2c9.2,0,14.2-7.6,14.2-14.2c0-0.2,0-0.4,0-0.6
	C103.5,25.3,104.3,24.4,105,23.4z"/>
<g id="soundcloud">
	<path fill="#010101" d="M287.6,32.2c-0.1,0-0.2,0.1-0.2,0.2l-0.3,2.4l0.3,2.3c0,0.1,0.1,0.2,0.2,0.2c0.1,0,0.2-0.1,0.2-0.2l0,0l0,0
		l0,0l0.4-2.3l-0.4-2.4C287.8,32.3,287.7,32.2,287.6,32.2z"/>
	<path fill="#010101" d="M289.4,30.9c0-0.1-0.1-0.2-0.2-0.2c-0.1,0-0.2,0.1-0.2,0.2c0,0-0.4,3.9-0.4,3.9l0.4,3.8
		c0,0.1,0.1,0.2,0.2,0.2c0.1,0,0.2-0.1,0.2-0.2l0.5-3.8L289.4,30.9z"/>
	<path fill="#010101" d="M296,27.3c-0.2,0-0.3,0.1-0.3,0.3l-0.3,7.1l0.3,4.6c0,0.2,0.2,0.3,0.3,0.3c0.2,0,0.3-0.1,0.3-0.3l0,0
		l0.4-4.6l-0.4-7.1C296.3,27.5,296.2,27.3,296,27.3z"/>
	<path fill="#010101" d="M292.6,29.8c-0.1,0-0.2,0.1-0.3,0.2l-0.4,4.7l0.4,4.5c0,0.1,0.1,0.2,0.3,0.2s0.2-0.1,0.3-0.2l0.4-4.5
		l-0.4-4.7C292.8,29.9,292.7,29.8,292.6,29.8z"/>
	<path fill="#010101" d="M299.5,39.6c0.2,0,0.4-0.2,0.4-0.4l0.3-4.5l-0.3-9.4c0-0.2-0.2-0.4-0.4-0.4c-0.2,0-0.4,0.2-0.4,0.4
		c0,0-0.3,9.4-0.3,9.4l0.3,4.5C299.1,39.5,299.3,39.6,299.5,39.6z"/>
	<path fill="#010101" d="M306.7,39.7c0.3,0,0.5-0.2,0.5-0.5v0v0l0.2-4.4l-0.2-10.9c0-0.3-0.2-0.5-0.5-0.5c-0.3,0-0.5,0.2-0.5,0.5
		l-0.2,10.9c0,0,0.2,4.4,0.2,4.4C306.1,39.4,306.4,39.7,306.7,39.7z"/>
	<path fill="#010101" d="M303.1,39.6c0.3,0,0.5-0.2,0.5-0.5v0l0.3-4.4l-0.3-9.5c0-0.3-0.2-0.5-0.5-0.5s-0.5,0.2-0.5,0.5l-0.2,9.5
		l0.2,4.4C302.6,39.4,302.8,39.6,303.1,39.6z"/>
	<path fill="#010101" d="M294.3,39.6c0.2,0,0.3-0.1,0.3-0.3l0.4-4.6l-0.4-4.4c0-0.2-0.1-0.3-0.3-0.3c-0.2,0-0.3,0.1-0.3,0.3
		l-0.4,4.4l0.4,4.6C294,39.5,294.1,39.6,294.3,39.6z"/>
	<path fill="#010101" d="M290.9,39.4c0.1,0,0.2-0.1,0.2-0.2l0.5-4.4l-0.5-4.6c0-0.1-0.1-0.2-0.2-0.2c-0.1,0-0.2,0.1-0.2,0.2
		l-0.4,4.6l0.4,4.4C290.7,39.3,290.8,39.4,290.9,39.4z"/>
	<path fill="#010101" d="M304.9,25.1c-0.3,0-0.5,0.2-0.5,0.5l-0.2,9.2l0.2,4.4c0,0.3,0.2,0.5,0.5,0.5s0.5-0.2,0.5-0.5v0l0.3-4.4
		l-0.3-9.2C305.4,25.3,305.1,25.1,304.9,25.1z"/>
	<path fill="#010101" d="M297.8,39.7c0.2,0,0.4-0.2,0.4-0.4l0.4-4.5l-0.4-8.7c0-0.2-0.2-0.4-0.4-0.4c-0.2,0-0.4,0.2-0.4,0.4
		c0,0-0.3,8.7-0.3,8.7l0.3,4.5C297.4,39.5,297.6,39.7,297.8,39.7z"/>
	<path fill="#010101" d="M301.7,39.2L301.7,39.2l0.3-4.5l-0.3-9.8c0-0.2-0.2-0.4-0.4-0.4s-0.4,0.2-0.4,0.4l-0.3,9.8l0.3,4.5
		c0,0.2,0.2,0.4,0.4,0.4C301.5,39.7,301.7,39.5,301.7,39.2L301.7,39.2z"/>
	<path fill="#010101" d="M324.7,29.1c-0.7,0-1.4,0.1-2,0.4c-0.4-4.8-4.4-8.5-9.3-8.5c-1.2,0-2.3,0.2-3.4,0.6
		c-0.4,0.2-0.5,0.3-0.5,0.6V39c0,0.3,0.3,0.6,0.6,0.6c0,0,14.5,0,14.6,0c2.9,0,5.3-2.4,5.3-5.3C330,31.5,327.6,29.1,324.7,29.1z"/>
	<path fill="#010101" d="M308.5,22.3c-0.3,0-0.6,0.3-0.6,0.6l-0.2,11.9l0.2,4.3c0,0.3,0.3,0.6,0.6,0.6c0.3,0,0.6-0.3,0.6-0.6v0
		l0.3-4.3L309,22.9C309,22.6,308.8,22.3,308.5,22.3z"/>
</g>
<g id="instagram">
	<path d="M167.3,19.2h-11.9c-3,0-5.4,2.4-5.4,5.4v1.9h8.4c0.9-0.7,2-1.1,3.2-1.1c1.2,0,2.3,0.4,3.2,1.1h7.9v-1.9
		C172.7,21.6,170.3,19.2,167.3,19.2z M169.4,24.6c0,0.3-0.2,0.5-0.5,0.5h-2.2c-0.3,0-0.5-0.2-0.5-0.5v-2.1c0-0.3,0.2-0.5,0.5-0.5
		h2.2c0.3,0,0.5,0.2,0.5,0.5V24.6z"/>
	<path d="M166.5,28.5c0.3,0.7,0.5,1.5,0.5,2.3c0,3-2.4,5.5-5.5,5.5c-3,0-5.5-2.4-5.5-5.5c0-0.8,0.2-1.6,0.5-2.3H150v8.1
		c0,3,2.4,5.4,5.4,5.4h11.9c3,0,5.4-2.4,5.4-5.4v-8.1H166.5z"/>
	<circle cx="161.6" cy="30.8" r="2.3"/>
</g>
<g id="apple_1_">
	<g>
		<path fill="#FF46A2" d="M40.8,711.1c-0.6,1.2-0.8,1.8-1.6,2.9c-1,1.5-2.4,3.5-4.2,3.5c-1.6,0-2-1-4.1-1c-2.1,0-2.6,1-4.1,1
			c-1.8,0-3.1-1.8-4.1-3.3c-2.8-4.3-3.1-9.4-1.4-12.1c1.2-1.9,3.2-3,5-3c1.9,0,3.1,1,4.6,1c1.5,0,2.4-1,4.6-1c1.6,0,3.4,0.9,4.6,2.4
			C36.1,703.8,36.7,709.6,40.8,711.1z"/>
		<g>
			<path fill="#FF46A2" d="M33.9,697.4c0.8-1,1.4-2.4,1.2-3.9c-1.3,0.1-2.8,0.9-3.7,2c-0.8,1-1.5,2.4-1.2,3.8
				C31.6,699.3,33,698.5,33.9,697.4z"/>
		</g>
	</g>
</g>
<path id="facebook_2_" fill="#FF46A2" d="M27,572.4v-8.7h-3v-4.6h3c0,0,0-1.9,0-3.9c0-3.1,1.8-5.9,5.8-5.9c1.6,0,2.8,0.2,2.8,0.2
	l-0.1,4.3c0,0-1.2,0-2.6,0c-1.5,0-1.7,0.8-1.7,2c0,1,0-2.1,0,3.4h4.4l-0.2,4.6h-4.2v8.7L27,572.4L27,572.4z"/>
<path id="twitter_2_" fill="#FF46A2" d="M43,603.8c-0.9,0.4-1.9,0.7-2.9,0.8c1-0.6,1.8-1.6,2.2-2.8c-1,0.6-2,1-3.2,1.2
	c-0.9-1-2.2-1.6-3.6-1.6c-2.8,0-5,2.2-5,5c0,0.4,0,0.8,0.1,1.1c-4.1-0.2-7.8-2.2-10.3-5.2c-0.4,0.7-0.7,1.6-0.7,2.5
	c0,1.7,0.9,3.3,2.2,4.2c-0.8,0-1.6-0.2-2.3-0.6c0,0,0,0,0,0.1c0,2.4,1.7,4.4,4,4.9c-0.4,0.1-0.9,0.2-1.3,0.2c-0.3,0-0.6,0-0.9-0.1
	c0.6,2,2.5,3.4,4.7,3.5c-1.7,1.3-3.9,2.1-6.2,2.1c-0.4,0-0.8,0-1.2-0.1c2.2,1.4,4.8,2.2,7.6,2.2c9.2,0,14.2-7.6,14.2-14.2
	c0-0.2,0-0.4,0-0.6C41.4,605.7,42.3,604.8,43,603.8z"/>
<g id="soundcloud_1_">
	<path fill="#FF46A2" d="M12.4,750.8c-0.1,0-0.2,0.1-0.2,0.2l-0.3,2.4l0.3,2.3c0,0.1,0.1,0.2,0.2,0.2c0.1,0,0.2-0.1,0.2-0.2l0,0l0,0
		l0,0l0.4-2.3l-0.4-2.4C12.6,750.8,12.5,750.8,12.4,750.8z"/>
	<path fill="#FF46A2" d="M14.2,749.5c0-0.1-0.1-0.2-0.2-0.2c-0.1,0-0.2,0.1-0.2,0.2c0,0-0.4,3.8-0.4,3.8l0.4,3.8
		c0,0.1,0.1,0.2,0.2,0.2c0.1,0,0.2-0.1,0.2-0.2l0.5-3.8L14.2,749.5z"/>
	<path fill="#FF46A2" d="M20.8,745.9c-0.2,0-0.3,0.1-0.3,0.3l-0.3,7.1l0.3,4.6c0,0.2,0.2,0.3,0.3,0.3c0.2,0,0.3-0.1,0.3-0.3l0,0
		l0.4-4.6l-0.4-7.1C21.1,746,21,745.9,20.8,745.9z"/>
	<path fill="#FF46A2" d="M17.4,748.4c-0.1,0-0.2,0.1-0.3,0.2l-0.4,4.7l0.4,4.5c0,0.1,0.1,0.2,0.3,0.2s0.2-0.1,0.3-0.2l0.4-4.5
		l-0.4-4.7C17.6,748.5,17.5,748.4,17.4,748.4z"/>
	<path fill="#FF46A2" d="M24.3,758.2c0.2,0,0.4-0.2,0.4-0.4l0.3-4.5l-0.3-9.4c0-0.2-0.2-0.4-0.4-0.4c-0.2,0-0.4,0.2-0.4,0.4
		c0,0-0.3,9.4-0.3,9.4l0.3,4.5C23.9,758,24.1,758.2,24.3,758.2z"/>
	<path fill="#FF46A2" d="M31.4,758.2c0.3,0,0.5-0.2,0.5-0.5v0v0l0.2-4.4L32,742.4c0-0.3-0.2-0.5-0.5-0.5c-0.3,0-0.5,0.2-0.5,0.5
		l-0.2,10.9c0,0,0.2,4.4,0.2,4.4C30.9,758,31.1,758.2,31.4,758.2z"/>
	<path fill="#FF46A2" d="M27.8,758.2c0.3,0,0.5-0.2,0.5-0.5v0l0.3-4.4l-0.3-9.5c0-0.3-0.2-0.5-0.5-0.5c-0.3,0-0.5,0.2-0.5,0.5
		l-0.2,9.5l0.2,4.4C27.4,758,27.6,758.2,27.8,758.2z"/>
	<path fill="#FF46A2" d="M19.1,758.2c0.2,0,0.3-0.1,0.3-0.3l0.4-4.6l-0.4-4.4c0-0.2-0.1-0.3-0.3-0.3c-0.2,0-0.3,0.1-0.3,0.3
		l-0.4,4.4l0.4,4.6C18.8,758,18.9,758.2,19.1,758.2z"/>
	<path fill="#FF46A2" d="M15.7,757.9c0.1,0,0.2-0.1,0.2-0.2l0.5-4.4l-0.5-4.6c0-0.1-0.1-0.2-0.2-0.2c-0.1,0-0.2,0.1-0.2,0.2
		l-0.4,4.6l0.4,4.4C15.5,757.8,15.5,757.9,15.7,757.9z"/>
	<path fill="#FF46A2" d="M29.6,743.7c-0.3,0-0.5,0.2-0.5,0.5l-0.2,9.2l0.2,4.4c0,0.3,0.2,0.5,0.5,0.5s0.5-0.2,0.5-0.5v0l0.3-4.4
		l-0.3-9.2C30.1,743.9,29.9,743.7,29.6,743.7z"/>
	<path fill="#FF46A2" d="M22.5,758.2c0.2,0,0.4-0.2,0.4-0.4l0.4-4.5l-0.4-8.7c0-0.2-0.2-0.4-0.4-0.4c-0.2,0-0.4,0.2-0.4,0.4
		c0,0-0.3,8.7-0.3,8.7l0.3,4.6C22.2,758.1,22.3,758.2,22.5,758.2z"/>
	<path fill="#FF46A2" d="M26.5,757.8L26.5,757.8l0.3-4.5l-0.3-9.8c0-0.2-0.2-0.4-0.4-0.4c-0.2,0-0.4,0.2-0.4,0.4l-0.3,9.7l0.3,4.5
		c0,0.2,0.2,0.4,0.4,0.4C26.3,758.2,26.5,758,26.5,757.8L26.5,757.8z"/>
	<path fill="#FF46A2" d="M49.5,747.7c-0.7,0-1.4,0.1-2,0.4c-0.4-4.8-4.4-8.5-9.3-8.5c-1.2,0-2.3,0.2-3.4,0.6
		c-0.4,0.2-0.5,0.3-0.5,0.6v16.7c0,0.3,0.3,0.6,0.6,0.6c0,0,14.5,0,14.6,0c2.9,0,5.3-2.4,5.3-5.3C54.8,750.1,52.4,747.7,49.5,747.7z
		"/>
	<path fill="#FF46A2" d="M33.2,740.9c-0.3,0-0.6,0.3-0.6,0.6l-0.2,11.9l0.2,4.3c0,0.3,0.3,0.6,0.6,0.6c0.3,0,0.6-0.3,0.6-0.6v0
		l0.3-4.3l-0.3-11.9C33.8,741.1,33.6,740.9,33.2,740.9z"/>
</g>
<g id="instagram_2_">
	<path fill="#FF46A2" d="M37.2,649.7H25.3c-3,0-5.4,2.4-5.4,5.4v1.9h8.4c0.9-0.7,2-1.1,3.2-1.1c1.2,0,2.3,0.4,3.2,1.1h7.9v-1.9
		C42.6,652.1,40.2,649.7,37.2,649.7z M39.3,655.1c0,0.3-0.2,0.5-0.5,0.5h-2.2c-0.3,0-0.5-0.2-0.5-0.5V653c0-0.3,0.2-0.5,0.5-0.5h2.2
		c0.3,0,0.5,0.2,0.5,0.5V655.1z"/>
	<path fill="#FF46A2" d="M36.4,659c0.3,0.7,0.5,1.5,0.5,2.3c0,3-2.4,5.5-5.5,5.5c-3,0-5.5-2.4-5.5-5.5c0-0.8,0.2-1.6,0.5-2.3h-6.6
		v8.1c0,3,2.4,5.4,5.4,5.4h11.9c3,0,5.4-2.4,5.4-5.4V659H36.4z"/>
	<circle fill="#FF46A2" cx="31.5" cy="661.3" r="2.3"/>
</g>
<g>
	<g>
		<path fill="#EE348B" d="M52.1,273.8c-1,2.2-1.5,3.2-2.7,5.1c-1.8,2.7-4.3,6.1-7.4,6.1c-2.8,0-3.5-1.8-7.2-1.8
			c-3.7,0-4.5,1.8-7.3,1.8c-3.1,0-5.5-3.1-7.3-5.8c-5-7.6-5.5-16.5-2.4-21.2c2.2-3.4,5.6-5.3,8.8-5.3c3.3,0,5.4,1.8,8.1,1.8
			c2.6,0,4.2-1.8,8.1-1.8c2.9,0,5.9,1.6,8.1,4.3C43.7,261,44.9,271.1,52.1,273.8z"/>
		<g>
			<path fill="#EE348B" d="M39.8,249.8c1.4-1.8,2.4-4.3,2.1-6.8c-2.3,0.2-4.9,1.6-6.4,3.5c-1.4,1.7-2.6,4.2-2.1,6.7
				C35.8,253.1,38.4,251.7,39.8,249.8z"/>
		</g>
	</g>
</g>
<g>
	<g>
		<path fill="#FFFFFF" d="M52.1,373.9c-1,2.2-1.5,3.2-2.7,5.1c-1.8,2.7-4.3,6.1-7.4,6.1c-2.8,0-3.5-1.8-7.2-1.8
			c-3.7,0-4.5,1.8-7.3,1.8c-3.1,0-5.5-3.1-7.3-5.8c-5-7.6-5.5-16.5-2.4-21.2c2.2-3.4,5.6-5.3,8.8-5.3c3.3,0,5.4,1.8,8.1,1.8
			c2.6,0,4.2-1.8,8.1-1.8c2.9,0,5.9,1.6,8.1,4.3C43.7,361,44.9,371.2,52.1,373.9z"/>
		<g>
			<path fill="#FFFFFF" d="M39.8,349.8c1.4-1.8,2.4-4.3,2.1-6.8c-2.3,0.2-4.9,1.6-6.4,3.5c-1.4,1.7-2.6,4.2-2.1,6.7
				C35.8,353.2,38.4,351.7,39.8,349.8z"/>
		</g>
	</g>
</g>
<g>
	<g>
		<path fill="#FFFFFF" d="M102.9,148.8c-0.5,1.1-0.7,1.6-1.4,2.6c-0.9,1.4-2.2,3.1-3.8,3.1c-1.4,0-1.8-0.9-3.7-0.9
			c-1.9,0-2.3,0.9-3.7,0.9c-1.6,0-2.8-1.6-3.7-2.9c-2.5-3.9-2.8-8.4-1.2-10.8c1.1-1.7,2.9-2.7,4.5-2.7c1.7,0,2.7,0.9,4.1,0.9
			c1.3,0,2.2-0.9,4.1-0.9c1.5,0,3,0.8,4.1,2.2C98.6,142.2,99.2,147.4,102.9,148.8z"/>
		<g>
			<path fill="#FFFFFF" d="M96.7,136.5c0.7-0.9,1.2-2.2,1-3.5c-1.2,0.1-2.5,0.8-3.3,1.8c-0.7,0.9-1.3,2.1-1.1,3.4
				C94.6,138.2,95.9,137.5,96.7,136.5z"/>
		</g>
	</g>
</g>
<g>
	<g>
		<path fill="#EE348B" d="M102.9,202.8c-0.5,1.1-0.7,1.6-1.4,2.6c-0.9,1.4-2.2,3.1-3.8,3.1c-1.4,0-1.8-0.9-3.7-0.9
			c-1.9,0-2.3,0.9-3.7,0.9c-1.6,0-2.8-1.6-3.7-2.9c-2.5-3.9-2.8-8.4-1.2-10.8c1.1-1.7,2.9-2.7,4.5-2.7c1.7,0,2.7,0.9,4.1,0.9
			c1.3,0,2.2-0.9,4.1-0.9c1.5,0,3,0.8,4.1,2.2C98.6,196.2,99.2,201.4,102.9,202.8z"/>
		<g>
			<path fill="#EE348B" d="M96.7,190.5c0.7-0.9,1.2-2.2,1-3.5c-1.2,0.1-2.5,0.8-3.3,1.8c-0.7,0.9-1.3,2.1-1.1,3.4
				C94.6,192.3,95.9,191.5,96.7,190.5z"/>
		</g>
	</g>
</g>
<g>
	<g>
		<path fill="#424242" d="M102.9,93.8c-0.5,1.1-0.7,1.6-1.4,2.6c-0.9,1.4-2.2,3.1-3.8,3.1c-1.4,0-1.8-0.9-3.7-0.9
			c-1.9,0-2.3,0.9-3.7,0.9c-1.6,0-2.8-1.6-3.7-2.9c-2.5-3.9-2.8-8.4-1.2-10.8c1.1-1.7,2.9-2.7,4.5-2.7c1.7,0,2.7,0.9,4.1,0.9
			c1.3,0,2.2-0.9,4.1-0.9c1.5,0,3,0.8,4.1,2.2C98.6,87.2,99.2,92.4,102.9,93.8z"/>
		<g>
			<path fill="#424242" d="M96.7,81.5c0.7-0.9,1.2-2.2,1-3.5c-1.2,0.1-2.5,0.8-3.3,1.8c-0.7,0.9-1.3,2.1-1.1,3.4
				C94.6,83.2,95.9,82.5,96.7,81.5z"/>
		</g>
	</g>
</g>
<g id="instagram_1_">
	<path fill="#FFFFFF" d="M324.3,248.1h-21.5c-5.4,0-9.7,4.3-9.7,9.7v3.4h15c1.6-1.2,3.6-1.9,5.8-1.9s4.2,0.7,5.8,1.9H334v-3.4
		C334,252.5,329.7,248.1,324.3,248.1z M328.1,257.8c0,0.5-0.4,1-1,1h-3.9c-0.5,0-1-0.4-1-1v-3.7c0-0.5,0.4-1,1-1h3.9
		c0.5,0,1,0.4,1,1V257.8z"/>
	<path fill="#FFFFFF" d="M322.9,265c0.6,1.3,0.9,2.7,0.9,4.2c0,5.4-4.4,9.8-9.8,9.8c-5.4,0-9.8-4.4-9.8-9.8c0-1.5,0.3-2.9,0.9-4.2
		h-12v14.6c0,5.4,4.3,9.7,9.7,9.7h21.5c5.4,0,9.7-4.3,9.7-9.7V265H322.9z"/>
	<circle fill="#FFFFFF" cx="314" cy="269.1" r="4.1"/>
</g>
<path id="twitter_1_" fill="#FFFFFF" d="M339.3,330.9c-1.8,0.8-3.7,1.3-5.6,1.5c2-1.2,3.6-3.1,4.3-5.4c-1.9,1.1-4,1.9-6.2,2.4
	c-1.8-1.9-4.4-3.1-7.2-3.1c-5.4,0-9.8,4.4-9.8,9.8c0,0.8,0.1,1.5,0.3,2.2c-8.2-0.4-15.4-4.3-20.3-10.3c-0.8,1.5-1.3,3.1-1.3,4.9
	c0,3.4,1.7,6.4,4.4,8.2c-1.6-0.1-3.1-0.5-4.5-1.2c0,0,0,0.1,0,0.1c0,4.8,3.4,8.7,7.9,9.6c-0.8,0.2-1.7,0.3-2.6,0.3
	c-0.6,0-1.2-0.1-1.9-0.2c1.3,3.9,4.9,6.8,9.2,6.8c-3.4,2.6-7.6,4.2-12.2,4.2c-0.8,0-1.6,0-2.3-0.1c4.4,2.8,9.5,4.4,15.1,4.4
	c18.1,0,28-15,28-28c0-0.4,0-0.9,0-1.3C336.3,334.6,338,332.9,339.3,330.9z"/>
<path id="twitter_3_" fill="#FFFFFF" d="M331.9,96.4c-1.1,0.5-2.2,0.8-3.5,1c1.2-0.7,2.2-1.9,2.7-3.3c-1.2,0.7-2.5,1.2-3.8,1.5
	c-1.1-1.2-2.7-1.9-4.4-1.9c-3.3,0-6,2.7-6,6c0,0.5,0.1,0.9,0.2,1.4c-5-0.3-9.5-2.7-12.4-6.3c-0.5,0.9-0.8,1.9-0.8,3
	c0,2.1,1.1,3.9,2.7,5c-1,0-1.9-0.3-2.7-0.8c0,0,0,0.1,0,0.1c0,2.9,2.1,5.4,4.8,5.9c-0.5,0.1-1,0.2-1.6,0.2c-0.4,0-0.8,0-1.1-0.1
	c0.8,2.4,3,4.1,5.6,4.2c-2.1,1.6-4.7,2.6-7.5,2.6c-0.5,0-1,0-1.4-0.1c2.7,1.7,5.9,2.7,9.3,2.7c11.1,0,17.2-9.2,17.2-17.2
	c0-0.3,0-0.5,0-0.8C330.1,98.7,331.1,97.6,331.9,96.4z"/>
<path id="facebook_1_" fill="#A1A1A1" d="M26.6,445.3v-7.6H24v-4h2.6c0,0,0-1.6,0-3.4c0-2.7,1.5-5.1,5-5.1c1.4,0,2.5,0.2,2.5,0.2
	L34,429c0,0-1.1,0-2.2,0c-1.3,0-1.5,0.7-1.5,1.8c0,0.9,0-1.9,0,2.9h3.8l-0.2,4h-3.6v7.6L26.6,445.3L26.6,445.3z"/>
<path id="facebook_3_" fill="#FFFFFF" d="M26.6,478.3v-7.6H24v-4h2.6c0,0,0-1.6,0-3.4c0-2.7,1.5-5.1,5-5.1c1.4,0,2.5,0.2,2.5,0.2
	l-0.1,3.7c0,0-1.1,0-2.2,0c-1.3,0-1.5,0.7-1.5,1.8c0,0.9,0-1.9,0,2.9h3.8l-0.2,4h-3.6v7.6H26.6L26.6,478.3z"/>
<path id="facebook_4_" fill="#FF46A2" d="M26.6,511.3v-7.6H24v-4h2.6c0,0,0-1.6,0-3.4c0-2.7,1.5-5.1,5-5.1c1.4,0,2.5,0.2,2.5,0.2
	l-0.1,3.7c0,0-1.1,0-2.2,0c-1.3,0-1.5,0.7-1.5,1.8c0,0.9,0-1.9,0,2.9h3.8l-0.2,4h-3.6v7.6L26.6,511.3L26.6,511.3z"/>
<g>
	<path fill="#FF46A2" d="M36.8,806c-0.3,0.2-0.5,0.2-0.8,0.1c-0.3-0.1-0.5-0.2-0.7-0.5c-0.1-0.2-0.2-0.5-0.1-0.8
		c0.1-0.3,0.2-0.5,0.5-0.7c0.3-0.2,0.5-0.2,0.8-0.1c0.3,0.1,0.5,0.2,0.6,0.5c0.2,0.3,0.2,0.5,0.1,0.8C37.2,805.7,37,805.9,36.8,806z
		 M39.2,807.4c-0.2,0.1-0.5,0.2-0.8,0.1c-0.3-0.1-0.5-0.2-0.6-0.5c-0.2-0.3-0.2-0.5-0.1-0.8s0.2-0.5,0.5-0.6
		c0.3-0.2,0.5-0.2,0.8-0.1c0.3,0.1,0.5,0.2,0.7,0.5c0.1,0.2,0.2,0.5,0.1,0.8C39.6,807,39.4,807.2,39.2,807.4z M41.6,808.8
		c-0.3,0.2-0.5,0.2-0.8,0.1c-0.3-0.1-0.5-0.2-0.7-0.5c-0.1-0.2-0.2-0.5-0.1-0.8c0.1-0.3,0.2-0.5,0.5-0.7c0.2-0.1,0.5-0.2,0.8-0.1
		c0.3,0.1,0.5,0.2,0.6,0.5c0.2,0.3,0.2,0.5,0.1,0.8C42,808.4,41.9,808.6,41.6,808.8z M44,810.1c-0.2,0.1-0.5,0.2-0.8,0.1
		c-0.3-0.1-0.5-0.2-0.6-0.5c-0.2-0.3-0.2-0.5-0.1-0.8c0.1-0.3,0.2-0.5,0.5-0.6c0.3-0.2,0.5-0.2,0.8-0.1c0.3,0.1,0.5,0.2,0.7,0.5
		c0.1,0.2,0.2,0.5,0.1,0.8C44.5,809.8,44.3,810,44,810.1z M46.5,811.5c-0.2,0.1-0.5,0.2-0.8,0.1c-0.3-0.1-0.5-0.2-0.7-0.5
		c-0.1-0.2-0.2-0.5-0.1-0.8c0.1-0.3,0.2-0.5,0.5-0.7c0.2-0.1,0.5-0.2,0.8-0.1c0.3,0.1,0.5,0.2,0.6,0.5c0.2,0.3,0.2,0.5,0.1,0.8
		C46.9,811.2,46.7,811.4,46.5,811.5z M48.9,812.9c-0.3,0.2-0.5,0.2-0.8,0.1c-0.3-0.1-0.5-0.2-0.6-0.5c-0.2-0.3-0.2-0.5-0.1-0.8
		c0.1-0.3,0.2-0.5,0.5-0.7c0.2-0.1,0.5-0.2,0.8-0.1c0.3,0.1,0.5,0.2,0.7,0.5c0.2,0.3,0.2,0.5,0.1,0.8
		C49.3,812.5,49.1,812.7,48.9,812.9z M51.3,814.3c-0.2,0.1-0.5,0.2-0.8,0.1c-0.3-0.1-0.5-0.2-0.7-0.5c-0.1-0.2-0.2-0.5-0.1-0.8
		c0.1-0.3,0.2-0.5,0.5-0.6c0.3-0.2,0.5-0.2,0.8-0.1c0.3,0.1,0.5,0.2,0.7,0.5c0.1,0.2,0.2,0.5,0.1,0.8
		C51.8,813.9,51.6,814.1,51.3,814.3z M53.8,815.6c-0.3,0.2-0.5,0.2-0.8,0.1c-0.3-0.1-0.5-0.2-0.6-0.5c-0.2-0.3-0.2-0.5-0.1-0.8
		c0.1-0.3,0.2-0.5,0.5-0.7c0.2-0.1,0.5-0.2,0.8-0.1c0.3,0.1,0.5,0.2,0.7,0.5c0.2,0.3,0.2,0.5,0.1,0.8
		C54.2,815.3,54,815.5,53.8,815.6z M56.2,817c-0.2,0.1-0.5,0.2-0.8,0.1c-0.3-0.1-0.5-0.2-0.6-0.5c-0.2-0.3-0.2-0.5-0.1-0.8
		c0.1-0.3,0.2-0.5,0.5-0.6c0.3-0.2,0.5-0.2,0.8-0.1c0.3,0.1,0.5,0.2,0.7,0.5c0.1,0.2,0.2,0.5,0.1,0.8
		C56.6,816.6,56.4,816.9,56.2,817z"/>
</g>
<g>
	<path fill="#FF46A2" d="M15.7,816.4c-0.1-0.3,0-0.5,0.1-0.8c0.2-0.3,0.4-0.4,0.7-0.5c0.3-0.1,0.5,0,0.8,0.1
		c0.2,0.1,0.4,0.4,0.5,0.6c0.1,0.3,0,0.5-0.1,0.8c-0.1,0.2-0.4,0.4-0.6,0.5c-0.3,0.1-0.5,0-0.8-0.1
		C15.9,816.9,15.8,816.6,15.7,816.4z M18.1,815c-0.1-0.3,0-0.5,0.1-0.8c0.2-0.3,0.4-0.4,0.7-0.5c0.3-0.1,0.5,0,0.8,0.1
		c0.3,0.2,0.4,0.4,0.5,0.7c0.1,0.3,0,0.5-0.1,0.8c-0.2,0.3-0.4,0.4-0.6,0.5c-0.3,0.1-0.5,0-0.8-0.1C18.3,815.5,18.2,815.3,18.1,815z
		 M20.5,813.6c-0.1-0.3,0-0.5,0.1-0.8c0.2-0.3,0.4-0.4,0.7-0.5c0.3-0.1,0.5,0,0.8,0.1c0.2,0.1,0.4,0.4,0.5,0.6
		c0.1,0.3,0,0.5-0.1,0.8c-0.2,0.3-0.4,0.4-0.7,0.5c-0.3,0.1-0.5,0-0.8-0.1C20.8,814.1,20.6,813.9,20.5,813.6z M23,812.3
		c-0.1-0.3,0-0.5,0.1-0.8c0.2-0.3,0.4-0.4,0.7-0.5c0.3-0.1,0.5,0,0.8,0.1c0.3,0.2,0.4,0.4,0.5,0.7c0.1,0.3,0,0.5-0.1,0.8
		c-0.1,0.2-0.4,0.4-0.6,0.5c-0.3,0.1-0.5,0-0.8-0.1C23.2,812.7,23,812.5,23,812.3z M25.4,810.9c-0.1-0.3,0-0.5,0.1-0.8
		c0.1-0.2,0.4-0.4,0.6-0.5c0.3-0.1,0.5,0,0.8,0.1c0.3,0.2,0.4,0.4,0.5,0.7c0.1,0.3,0,0.5-0.1,0.8c-0.2,0.3-0.4,0.4-0.7,0.5
		c-0.3,0.1-0.5,0-0.8-0.1C25.6,811.4,25.5,811.2,25.4,810.9z M27.8,809.5c-0.1-0.3,0-0.5,0.1-0.8c0.2-0.3,0.4-0.4,0.7-0.5
		c0.3-0.1,0.5,0,0.8,0.1c0.2,0.1,0.4,0.4,0.5,0.6c0.1,0.3,0,0.5-0.1,0.8c-0.1,0.2-0.4,0.4-0.6,0.5c-0.3,0.1-0.5,0-0.8-0.1
		C28,810,27.9,809.8,27.8,809.5z M30.3,808.1c-0.1-0.3,0-0.5,0.1-0.8c0.1-0.2,0.4-0.4,0.6-0.5c0.3-0.1,0.5,0,0.8,0.1
		c0.3,0.2,0.4,0.4,0.5,0.7c0.1,0.3,0,0.5-0.1,0.8c-0.2,0.3-0.4,0.4-0.7,0.5c-0.3,0.1-0.5,0-0.8-0.1
		C30.5,808.6,30.3,808.4,30.3,808.1z M32.7,806.7c-0.1-0.3,0-0.5,0.1-0.8c0.2-0.3,0.4-0.4,0.7-0.5c0.3-0.1,0.5,0,0.8,0.1
		c0.2,0.1,0.4,0.4,0.5,0.6c0.1,0.3,0,0.5-0.1,0.8c-0.1,0.2-0.4,0.4-0.6,0.5c-0.3,0.1-0.5,0-0.8-0.1C32.9,807.2,32.7,807,32.7,806.7z
		 M35.1,805.4c-0.1-0.3,0-0.5,0.1-0.8c0.1-0.2,0.4-0.4,0.6-0.5c0.3-0.1,0.5,0,0.8,0.1c0.3,0.2,0.4,0.4,0.5,0.7
		c0.1,0.3,0,0.5-0.1,0.8c-0.2,0.3-0.4,0.4-0.7,0.5c-0.3,0.1-0.5,0-0.8-0.1C35.3,805.9,35.2,805.7,35.1,805.4z"/>
</g>
<g>
	<path fill="#FFFFFF" d="M36.3,946.8c-0.2-0.6-0.4-1.1-0.8-1.5c-0.3-0.4-0.8-0.8-1.3-1c-0.5-0.3-1.1-0.4-1.9-0.4
		c-0.3,0-0.5,0-0.8,0.1c-0.3,0.1-0.5,0.2-0.7,0.3c-0.2,0.1-0.5,0.3-0.7,0.4c-0.2,0.2-0.4,0.4-0.5,0.6h0v-4.6h-2v12.5h1.9v-1.2h0
		c0.2,0.3,0.3,0.5,0.6,0.7c0.2,0.2,0.5,0.3,0.8,0.5c0.3,0.1,0.6,0.2,0.9,0.2c0.3,0,0.6,0.1,0.9,0.1c0.7,0,1.2-0.1,1.7-0.4
		c0.5-0.3,0.9-0.6,1.2-1c0.3-0.4,0.6-0.9,0.7-1.5c0.2-0.6,0.2-1.2,0.2-1.8C36.5,948,36.4,947.3,36.3,946.8z M34.4,949.8
		c-0.1,0.4-0.2,0.7-0.4,1s-0.5,0.5-0.8,0.7c-0.3,0.2-0.7,0.3-1.2,0.3c-0.4,0-0.8-0.1-1.1-0.2c-0.3-0.2-0.6-0.4-0.8-0.7
		c-0.2-0.3-0.4-0.6-0.5-1c-0.1-0.4-0.2-0.8-0.2-1.3c0-1,0.2-1.7,0.6-2.3c0.4-0.6,1.1-0.9,1.9-0.9c0.4,0,0.8,0.1,1.1,0.3
		c0.3,0.2,0.6,0.4,0.8,0.7c0.2,0.3,0.4,0.6,0.5,1c0.1,0.4,0.2,0.8,0.2,1.2C34.5,949,34.5,949.4,34.4,949.8z"/>
	<g>
		<path fill="#FFFFFF" d="M44.1,947.1c-0.1-0.6-0.3-1-0.7-1.3c-0.4-0.3-0.8-0.4-1.4-0.4c-0.3,0-0.5,0-0.8,0.1
			c-0.3,0.1-0.6,0.3-0.8,0.5c-0.2,0.2-0.4,0.6-0.6,1c-0.2,0.4-0.2,1-0.2,1.7c0,0.4,0,0.7,0.1,1.1c0.1,0.4,0.2,0.7,0.4,1
			c0.2,0.3,0.4,0.5,0.7,0.7c0.3,0.2,0.7,0.3,1.1,0.3c0.6,0,1.1-0.2,1.4-0.5c0.4-0.4,0.6-0.9,0.7-1.5h2c-0.2,1.2-0.6,2.1-1.3,2.7
			c-0.7,0.6-1.6,0.9-2.8,0.9c-0.7,0-1.3-0.1-1.9-0.4c-0.5-0.2-1-0.6-1.4-1c-0.4-0.4-0.7-0.9-0.8-1.5c-0.2-0.6-0.3-1.2-0.3-1.8
			c0-0.7,0.1-1.3,0.3-1.9c0.2-0.6,0.5-1.1,0.8-1.5c0.4-0.4,0.8-0.8,1.4-1c0.6-0.3,1.2-0.4,1.9-0.4c0.5,0,1,0.1,1.5,0.2
			c0.5,0.1,0.9,0.3,1.3,0.6c0.4,0.3,0.7,0.6,0.9,1c0.2,0.4,0.4,0.9,0.4,1.4H44.1z"/>
	</g>
</g>
<g>
	<path fill="#EE348B" d="M36.3,1006.8c-0.2-0.6-0.4-1.1-0.8-1.5c-0.3-0.4-0.8-0.8-1.3-1c-0.5-0.3-1.1-0.4-1.9-0.4
		c-0.3,0-0.5,0-0.8,0.1c-0.3,0.1-0.5,0.2-0.7,0.3c-0.2,0.1-0.5,0.3-0.7,0.4c-0.2,0.2-0.4,0.4-0.5,0.6h0v-4.6h-2v12.5h1.9v-1.2h0
		c0.2,0.3,0.3,0.5,0.6,0.7c0.2,0.2,0.5,0.3,0.8,0.5c0.3,0.1,0.6,0.2,0.9,0.2c0.3,0,0.6,0.1,0.9,0.1c0.7,0,1.2-0.1,1.7-0.4
		c0.5-0.3,0.9-0.6,1.2-1c0.3-0.4,0.6-0.9,0.7-1.5c0.2-0.6,0.2-1.2,0.2-1.8C36.5,1008,36.4,1007.3,36.3,1006.8z M34.4,1009.8
		c-0.1,0.4-0.2,0.7-0.4,1s-0.5,0.5-0.8,0.7c-0.3,0.2-0.7,0.3-1.2,0.3c-0.4,0-0.8-0.1-1.1-0.2c-0.3-0.2-0.6-0.4-0.8-0.7
		c-0.2-0.3-0.4-0.6-0.5-1c-0.1-0.4-0.2-0.8-0.2-1.3c0-1,0.2-1.7,0.6-2.3c0.4-0.6,1.1-0.9,1.9-0.9c0.4,0,0.8,0.1,1.1,0.3
		c0.3,0.2,0.6,0.4,0.8,0.7c0.2,0.3,0.4,0.6,0.5,1c0.1,0.4,0.2,0.8,0.2,1.2C34.5,1009,34.5,1009.4,34.4,1009.8z"/>
	<g>
		<path fill="#EE348B" d="M44.1,1007.1c-0.1-0.6-0.3-1-0.7-1.3c-0.4-0.3-0.8-0.4-1.4-0.4c-0.3,0-0.5,0-0.8,0.1
			c-0.3,0.1-0.6,0.3-0.8,0.5c-0.2,0.2-0.4,0.6-0.6,1c-0.2,0.4-0.2,1-0.2,1.7c0,0.4,0,0.7,0.1,1.1c0.1,0.4,0.2,0.7,0.4,1
			c0.2,0.3,0.4,0.5,0.7,0.7c0.3,0.2,0.7,0.3,1.1,0.3c0.6,0,1.1-0.2,1.4-0.5c0.4-0.4,0.6-0.9,0.7-1.5h2c-0.2,1.2-0.6,2.1-1.3,2.7
			c-0.7,0.6-1.6,0.9-2.8,0.9c-0.7,0-1.3-0.1-1.9-0.4c-0.5-0.2-1-0.6-1.4-1c-0.4-0.4-0.7-0.9-0.8-1.5c-0.2-0.6-0.3-1.2-0.3-1.8
			c0-0.7,0.1-1.3,0.3-1.9c0.2-0.6,0.5-1.1,0.8-1.5c0.4-0.4,0.8-0.8,1.4-1c0.6-0.3,1.2-0.4,1.9-0.4c0.5,0,1,0.1,1.5,0.2
			c0.5,0.1,0.9,0.3,1.3,0.6c0.4,0.3,0.7,0.6,0.9,1c0.2,0.4,0.4,0.9,0.4,1.4H44.1z"/>
	</g>
</g>
</svg>
