<?xml version="1.0" standalone="no"?>
<!DOCTYPE svg PUBLIC "-//W3C//DTD SVG 1.1//EN" "http://www.w3.org/Graphics/SVG/1.1/DTD/svg11.dtd" >
<svg xmlns="http://www.w3.org/2000/svg">
<metadata></metadata>
<defs>
<font id="keraterblack" horiz-adv-x="1345" >
<font-face units-per-em="2048" ascent="1536" descent="-512" />
<missing-glyph horiz-adv-x="620" />
<glyph horiz-adv-x="2048" />
<glyph horiz-adv-x="2048" />
<glyph unicode="&#xd;" horiz-adv-x="1024" />
<glyph unicode=" "  horiz-adv-x="620" />
<glyph unicode="&#x09;" horiz-adv-x="620" />
<glyph unicode="&#xa0;" horiz-adv-x="620" />
<glyph unicode="!" horiz-adv-x="495" d="M-98 8q0 35 15 68t41 58.5t58.5 40.5t67.5 15t67.5 -15t58.5 -40.5t41 -58.5t15 -68t-15 -67.5t-41 -58t-58.5 -41t-67.5 -15.5t-67.5 15.5t-58.5 41t-41 58t-15 67.5zM-70 201v1378h308v-1378h-308z" />
<glyph unicode="&#x22;" horiz-adv-x="964" d="M-55 821v588h307v-588h-307zM313 821v588h308v-588h-308z" />
<glyph unicode="#" horiz-adv-x="2187" d="M88 629v4q10 2 18 10q4 4 9 29l12 137q-12 10 -27 14v6h52l63 -157l66 157h47v-6q-23 0 -23 -26v-4l10 -125q4 -23 7 -27q4 -4 18 -8v-4h-72v4q10 2 17 8q6 6 6 18l-2 5l-10 131l-70 -166h-4l-68 166l-12 -125v-4q0 -27 27 -33v-4h-64zM94 922q0 25 17 41q14 16 39 16 q10 0 18 -2q6 -2 10 -2q2 0 6 4h2v-31h-2q-6 14 -12 21q-10 6 -22 6q-20 0 -29 -12q-10 -14 -10 -35q0 -23 12 -37q8 -14 29 -14q25 0 34 22l4 -2q-6 -10 -18 -20q-10 -6 -27 -7q-14 0 -26 7q-10 6 -19 18q-6 12 -6 27zM96 1092q0 16 8 36q8 18 27 27q14 8 33 8q14 0 22 -2 q12 -4 13 -4q4 0 8 6h4v-39h-4q-4 16 -14 25q-14 10 -29 10q-18 0 -35 -16q-12 -18 -12 -43q0 -27 14 -47q14 -18 39 -19q23 0 23 13v14q0 10 -5 18q-4 4 -10 4h-6v4h53v-4q-8 0 -12 -4t-4 -14v-35q-2 0 -6 -1t-10 -1h-21q-37 0 -55 16q-20 18 -21 48zM207 926q0 23 16 39 q14 14 41 14q23 0 39 -14q16 -16 16 -39q0 -25 -18 -39q-14 -16 -39 -17q-25 0 -39 17q-16 16 -16 39zM223 926q0 -23 10 -37q12 -14 29 -15q20 0 29 15q12 14 12 35q0 23 -12 39q-10 12 -27 12q-18 0 -31 -12q-10 -17 -10 -37zM240 1030v4q8 0 12 4q2 4 2 17v82q0 12 -2 16 q-4 4 -12 4v4h94v-22h-2l-6 12q-4 4 -17 4h-37v-55h37q8 0 10 2q1 0 5 10h4v-33h-4q-4 10 -7 11q-2 2 -12 2h-33v-45q0 -6 2 -9q2 -2 9 -2h22q14 0 17 2q4 0 8 4q2 4 3 6.5t3 6.5h4l-6 -25h-94zM334 872v2q8 4 8 7q2 2 6 14l6 72q-6 4 -14 8v2h27l32 -82l35 82h25v-2 q-12 0 -13 -14v-3l7 -65q0 -6 4 -14l8 -5v-2h-37v2q8 4 8 5q2 2 2 10v2l-6 67l-35 -86h-4l-35 86l-6 -63v-4q0 -12 15 -17v-2h-33zM354 1137v28h4q8 -4 21 -4h67q12 0 21 4h4v-28h-2q-4 12 -8 14q-13 4 -21 4h-18v-100q0 -14 2 -17q4 -4 10 -4v-4h-45v4q8 0 12 4q2 4 2 17 v100h-18q-12 0 -20 -4q-6 -6 -7 -14h-4zM358 629v4q14 4 17 8q8 6 14 25l55 165h21l57 -174q6 -16 13 -18q6 -6 18 -6v-4h-72v4q16 0 17 12v8l-19 58h-65l-15 -41q-4 -8 -4 -13.5v-9.5q0 -12 17 -14v-4h-54zM418 721h55l-27 86zM444 562q0 -9 2 -19q4 -10 10.5 -21.5 t16.5 -21.5q16 -16 51 -27q12 -4 38 -9t67 -5t97 5t130 17q76 12 168 29.5t209 40.5q59 10 121.5 21.5t134.5 15.5q35 4 71.5 4t75.5 -8q18 -4 36 -10.5t34 -18.5q14 -12 25 -31q8 -20 8 -39q0 -20 -5 -39.5t-22 -35.5q-16 -16 -36.5 -22.5t-43.5 -8.5q-45 -4 -91 3t-93 17 q-96 23 -194.5 54.5t-206.5 66.5q-53 16 -107.5 32.5t-114.5 33.5q-29 6 -59.5 11t-60.5 9q-16 2 -32 2h-32q-35 -4 -61 -14q-31 -12 -48 -45q-14 -35 -8 -66q0 -16 11 -30q8 -16 24 -25q14 -10 30.5 -15t33.5 -10q35 -4 68.5 -4t68.5 4q35 2 70.5 7.5t70.5 11.5 q72 10 144.5 24.5t148.5 30.5q37 6 75 13.5t77 11.5q41 4 79.5 8t79.5 4l40 -4t40 -8q18 -4 35.5 -16.5t26.5 -30.5q8 -16 8 -41q-2 -10 -4 -19.5t-6 -19.5q-12 -23 -27 -31q-14 -10 -39 -16q-20 -4 -41.5 -4t-44.5 2q-20 4 -41.5 7t-44.5 7q-41 10 -84 21.5t-86 25.5 q-86 27 -174 55.5t-180 51.5q-23 4 -46.5 9t-48.5 9t-48 5t-48 -3q-29 -4 -47 -14q-20 -8 -35 -35q-4 -10 -6 -23.5t-2 -25.5q0 -27 19 -45q16 -16 43 -25q12 -4 24 -5t27 -3q25 -2 50.5 -1t49.5 5q53 4 103.5 12t101.5 19q53 10 104.5 19t104.5 20q27 4 53.5 8t52.5 8 q29 4 54.5 6t54.5 0q27 0 55 -6q12 -4 24.5 -8t22.5 -14q18 -16 23 -48q0 -12 -2 -25.5t-11 -23.5q-6 -12 -17 -19t-23 -11q-25 -6 -52 -7q-27 0 -52.5 4.5t-49.5 8.5q-51 10 -99.5 23.5t-97.5 27.5q-47 16 -93 29.5t-93 27.5q-47 12 -92 21.5t-92 11.5h-24.5t-22.5 -2 q-10 -4 -21.5 -8t-19.5 -13q-18 -12 -25 -38q-2 -10 -2 -21.5t4 -21.5q6 -23 31 -33q16 -8 43 -13q23 -4 43 -3t43 3q43 4 85 10.5t83 14.5q82 16 159.5 30.5t153.5 20.5q39 6 76 0q18 -2 36.5 -7t30.5 -17q12 -14 13.5 -33t-4.5 -35t-23 -27q-8 -4 -15 -6t-18 -4 q-16 -4 -34.5 -3t-34.5 3q-16 4 -34 6t-34 7q-70 16 -129 32q-63 18 -122.5 36t-119.5 28q-16 2 -29.5 3t-29.5 1q-14 0 -28.5 -1t-28.5 -7q-6 -4 -12.5 -7.5t-12.5 -9.5q-10 -12 -12 -26q-2 -6 -2 -13.5v-13.5q4 -18 14 -27q10 -10 23.5 -13t25.5 -5q14 -2 27.5 -2h25.5 q27 2 52.5 5t50.5 7q49 10 95 18.5t91 16.5q23 4 43.5 7t42.5 7q23 2 42.5 3t41.5 -1q10 -2 18.5 -4t18.5 -6q8 -4 14.5 -11t8.5 -15q6 -16 -2 -37q-6 -16 -25 -25q-16 -6 -33.5 -6h-34.5q-16 2 -32.5 4t-32.5 6q-66 14 -120 29.5t-103 26.5q-27 4 -50.5 8t-46.5 4t-43 -6 t-30 -27q-10 -20 -4 -39q8 -18 26 -24q29 -8 62 -5q29 2 52 5.5t42 7.5q20 4 35.5 6t27.5 4q49 10 66.5 12t42.5 6q29 4 56.5 5.5t45.5 -7.5q16 -10 17 -22q0 -4 1 -5t1 -3v-2q2 0 2 10t-4 14q-2 6 -15 15q-20 10 -47 10q-14 0 -28.5 -1t-30.5 -3q-35 -4 -62.5 -10.5 t-56.5 -10.5q-29 -6 -59.5 -12t-69.5 -10q-10 0 -20.5 -1t-20.5 -1q-10 2 -21.5 3t-21.5 7q-12 8 -12 18q-4 8 0 25q2 8 14 20q6 4 13.5 6.5l13.5 4.5q33 6 67 0q35 -2 76 -13q41 -10 85 -21t95 -24q25 -4 52.5 -9t56.5 -7q16 0 30.5 2t28.5 10q12 6 21 25q6 12 2 32 q0 18 -17 29q-14 10 -30 14q-33 6 -72 3q-35 -2 -72 -7.5t-78 -13.5q-39 -8 -78.5 -16.5t-82.5 -14.5q-23 -4 -44.5 -7t-43.5 -5h-45q-12 2 -24.5 4t-23.5 6q-10 4 -17 13.5t-9 21.5q-4 23 10 45q14 18 41 25q12 2 25.5 3t25.5 -1q47 -2 105 -17q27 -6 53.5 -12t54.5 -14 q53 -16 110.5 -32.5t117.5 -29.5q16 -4 31.5 -5t31.5 -3q35 -4 64 2q16 4 28 12q14 12 21 27q6 18 4 35q0 14 -10 31q-10 14 -27.5 19t-34.5 9q-16 4 -33.5 4h-33.5q-35 -2 -71 -7t-71 -11q-72 -12 -144.5 -27.5t-150.5 -25.5q-18 -4 -37.5 -5t-40.5 -3q-45 -4 -77 2 q-10 2 -19.5 4t-19.5 6q-20 10 -27 28q-8 16 -4 39q4 25 16 37q16 16 35 23q20 6 41 6q47 0 86 -8q41 -6 84 -17.5t86 -23.5t86 -25.5t88 -27.5q45 -12 90 -24.5t93 -21.5q49 -10 98 -6q27 4 47 13q25 14 31 39q10 25 4 49q-4 29 -27 41q-18 14 -47 20q-12 2 -24.5 3 t-26.5 1q-33 2 -64.5 -1t-64.5 -7t-64.5 -9t-64.5 -11q-61 -12 -123 -24.5t-123 -23.5q-31 -4 -61.5 -8t-61.5 -8q-29 -4 -59.5 -5t-61.5 3q-29 4 -55 16q-29 16 -35 45t6 58q10 27 39 39q12 8 26.5 10t29.5 4h27.5t29.5 -2q29 -4 55.5 -9t54.5 -11q55 -12 107.5 -29 t105.5 -33t103.5 -31.5t101.5 -31.5q51 -14 101.5 -26.5t101.5 -16.5q27 -4 52.5 -3t47.5 9q12 4 23.5 10t19.5 16q14 20 19 47q0 12 -1 24.5t-5 25.5q-10 25 -31 36q-23 14 -46.5 18.5t-45.5 8.5q-47 4 -94.5 -1t-92.5 -11q-92 -12 -178 -31q-88 -16 -171 -32.5t-165 -26.5 q-41 -6 -80.5 -9.5t-80.5 -1.5q-20 2 -39 4.5t-37 8.5t-33.5 18t-24.5 29q-12 35 0.5 72.5t47.5 54.5q16 6 33.5 9t35.5 5h35.5t34.5 -4q35 -4 68.5 -11t66.5 -16q33 -10 64.5 -18t62.5 -18q125 -39 236.5 -77t218.5 -63q47 -14 104 -20q27 -4 52.5 -5t49.5 3q27 4 48 12 q27 14 36 31q12 23 17 45q4 29 -2 47q-2 20 -21 41q-14 14 -34 24t-41 13.5t-41 5.5q-41 4 -79 3t-75 -5q-72 -8 -136.5 -19.5t-119.5 -21.5q-57 -10 -106.5 -19.5t-94.5 -17.5q-88 -16 -152.5 -26.5t-111.5 -14.5q-49 -4 -82 -4t-55 2q-23 2 -37 4t-27 6q-33 10 -49 27 q-10 8 -15 17.5t-9 19.5q-6 18 -6 30.5t-3 12.5v-4q0 -2 -1 -3t-1 -6v-13zM475 872v2q4 2 5 3.5t5 3.5q0 2 1 5t1 9l9 72q-6 4 -15 8v2h27l33 -82l34 82h25v-2q-12 0 -12 -14v-3l6 -65q0 -4 1 -7t1 -7q2 -2 4 -2t6 -3v-2h-37v2q8 4 9 5q2 2 2 10v2l-7 67l-34 -86h-4l-35 86 l-6 -63v-4q0 -14 14 -17v-2h-33zM532 823v6h74v-6q-18 -4 -18 -12q0 -4 1 -6l3 -6l47 -127l43 116l-6 13q-2 10 -10 18q-8 4 -17 4v6h74v-6q-20 0 -21 -12l5 -12l47 -127l41 112q4 16 4 23q0 16 -19 16v6h60v-6q-12 0 -19 -10q-4 -4 -8 -11t-8 -20l-57 -157h-7l-55 149 l-53 -149h-6l-62 168q-2 6 -4 11t-4 9t-4 5t-4 3q-4 2 -17 2zM537 1030v4q10 0 10 4q4 8 4 17v82q0 6 -1 9t-1 7q-4 4 -12 4v4h90v-24h-4q-4 12 -7 14q-4 4 -14 4h-35v-55h35q6 0 10 4t4 12h5v-37h-5q0 15 -14 15h-35v-39q0 -8 4 -17q4 -4 13 -4v-4h-47zM616 872v2 q10 0 11 5q2 2 2 14v65q0 10 -2 13q-4 4 -11 4v2h78v-16h-4q0 8 -4 8q-4 4 -12 4h-31v-45h31q6 0 6 2q4 4 4 8h4v-27h-4q-4 8 -4 9q-2 2 -10 2h-27v-37q0 -4 2 -6h6h19h12q4 0 8 4q0 -2 4 10h4l-4 -21h-78zM641 1157v4h47v-4q-8 0 -12 -4q-2 -4 -2 -16v-66q0 -18 8 -27 q8 -8 25 -8q24 1 36 21v80q0 12 -2 16q-4 4 -12 4v4h47v-4q-8 0 -12 -4q-2 -4 -2 -16v-82q0 -12 2 -17q4 -4 12 -4v-4h-33v19q-18 -20 -43 -21q-20 0 -32 12t-13 33v64q0 12 -2 16q-4 4 -12 4zM711 872v2q6 0 10 5q2 2 2 14v65q0 10 -2 13q-4 4 -10 4v2h43q18 0 26 -8t8 -19 q0 -20 -20 -26q2 -2 4 -3t4 -6q4 -4 6 -7l6 -9q8 -16 13 -18q4 -4 5 -4t5 -3v-2h-23q-4 4 -7 9.5t-7 13.5q-12 18 -16 20q-7 7 -13 7h-8v-29q0 -12 2 -14q4 -4 11 -5v-2h-39zM737 926h13q12 0 18 6t6 18q0 10 -6 17q-10 6 -20 6h-11v-47zM795 1030v4q6 0 10 4t4 19v82 q0 12 -4 14q-4 4 -10 4v4h47v-4q-8 0 -13 -4q-2 -4 -2 -16v-88q0 -8 2 -9q4 -4 13 -4h26q8 0 17 4q2 4 4 7.5t4 11.5h4l-8 -29h-94zM825 922q0 27 15 41q14 16 39 16q12 0 20 -2q4 -2 8 -2q2 0 6 4h5v-31h-5q-2 14 -12 21q-10 6 -22 6q-16 0 -29 -12q-8 -10 -8 -35t10 -37 q8 -14 29 -14q25 0 37 22l2 -2q-6 -12 -17 -20q-12 -6 -26 -7q-14 0 -27 7q-12 6 -19 18q-6 12 -6 27zM854 823v6h51l127 -157v119q0 16 -6 26q-4 6 -18 6v6h61v-6q-14 0 -20 -6t-7 -24v-164h-6l-141 174v-141q0 -16 6 -21q4 -8 19 -8v-4h-62v4q12 0 21 8q6 8 6 27v118 q0 20 -8 27q-6 10 -23 10zM909 1030v4q6 0 11 4q4 8 4 19v82q0 10 -4 14t-11 4v4h45v-4q-6 0 -10 -4q-4 -8 -4 -16v-88q0 -8 4 -9q4 -4 10 -4h27q12 0 16 4q5 5 11 19h4l-8 -29h-95zM930 872v2q6 0 10 5q2 2 2 14v65q0 10 -2 13q-4 4 -10 4v2h39v-2q-6 0 -11 -4 q-2 -2 -2 -13v-65q0 -12 2 -14q4 -4 11 -5v-2h-39zM977 872v2q4 2 6 2.5t4 2.5q4 4 6 14l29 86h10l31 -90q4 -10 6 -10q4 -4 8 -5v-2h-37v2q10 0 11 7q0 4 -2 6l-9 28h-34l-7 -22q-4 -8 -4 -10q0 -8 9 -9v-2h-27zM1008 922h30l-16 45zM1071 1030v4q8 0 12 4q2 4 2 17v82 q0 12 -2 16q-4 4 -12 4v4h90v-24h-2q-2 10 -6 14t-16 4h-33v-55h35q4 0 8 4q2 2 6 12h2v-37h-2q-2 15 -14 15h-35v-39q0 -12 2 -17q8 -4 12 -4v-4h-47zM1090 872v2q6 0 10 5q0 4 1 7t1 7v65q0 4 -1 7.5t-1 5.5q-4 4 -10 4v2h36v-2q-4 0 -8 -4q-2 -2 -2 -13v-71q0 -6 2 -6 q2 -2 8 -2h23q10 0 12 2q4 2 8 14h2l-6 -23h-75zM1102 627v53h6q0 -23 14 -35q14 -14 33 -14q16 0 31 10q10 10 10 27q0 12 -8 22t-39 29q-23 14 -31 22q-10 8 -12 19q-2 6 -3 11t-1 11q0 25 16 37q12 14 39 15h13.5t15.5 -5q6 -2 10 -2h4q0 3 2 7h4v-50h-4q-4 23 -14 31 q-12 12 -31 12q-14 0 -27 -8q-10 -10 -10 -22q0 -10 8 -23q6 -8 37 -29q33 -20 41 -32q12 -12 13 -33q0 -20 -17 -41q-20 -16 -41 -16q-16 0 -35 8q-4 0 -5 1t-3 1h-2q-6 0 -8 -6h-6zM1182 1096q0 29 20 49q18 18 49 18q27 0 49 -18q20 -20 21 -49q0 -25 -21 -49 q-23 -18 -49 -19q-31 0 -49 19q-20 20 -20 49zM1202 1096q0 -31 12 -45q14 -18 37 -19q23 0 35 19q14 16 14 45q0 31 -14 45q-12 18 -35 18q-20 0 -37 -16q-12 -18 -12 -47zM1223 872v2q8 0 8 5q4 8 4 14v65q0 4 -1 7.5t-1 5.5q-4 4 -10 4v2h37v-2q-4 0 -9 -4q-4 -4 -4 -13 v-71q0 -6 4 -6q2 -2 9 -2h20q12 0 14 2q5 4 9 14h2l-7 -23h-75zM1264 637q0 6 4 10q6 6 12 6t12 -6q4 -4 4 -10q0 -8 -4 -12q-6 -6 -12 -7q-6 0 -12 7q-4 4 -4 12zM1311 872v2q6 0 10 5q0 2 1 6t1 8v65q0 4 -1 7.5t-1 5.5q-4 4 -10 4v2h37v-2q-4 0 -9 -4q-2 -2 -2 -13v-65 q0 -12 2 -14q4 -4 9 -5v-2h-37zM1339 1157v4h33l82 -102v76q0 10 -4 18q-4 4 -12 4v4h39v-4q-8 0 -13 -4q-4 -8 -4 -16v-107h-4l-92 113v-90q0 -10 4 -15q4 -4 12 -4v-4h-39v4q8 0 13 4q4 4 4 19v76q0 10 -4 18q-6 6 -15 6zM1354 723q0 51 28 80q31 31 76 31h17.5t19.5 -5 q8 -2 11 -3t7 -1q6 0 13 9h4v-62h-6q-6 29 -23 41q-18 14 -43 14q-35 0 -53 -24q-20 -23 -21 -66q0 -47 21 -73q20 -27 55 -27q47 0 72 43l4 -4q-8 -25 -33 -39q-20 -14 -51 -14q-29 0 -51 14q-23 12 -35 35q-12 20 -12 51zM1364 922q0 25 16 41q14 16 39 16q12 0 21 -2 q4 -2 8 -2q2 0 6 4h2v-31h-2q-2 14 -12 21q-10 6 -23 6q-16 0 -28 -12q-10 -14 -11 -35q0 -23 13 -37q8 -14 28 -14q25 0 37 22l2 -2q-6 -12 -16 -20q-12 -6 -29 -7q-12 0 -24 7q-12 6 -19 18q-8 10 -8 27zM1473 872v2q6 0 10 5q2 2 2 14v65q0 10 -2 13q-4 4 -10 4v2h75v-16 h-2l-4 8q-4 4 -14 4h-29v-45h29q6 0 8 2q0 2 1 3t1 5h4v-27h-4q0 8 -4 9q0 2 -10 2h-25v-37v-6h6h19h14q2 0 6 4t6 10h2l-4 -21h-75zM1491 1137v28h4q8 -4 21 -4h67q12 0 21 4h4v-28h-2q-4 12 -9 14q-8 4 -18 4h-20v-100q0 -6 1 -10.5t1 -6.5q4 -4 12 -4v-4h-47v4q8 0 12 4 q4 8 4 17v100h-20q-10 0 -19 -4q-8 -8 -8 -14h-4zM1563 975v2h26l66 -82v61q0 12 -2 15q-5 4 -11 4v2h33v-2q-4 0 -12 -4q0 -2 -1 -5t-1 -8v-86h-4l-74 91v-74q0 -6 4 -10t10 -5v-2h-30v2q8 0 8 5q4 8 4 14v61q0 10 -4 15q-2 2 -12 6zM1569 729q0 45 30 76q29 29 78 29 q47 0 76 -29q31 -31 31 -76t-31 -76t-78 -30q-45 0 -76 30q-30 31 -30 76zM1599 729q0 -41 21 -72q20 -27 55 -26q39 0 56 28q23 25 22 68q0 47 -20 74q-23 27 -56 26q-35 0 -55 -26q-23 -29 -23 -72zM1653 1030v4q8 0 12 4l8 17l35 108h14l39 -112q2 -10 6 -15q2 -2 11 -2 v-4h-45v4q12 0 12 8q-2 2 -2 5l-12 36h-41l-11 -26q-2 -6 -2 -15q0 -8 11 -8v-4h-35zM1692 872v27h2q0 -10 8 -18q8 -6 18 -7q10 0 15 5q6 6 6 14q0 4 -4 12q-6 4 -21 15q-6 4 -10 6t-6 6q-2 2 -6 10q0 2 -1 4t-1 6q0 12 8 21q6 6 20 6q10 0 15 -2q2 0 2 -1t2 -1h2q2 0 2 2 v2h4v-25h-4q0 10 -6 17q-4 4 -17 4q-10 0 -14 -4t-4 -10q0 -8 4 -13q2 -4 18 -14t23 -19q4 -4 4 -16t-8 -20t-21 -9q-10 0 -18 4h-6q-2 0 -4 -2h-2zM1692 1092h37l-19 55zM1763 872v2q6 0 11 5q2 2 2 14v65q0 10 -2 13q-4 4 -11 4v2h76v-16h-2q0 8 -4 8q-4 4 -12 4h-31v-45 h29q6 0 8 2l4 8h2v-27h-2q-4 8 -4 9q-2 2 -10 2h-27v-37q0 -4 2 -6h6h19h12q6 0 6 4q4 4 6 10h2l-4 -21h-76zM1788 1157v4h35l82 -102v76q0 10 -4 18q-5 4 -13 4v4h39v-4q-8 0 -12 -4t-4 -16v-107h-4l-92 113v-90q0 -12 4 -15q4 -4 12 -4v-4h-39v4q8 0 12 4q4 8 4 19v76 q0 12 -6 18q-4 6 -14 6zM1815 629v4q12 4 16 10q4 4 8 29l12 137q-8 10 -26 14v6h51l66 -157l65 157h47v-6q-23 0 -22 -26v-4l10 -125q0 -20 6 -27q4 -4 18 -8v-4h-71v4q10 2 16 8q4 8 4 18v5l-10 131l-70 -166h-6l-67 166l-13 -125v-4q0 -27 27 -33v-4h-61zM1882 872v2 q8 4 8 5q6 2 8 14l29 86h10l31 -90q4 -10 6 -10q4 -4 8 -5v-2h-36v2q10 0 10 7q0 4 -2 6l-8 28h-35l-6 -22q-4 -8 -4 -10q0 -8 8 -9v-2h-27zM1913 922h31l-17 45zM1944 1030v4q6 0 10 4q4 8 4 17v82q0 8 -4 16q-4 4 -10 4v4h59q35 0 53 -18q20 -20 21 -49q0 -31 -19 -45 q-18 -18 -53 -19h-61zM1974 1059q0 -10 4 -19q2 -4 13 -4h14q25 0 39 15q12 14 12 43q0 31 -14 45q-14 16 -43 16h-25v-96zM1976 956v25h4q4 -4 17 -4h53q12 0 16 4h5v-25h-3q-4 8 -6 13q-8 4 -16 4h-14v-82q0 -10 2 -12q4 -4 8 -5v-2h-37v2q6 0 10 5q0 4 1 7t1 7v80h-16 q-10 0 -14 -4q-6 -4 -7 -13h-4z" />
<glyph unicode="$" horiz-adv-x="1296" d="M-154 641h308q0 -88 22.5 -165t60 -135t89 -92t110.5 -34t111.5 9t91.5 29.5t61.5 53.5t22.5 80q0 29 -36 58.5t-91 57t-119.5 52.5t-122.5 43q-90 27 -180 60.5t-161.5 83t-118 117t-46.5 163.5q0 106 34 187t93.5 140.5t138.5 97.5t171 56v185h307v-191 q92 -29 172 -93.5t137 -156.5t90 -208.5t33 -247.5h-307q0 86 -21.5 162.5t-59.5 134t-89 91t-109 33.5q-59 0 -110.5 -11t-89 -33.5t-60 -58.5t-22.5 -87q0 -12 25.5 -25.5t66.5 -29t92 -31.5t104 -31q100 -31 205 -67.5t190 -95t138 -144.5t53 -211q0 -111 -30.5 -193.5 t-88 -141t-138.5 -92.5t-181 -44v-180h-307v194q-94 27 -174 92.5t-138.5 158.5t-92.5 210t-34 250z" />
<glyph unicode="&#x26;" horiz-adv-x="1196" d="M-154 403q0 115 30 189t83 127q-31 39 -46 91t-20.5 99t-5.5 81v34h-41q0 119 43 220.5t118 177t176.5 118.5t219.5 43q119 0 220.5 -55t177.5 -150.5t119 -223.5t43 -273h-308q0 82 -19.5 153.5t-54 124.5t-80.5 85t-98 32q-51 0 -97 -19.5t-79.5 -54.5t-53 -81 t-19.5 -97q4 -43 28 -76q23 -29 66 -51.5t123 -22.5h721v-307h-129v-164q0 -113 -43 -213t-119 -176.5t-177.5 -122t-220.5 -45.5t-220 45.5t-176 122t-118 177t-43 212.5zM154 403q0 -51 19.5 -97t53 -79.5t79.5 -53t97 -19.5t97.5 19.5t81 53t54 79.5t19.5 97v164h-297 q-4 -2 -9 -2h-7q-20 -4 -52 -12t-62.5 -25.5t-52 -47t-21.5 -77.5z" />
<glyph unicode="'" horiz-adv-x="301" d="M-154 821v588h308v-588h-308zM-154 821v588h308v-588h-308z" />
<glyph unicode="(" horiz-adv-x="493" d="M-156 745q0 82 15.5 170.5t41 175.5t57.5 171t67 157q80 174 182 344l223 -192q-78 -129 -139 -268q-27 -59 -51.5 -127t-44 -139.5t-31.5 -145.5t-12 -146q0 -70 12 -140t32.5 -138t46 -131.5t52.5 -118.5q63 -131 145 -250l-231 -198q-102 152 -182 315 q-35 70 -68 149.5t-58.5 164.5t-41 173t-15.5 174z" />
<glyph unicode=")" horiz-adv-x="493" d="M-203 1565l232 198q100 -152 182 -315q33 -70 65.5 -149.5t59 -164.5t42 -173.5t15.5 -174.5q0 -84 -15.5 -171t-42 -175t-59 -172t-65.5 -157q-80 -174 -180 -342l-224 192q78 129 140 268q53 119 96 265.5t43 291.5q0 70 -12.5 139.5t-33 137t-47 131t-52.5 119.5 q-63 129 -144 252z" />
<glyph unicode="*" horiz-adv-x="2187" d="M88 629v4q10 2 18 10q4 4 9 29l12 137q-12 10 -27 14v6h52l63 -157l66 157h47v-6q-23 0 -23 -26v-4l10 -125q4 -23 7 -27q4 -4 18 -8v-4h-72v4q10 2 17 8q6 6 6 18l-2 5l-10 131l-70 -166h-4l-68 166l-12 -125v-4q0 -27 27 -33v-4h-64zM94 922q0 25 17 41q14 16 39 16 q10 0 18 -2q6 -2 10 -2q2 0 6 4h2v-31h-2q-6 14 -12 21q-10 6 -22 6q-20 0 -29 -12q-10 -14 -10 -35q0 -23 12 -37q8 -14 29 -14q25 0 34 22l4 -2q-6 -10 -18 -20q-10 -6 -27 -7q-14 0 -26 7q-10 6 -19 18q-6 12 -6 27zM96 1092q0 16 8 36q8 18 27 27q14 8 33 8q14 0 22 -2 q12 -4 13 -4q4 0 8 6h4v-39h-4q-4 16 -14 25q-14 10 -29 10q-18 0 -35 -16q-12 -18 -12 -43q0 -27 14 -47q14 -18 39 -19q23 0 23 13v14q0 10 -5 18q-4 4 -10 4h-6v4h53v-4q-8 0 -12 -4t-4 -14v-35q-2 0 -6 -1t-10 -1h-21q-37 0 -55 16q-20 18 -21 48zM207 926q0 23 16 39 q14 14 41 14q23 0 39 -14q16 -16 16 -39q0 -25 -18 -39q-14 -16 -39 -17q-25 0 -39 17q-16 16 -16 39zM223 926q0 -23 10 -37q12 -14 29 -15q20 0 29 15q12 14 12 35q0 23 -12 39q-10 12 -27 12q-18 0 -31 -12q-10 -17 -10 -37zM240 1030v4q8 0 12 4q2 4 2 17v82q0 12 -2 16 q-4 4 -12 4v4h94v-22h-2l-6 12q-4 4 -17 4h-37v-55h37q8 0 10 2q1 0 5 10h4v-33h-4q-4 10 -7 11q-2 2 -12 2h-33v-45q0 -6 2 -9q2 -2 9 -2h22q14 0 17 2q4 0 8 4q2 4 3 6.5t3 6.5h4l-6 -25h-94zM334 872v2q8 4 8 7q2 2 6 14l6 72q-6 4 -14 8v2h27l32 -82l35 82h25v-2 q-12 0 -13 -14v-3l7 -65q0 -6 4 -14l8 -5v-2h-37v2q8 4 8 5q2 2 2 10v2l-6 67l-35 -86h-4l-35 86l-6 -63v-4q0 -12 15 -17v-2h-33zM354 1137v28h4q8 -4 21 -4h67q12 0 21 4h4v-28h-2q-4 12 -8 14q-13 4 -21 4h-18v-100q0 -14 2 -17q4 -4 10 -4v-4h-45v4q8 0 12 4q2 4 2 17 v100h-18q-12 0 -20 -4q-6 -6 -7 -14h-4zM358 629v4q14 4 17 8q8 6 14 25l55 165h21l57 -174q6 -16 13 -18q6 -6 18 -6v-4h-72v4q16 0 17 12v8l-19 58h-65l-15 -41q-4 -8 -4 -13.5v-9.5q0 -12 17 -14v-4h-54zM418 721h55l-27 86zM444 562q0 -9 2 -19q4 -10 10.5 -21.5 t16.5 -21.5q16 -16 51 -27q12 -4 38 -9t67 -5t97 5t130 17q76 12 168 29.5t209 40.5q59 10 121.5 21.5t134.5 15.5q35 4 71.5 4t75.5 -8q18 -4 36 -10.5t34 -18.5q14 -12 25 -31q8 -20 8 -39q0 -20 -5 -39.5t-22 -35.5q-16 -16 -36.5 -22.5t-43.5 -8.5q-45 -4 -91 3t-93 17 q-96 23 -194.5 54.5t-206.5 66.5q-53 16 -107.5 32.5t-114.5 33.5q-29 6 -59.5 11t-60.5 9q-16 2 -32 2h-32q-35 -4 -61 -14q-31 -12 -48 -45q-14 -35 -8 -66q0 -16 11 -30q8 -16 24 -25q14 -10 30.5 -15t33.5 -10q35 -4 68.5 -4t68.5 4q35 2 70.5 7.5t70.5 11.5 q72 10 144.5 24.5t148.5 30.5q37 6 75 13.5t77 11.5q41 4 79.5 8t79.5 4l40 -4t40 -8q18 -4 35.5 -16.5t26.5 -30.5q8 -16 8 -41q-2 -10 -4 -19.5t-6 -19.5q-12 -23 -27 -31q-14 -10 -39 -16q-20 -4 -41.5 -4t-44.5 2q-20 4 -41.5 7t-44.5 7q-41 10 -84 21.5t-86 25.5 q-86 27 -174 55.5t-180 51.5q-23 4 -46.5 9t-48.5 9t-48 5t-48 -3q-29 -4 -47 -14q-20 -8 -35 -35q-4 -10 -6 -23.5t-2 -25.5q0 -27 19 -45q16 -16 43 -25q12 -4 24 -5t27 -3q25 -2 50.5 -1t49.5 5q53 4 103.5 12t101.5 19q53 10 104.5 19t104.5 20q27 4 53.5 8t52.5 8 q29 4 54.5 6t54.5 0q27 0 55 -6q12 -4 24.5 -8t22.5 -14q18 -16 23 -48q0 -12 -2 -25.5t-11 -23.5q-6 -12 -17 -19t-23 -11q-25 -6 -52 -7q-27 0 -52.5 4.5t-49.5 8.5q-51 10 -99.5 23.5t-97.5 27.5q-47 16 -93 29.5t-93 27.5q-47 12 -92 21.5t-92 11.5h-24.5t-22.5 -2 q-10 -4 -21.5 -8t-19.5 -13q-18 -12 -25 -38q-2 -10 -2 -21.5t4 -21.5q6 -23 31 -33q16 -8 43 -13q23 -4 43 -3t43 3q43 4 85 10.5t83 14.5q82 16 159.5 30.5t153.5 20.5q39 6 76 0q18 -2 36.5 -7t30.5 -17q12 -14 13.5 -33t-4.5 -35t-23 -27q-8 -4 -15 -6t-18 -4 q-16 -4 -34.5 -3t-34.5 3q-16 4 -34 6t-34 7q-70 16 -129 32q-63 18 -122.5 36t-119.5 28q-16 2 -29.5 3t-29.5 1q-14 0 -28.5 -1t-28.5 -7q-6 -4 -12.5 -7.5t-12.5 -9.5q-10 -12 -12 -26q-2 -6 -2 -13.5v-13.5q4 -18 14 -27q10 -10 23.5 -13t25.5 -5q14 -2 27.5 -2h25.5 q27 2 52.5 5t50.5 7q49 10 95 18.5t91 16.5q23 4 43.5 7t42.5 7q23 2 42.5 3t41.5 -1q10 -2 18.5 -4t18.5 -6q8 -4 14.5 -11t8.5 -15q6 -16 -2 -37q-6 -16 -25 -25q-16 -6 -33.5 -6h-34.5q-16 2 -32.5 4t-32.5 6q-66 14 -120 29.5t-103 26.5q-27 4 -50.5 8t-46.5 4t-43 -6 t-30 -27q-10 -20 -4 -39q8 -18 26 -24q29 -8 62 -5q29 2 52 5.5t42 7.5q20 4 35.5 6t27.5 4q49 10 66.5 12t42.5 6q29 4 56.5 5.5t45.5 -7.5q16 -10 17 -22q0 -4 1 -5t1 -3v-2q2 0 2 10t-4 14q-2 6 -15 15q-20 10 -47 10q-14 0 -28.5 -1t-30.5 -3q-35 -4 -62.5 -10.5 t-56.5 -10.5q-29 -6 -59.5 -12t-69.5 -10q-10 0 -20.5 -1t-20.5 -1q-10 2 -21.5 3t-21.5 7q-12 8 -12 18q-4 8 0 25q2 8 14 20q6 4 13.5 6.5l13.5 4.5q33 6 67 0q35 -2 76 -13q41 -10 85 -21t95 -24q25 -4 52.5 -9t56.5 -7q16 0 30.5 2t28.5 10q12 6 21 25q6 12 2 32 q0 18 -17 29q-14 10 -30 14q-33 6 -72 3q-35 -2 -72 -7.5t-78 -13.5q-39 -8 -78.5 -16.5t-82.5 -14.5q-23 -4 -44.5 -7t-43.5 -5h-45q-12 2 -24.5 4t-23.5 6q-10 4 -17 13.5t-9 21.5q-4 23 10 45q14 18 41 25q12 2 25.5 3t25.5 -1q47 -2 105 -17q27 -6 53.5 -12t54.5 -14 q53 -16 110.5 -32.5t117.5 -29.5q16 -4 31.5 -5t31.5 -3q35 -4 64 2q16 4 28 12q14 12 21 27q6 18 4 35q0 14 -10 31q-10 14 -27.5 19t-34.5 9q-16 4 -33.5 4h-33.5q-35 -2 -71 -7t-71 -11q-72 -12 -144.5 -27.5t-150.5 -25.5q-18 -4 -37.5 -5t-40.5 -3q-45 -4 -77 2 q-10 2 -19.5 4t-19.5 6q-20 10 -27 28q-8 16 -4 39q4 25 16 37q16 16 35 23q20 6 41 6q47 0 86 -8q41 -6 84 -17.5t86 -23.5t86 -25.5t88 -27.5q45 -12 90 -24.5t93 -21.5q49 -10 98 -6q27 4 47 13q25 14 31 39q10 25 4 49q-4 29 -27 41q-18 14 -47 20q-12 2 -24.5 3 t-26.5 1q-33 2 -64.5 -1t-64.5 -7t-64.5 -9t-64.5 -11q-61 -12 -123 -24.5t-123 -23.5q-31 -4 -61.5 -8t-61.5 -8q-29 -4 -59.5 -5t-61.5 3q-29 4 -55 16q-29 16 -35 45t6 58q10 27 39 39q12 8 26.5 10t29.5 4h27.5t29.5 -2q29 -4 55.5 -9t54.5 -11q55 -12 107.5 -29 t105.5 -33t103.5 -31.5t101.5 -31.5q51 -14 101.5 -26.5t101.5 -16.5q27 -4 52.5 -3t47.5 9q12 4 23.5 10t19.5 16q14 20 19 47q0 12 -1 24.5t-5 25.5q-10 25 -31 36q-23 14 -46.5 18.5t-45.5 8.5q-47 4 -94.5 -1t-92.5 -11q-92 -12 -178 -31q-88 -16 -171 -32.5t-165 -26.5 q-41 -6 -80.5 -9.5t-80.5 -1.5q-20 2 -39 4.5t-37 8.5t-33.5 18t-24.5 29q-12 35 0.5 72.5t47.5 54.5q16 6 33.5 9t35.5 5h35.5t34.5 -4q35 -4 68.5 -11t66.5 -16q33 -10 64.5 -18t62.5 -18q125 -39 236.5 -77t218.5 -63q47 -14 104 -20q27 -4 52.5 -5t49.5 3q27 4 48 12 q27 14 36 31q12 23 17 45q4 29 -2 47q-2 20 -21 41q-14 14 -34 24t-41 13.5t-41 5.5q-41 4 -79 3t-75 -5q-72 -8 -136.5 -19.5t-119.5 -21.5q-57 -10 -106.5 -19.5t-94.5 -17.5q-88 -16 -152.5 -26.5t-111.5 -14.5q-49 -4 -82 -4t-55 2q-23 2 -37 4t-27 6q-33 10 -49 27 q-10 8 -15 17.5t-9 19.5q-6 18 -6 30.5t-3 12.5v-4q0 -2 -1 -3t-1 -6v-13zM475 872v2q4 2 5 3.5t5 3.5q0 2 1 5t1 9l9 72q-6 4 -15 8v2h27l33 -82l34 82h25v-2q-12 0 -12 -14v-3l6 -65q0 -4 1 -7t1 -7q2 -2 4 -2t6 -3v-2h-37v2q8 4 9 5q2 2 2 10v2l-7 67l-34 -86h-4l-35 86 l-6 -63v-4q0 -14 14 -17v-2h-33zM532 823v6h74v-6q-18 -4 -18 -12q0 -4 1 -6l3 -6l47 -127l43 116l-6 13q-2 10 -10 18q-8 4 -17 4v6h74v-6q-20 0 -21 -12l5 -12l47 -127l41 112q4 16 4 23q0 16 -19 16v6h60v-6q-12 0 -19 -10q-4 -4 -8 -11t-8 -20l-57 -157h-7l-55 149 l-53 -149h-6l-62 168q-2 6 -4 11t-4 9t-4 5t-4 3q-4 2 -17 2zM537 1030v4q10 0 10 4q4 8 4 17v82q0 6 -1 9t-1 7q-4 4 -12 4v4h90v-24h-4q-4 12 -7 14q-4 4 -14 4h-35v-55h35q6 0 10 4t4 12h5v-37h-5q0 15 -14 15h-35v-39q0 -8 4 -17q4 -4 13 -4v-4h-47zM616 872v2 q10 0 11 5q2 2 2 14v65q0 10 -2 13q-4 4 -11 4v2h78v-16h-4q0 8 -4 8q-4 4 -12 4h-31v-45h31q6 0 6 2q4 4 4 8h4v-27h-4q-4 8 -4 9q-2 2 -10 2h-27v-37q0 -4 2 -6h6h19h12q4 0 8 4q0 -2 4 10h4l-4 -21h-78zM641 1157v4h47v-4q-8 0 -12 -4q-2 -4 -2 -16v-66q0 -18 8 -27 q8 -8 25 -8q24 1 36 21v80q0 12 -2 16q-4 4 -12 4v4h47v-4q-8 0 -12 -4q-2 -4 -2 -16v-82q0 -12 2 -17q4 -4 12 -4v-4h-33v19q-18 -20 -43 -21q-20 0 -32 12t-13 33v64q0 12 -2 16q-4 4 -12 4zM711 872v2q6 0 10 5q2 2 2 14v65q0 10 -2 13q-4 4 -10 4v2h43q18 0 26 -8t8 -19 q0 -20 -20 -26q2 -2 4 -3t4 -6q4 -4 6 -7l6 -9q8 -16 13 -18q4 -4 5 -4t5 -3v-2h-23q-4 4 -7 9.5t-7 13.5q-12 18 -16 20q-7 7 -13 7h-8v-29q0 -12 2 -14q4 -4 11 -5v-2h-39zM737 926h13q12 0 18 6t6 18q0 10 -6 17q-10 6 -20 6h-11v-47zM795 1030v4q6 0 10 4t4 19v82 q0 12 -4 14q-4 4 -10 4v4h47v-4q-8 0 -13 -4q-2 -4 -2 -16v-88q0 -8 2 -9q4 -4 13 -4h26q8 0 17 4q2 4 4 7.5t4 11.5h4l-8 -29h-94zM825 922q0 27 15 41q14 16 39 16q12 0 20 -2q4 -2 8 -2q2 0 6 4h5v-31h-5q-2 14 -12 21q-10 6 -22 6q-16 0 -29 -12q-8 -10 -8 -35t10 -37 q8 -14 29 -14q25 0 37 22l2 -2q-6 -12 -17 -20q-12 -6 -26 -7q-14 0 -27 7q-12 6 -19 18q-6 12 -6 27zM854 823v6h51l127 -157v119q0 16 -6 26q-4 6 -18 6v6h61v-6q-14 0 -20 -6t-7 -24v-164h-6l-141 174v-141q0 -16 6 -21q4 -8 19 -8v-4h-62v4q12 0 21 8q6 8 6 27v118 q0 20 -8 27q-6 10 -23 10zM909 1030v4q6 0 11 4q4 8 4 19v82q0 10 -4 14t-11 4v4h45v-4q-6 0 -10 -4q-4 -8 -4 -16v-88q0 -8 4 -9q4 -4 10 -4h27q12 0 16 4q5 5 11 19h4l-8 -29h-95zM930 872v2q6 0 10 5q2 2 2 14v65q0 10 -2 13q-4 4 -10 4v2h39v-2q-6 0 -11 -4 q-2 -2 -2 -13v-65q0 -12 2 -14q4 -4 11 -5v-2h-39zM977 872v2q4 2 6 2.5t4 2.5q4 4 6 14l29 86h10l31 -90q4 -10 6 -10q4 -4 8 -5v-2h-37v2q10 0 11 7q0 4 -2 6l-9 28h-34l-7 -22q-4 -8 -4 -10q0 -8 9 -9v-2h-27zM1008 922h30l-16 45zM1071 1030v4q8 0 12 4q2 4 2 17v82 q0 12 -2 16q-4 4 -12 4v4h90v-24h-2q-2 10 -6 14t-16 4h-33v-55h35q4 0 8 4q2 2 6 12h2v-37h-2q-2 15 -14 15h-35v-39q0 -12 2 -17q8 -4 12 -4v-4h-47zM1090 872v2q6 0 10 5q0 4 1 7t1 7v65q0 4 -1 7.5t-1 5.5q-4 4 -10 4v2h36v-2q-4 0 -8 -4q-2 -2 -2 -13v-71q0 -6 2 -6 q2 -2 8 -2h23q10 0 12 2q4 2 8 14h2l-6 -23h-75zM1102 627v53h6q0 -23 14 -35q14 -14 33 -14q16 0 31 10q10 10 10 27q0 12 -8 22t-39 29q-23 14 -31 22q-10 8 -12 19q-2 6 -3 11t-1 11q0 25 16 37q12 14 39 15h13.5t15.5 -5q6 -2 10 -2h4q0 3 2 7h4v-50h-4q-4 23 -14 31 q-12 12 -31 12q-14 0 -27 -8q-10 -10 -10 -22q0 -10 8 -23q6 -8 37 -29q33 -20 41 -32q12 -12 13 -33q0 -20 -17 -41q-20 -16 -41 -16q-16 0 -35 8q-4 0 -5 1t-3 1h-2q-6 0 -8 -6h-6zM1182 1096q0 29 20 49q18 18 49 18q27 0 49 -18q20 -20 21 -49q0 -25 -21 -49 q-23 -18 -49 -19q-31 0 -49 19q-20 20 -20 49zM1202 1096q0 -31 12 -45q14 -18 37 -19q23 0 35 19q14 16 14 45q0 31 -14 45q-12 18 -35 18q-20 0 -37 -16q-12 -18 -12 -47zM1223 872v2q8 0 8 5q4 8 4 14v65q0 4 -1 7.5t-1 5.5q-4 4 -10 4v2h37v-2q-4 0 -9 -4q-4 -4 -4 -13 v-71q0 -6 4 -6q2 -2 9 -2h20q12 0 14 2q5 4 9 14h2l-7 -23h-75zM1264 637q0 6 4 10q6 6 12 6t12 -6q4 -4 4 -10q0 -8 -4 -12q-6 -6 -12 -7q-6 0 -12 7q-4 4 -4 12zM1311 872v2q6 0 10 5q0 2 1 6t1 8v65q0 4 -1 7.5t-1 5.5q-4 4 -10 4v2h37v-2q-4 0 -9 -4q-2 -2 -2 -13v-65 q0 -12 2 -14q4 -4 9 -5v-2h-37zM1339 1157v4h33l82 -102v76q0 10 -4 18q-4 4 -12 4v4h39v-4q-8 0 -13 -4q-4 -8 -4 -16v-107h-4l-92 113v-90q0 -10 4 -15q4 -4 12 -4v-4h-39v4q8 0 13 4q4 4 4 19v76q0 10 -4 18q-6 6 -15 6zM1354 723q0 51 28 80q31 31 76 31h17.5t19.5 -5 q8 -2 11 -3t7 -1q6 0 13 9h4v-62h-6q-6 29 -23 41q-18 14 -43 14q-35 0 -53 -24q-20 -23 -21 -66q0 -47 21 -73q20 -27 55 -27q47 0 72 43l4 -4q-8 -25 -33 -39q-20 -14 -51 -14q-29 0 -51 14q-23 12 -35 35q-12 20 -12 51zM1364 922q0 25 16 41q14 16 39 16q12 0 21 -2 q4 -2 8 -2q2 0 6 4h2v-31h-2q-2 14 -12 21q-10 6 -23 6q-16 0 -28 -12q-10 -14 -11 -35q0 -23 13 -37q8 -14 28 -14q25 0 37 22l2 -2q-6 -12 -16 -20q-12 -6 -29 -7q-12 0 -24 7q-12 6 -19 18q-8 10 -8 27zM1473 872v2q6 0 10 5q2 2 2 14v65q0 10 -2 13q-4 4 -10 4v2h75v-16 h-2l-4 8q-4 4 -14 4h-29v-45h29q6 0 8 2q0 2 1 3t1 5h4v-27h-4q0 8 -4 9q0 2 -10 2h-25v-37v-6h6h19h14q2 0 6 4t6 10h2l-4 -21h-75zM1491 1137v28h4q8 -4 21 -4h67q12 0 21 4h4v-28h-2q-4 12 -9 14q-8 4 -18 4h-20v-100q0 -6 1 -10.5t1 -6.5q4 -4 12 -4v-4h-47v4q8 0 12 4 q4 8 4 17v100h-20q-10 0 -19 -4q-8 -8 -8 -14h-4zM1563 975v2h26l66 -82v61q0 12 -2 15q-5 4 -11 4v2h33v-2q-4 0 -12 -4q0 -2 -1 -5t-1 -8v-86h-4l-74 91v-74q0 -6 4 -10t10 -5v-2h-30v2q8 0 8 5q4 8 4 14v61q0 10 -4 15q-2 2 -12 6zM1569 729q0 45 30 76q29 29 78 29 q47 0 76 -29q31 -31 31 -76t-31 -76t-78 -30q-45 0 -76 30q-30 31 -30 76zM1599 729q0 -41 21 -72q20 -27 55 -26q39 0 56 28q23 25 22 68q0 47 -20 74q-23 27 -56 26q-35 0 -55 -26q-23 -29 -23 -72zM1653 1030v4q8 0 12 4l8 17l35 108h14l39 -112q2 -10 6 -15q2 -2 11 -2 v-4h-45v4q12 0 12 8q-2 2 -2 5l-12 36h-41l-11 -26q-2 -6 -2 -15q0 -8 11 -8v-4h-35zM1692 872v27h2q0 -10 8 -18q8 -6 18 -7q10 0 15 5q6 6 6 14q0 4 -4 12q-6 4 -21 15q-6 4 -10 6t-6 6q-2 2 -6 10q0 2 -1 4t-1 6q0 12 8 21q6 6 20 6q10 0 15 -2q2 0 2 -1t2 -1h2q2 0 2 2 v2h4v-25h-4q0 10 -6 17q-4 4 -17 4q-10 0 -14 -4t-4 -10q0 -8 4 -13q2 -4 18 -14t23 -19q4 -4 4 -16t-8 -20t-21 -9q-10 0 -18 4h-6q-2 0 -4 -2h-2zM1692 1092h37l-19 55zM1763 872v2q6 0 11 5q2 2 2 14v65q0 10 -2 13q-4 4 -11 4v2h76v-16h-2q0 8 -4 8q-4 4 -12 4h-31v-45 h29q6 0 8 2l4 8h2v-27h-2q-4 8 -4 9q-2 2 -10 2h-27v-37q0 -4 2 -6h6h19h12q6 0 6 4q4 4 6 10h2l-4 -21h-76zM1788 1157v4h35l82 -102v76q0 10 -4 18q-5 4 -13 4v4h39v-4q-8 0 -12 -4t-4 -16v-107h-4l-92 113v-90q0 -12 4 -15q4 -4 12 -4v-4h-39v4q8 0 12 4q4 8 4 19v76 q0 12 -6 18q-4 6 -14 6zM1815 629v4q12 4 16 10q4 4 8 29l12 137q-8 10 -26 14v6h51l66 -157l65 157h47v-6q-23 0 -22 -26v-4l10 -125q0 -20 6 -27q4 -4 18 -8v-4h-71v4q10 2 16 8q4 8 4 18v5l-10 131l-70 -166h-6l-67 166l-13 -125v-4q0 -27 27 -33v-4h-61zM1882 872v2 q8 4 8 5q6 2 8 14l29 86h10l31 -90q4 -10 6 -10q4 -4 8 -5v-2h-36v2q10 0 10 7q0 4 -2 6l-8 28h-35l-6 -22q-4 -8 -4 -10q0 -8 8 -9v-2h-27zM1913 922h31l-17 45zM1944 1030v4q6 0 10 4q4 8 4 17v82q0 8 -4 16q-4 4 -10 4v4h59q35 0 53 -18q20 -20 21 -49q0 -31 -19 -45 q-18 -18 -53 -19h-61zM1974 1059q0 -10 4 -19q2 -4 13 -4h14q25 0 39 15q12 14 12 43q0 31 -14 45q-14 16 -43 16h-25v-96zM1976 956v25h4q4 -4 17 -4h53q12 0 16 4h5v-25h-3q-4 8 -6 13q-8 4 -16 4h-14v-82q0 -10 2 -12q4 -4 8 -5v-2h-37v2q6 0 10 5q0 4 1 7t1 7v80h-16 q-10 0 -14 -4q-6 -4 -7 -13h-4z" />
<glyph unicode="+" horiz-adv-x="1042" d="M-92 555v307h323v312h308v-312h303v-307h-303v-315h-308v315h-323z" />
<glyph unicode="," horiz-adv-x="544" d="M-188 -86q59 45 89.5 102.5t45.5 108.5q16 59 16 121h299q0 -102 -22 -203q-20 -86 -69.5 -182.5t-147.5 -167.5z" />
<glyph unicode="-" horiz-adv-x="1060" d="M-92 555v307h934v-307h-934z" />
<glyph unicode="." horiz-adv-x="378" d="M-113 -2q0 84 51.5 135t135.5 51t135 -51t51 -135q0 -35 -13.5 -67.5t-38 -58.5t-59 -41t-75.5 -15t-76 15t-59.5 41t-38 58.5t-13.5 67.5z" />
<glyph unicode="/" horiz-adv-x="714" d="M-190 -84l626 1798l279 -94l-627 -1813z" />
<glyph unicode="0" horiz-adv-x="1210" d="M-156 518v404q0 156 44 279.5t122 209.5t183.5 131t228.5 45t227.5 -45t182 -131t121.5 -210t44 -279v-406q0 -156 -44 -279.5t-121.5 -210.5t-182 -133.5t-227.5 -46.5t-228.5 46.5t-183.5 133.5t-122 211.5t-44 280.5zM152 518q0 -86 21.5 -154.5t58 -114.5t86 -70.5 t104.5 -24.5t104 24.5t85 70.5t57.5 113.5t21.5 153.5v406q0 86 -21.5 153.5t-57.5 112.5t-85 68.5t-104 23.5t-104.5 -23.5t-86 -68.5t-58 -112.5t-21.5 -153.5v-404z" />
<glyph unicode="1" horiz-adv-x="589" d="M-199 1057l252 520h248v-1720h-307v1558l242 -8q-27 -27 -33 -59.5t-3 -61.5t9 -49t6 -23q-10 -14 -19.5 -36.5t-19.5 -44.5l-67 16l2 53h82q0 -2 -1.5 -13t-1.5 -13q-6 -16 -9 -27.5t-7 -18.5l-6 -12q-4 -4 -7 -13t-5 -13q-2 -2 -7.5 -10.5t-11.5 -18.5l-16 -25l-92 76 q66 102 102.5 141t48.5 39q29 0 33 -23.5t-6 -59t-29.5 -75.5t-36.5 -71l-41 4q-4 -6 -6 -13t-4 -12l37 -16l-8 -16q-2 -4 -5 -13.5t-5 -13.5q-4 -10 -11.5 -28.5t-9.5 -22.5z" />
<glyph unicode="2" d="M-186 -154q39 166 120 318q35 63 84.5 132t114 132.5t147 119.5t185.5 97q92 35 154.5 74t99.5 82t52 91t15 101q0 49 -24.5 100.5t-65.5 92.5t-96 67.5t-119 26.5q-63 0 -118.5 -35t-97.5 -93t-65.5 -136t-23.5 -166h-307q0 152 47 286t129 234t194.5 158.5t241.5 58.5 t242 -53t194.5 -138t129 -190.5t47.5 -212.5q0 -90 -36 -179t-101.5 -170t-158.5 -151.5t-206 -125.5q-27 -14 -72 -49t-90 -72q-53 -43 -113 -92h803v-308h-1306z" />
<glyph unicode="3" horiz-adv-x="1253" d="M-158 545h308q0 -82 21.5 -152.5t58 -124t87 -84t107.5 -30.5t107.5 19.5t87 53t58 78.5t21.5 96q-8 55 -45 99q-33 37 -101.5 68.5t-193.5 31.5q-2 12 -4 29q-2 12 -2 28.5v32.5q0 33 4 64.5t21 48.5v49q27 2 80 10t107 26.5t94 50.5t40 83q0 53 -21.5 100t-58 82 t-87 55.5t-107.5 20.5t-107.5 -31.5t-87 -87t-58 -128t-21.5 -154.5h-308q0 145 45 274t123 225.5t184.5 152.5t229.5 56t229.5 -46t185.5 -124t123 -180t44 -215q0 -104 -37 -185t-86 -135q47 -49 72.5 -102t35.5 -98q12 -53 15 -101q0 -119 -44 -220t-123 -176 t-185.5 -117t-229.5 -42t-229.5 54.5t-184.5 149.5t-123 222t-45 273z" />
<glyph unicode="4" horiz-adv-x="1079" d="M-309 358l1155 1536v-2037h-307v501h-848zM301 666h238v530q18 25 15 5.5t-22.5 -67t-49 -112t-62.5 -132t-64.5 -128t-54.5 -96.5z" />
<glyph unicode="5" horiz-adv-x="1335" d="M-156 618h308q0 -96 27.5 -181t74.5 -148.5t111.5 -99t136.5 -35.5q74 0 137 25.5t111.5 69.5t76 102.5t27.5 123.5q0 66 -27.5 124t-76 102t-112 70t-136.5 26h-637l297 790h938v-307h-920l158 98l57 -43q-14 -16 -17 -25.5t-5 -13.5q-16 -41 -36 -89t-34 -87 q-2 -6 -6 -19.5t-8 -33.5q-2 -4 -7.5 -16.5t-13.5 -28.5q0 -8 -12 -39q-10 -23 -18.5 -54.5t-12.5 -54.5l-164 230h441q139 0 259 -48t209 -133t140 -200t51 -248t-51 -248.5t-140 -199.5t-209 -132.5t-259 -48.5t-259 60.5t-209 165t-139.5 246t-50.5 300.5z" />
<glyph unicode="6" horiz-adv-x="1366" d="M-152 475v33q0 309 60.5 517t159 333t221.5 177t246 52q76 0 153.5 -28.5t150 -78.5t137 -118t114.5 -143l-220 -191q-35 53 -75.5 99.5t-85.5 80t-89.5 53t-84.5 19.5q-74 0 -149 -51t-132 -168q115 45 254 45t259 -49t209 -134t139 -200t50 -248t-50 -248.5 t-139 -199.5t-209 -132.5t-259 -48.5t-260 48.5t-210 132.5t-139.5 199.5t-50.5 248.5zM156 475q0 -66 27.5 -124t75.5 -102t111.5 -69.5t137.5 -25.5q72 0 135.5 25.5t111.5 69.5t75.5 102t27.5 124q0 68 -27.5 126t-75.5 102.5t-111.5 70t-135.5 25.5q-74 0 -137.5 -25.5 t-111.5 -70t-75.5 -102.5t-27.5 -126z" />
<glyph unicode="7" horiz-adv-x="1185" d="M-143 1280v307h1228l-567 -1730h-313l235 704h-342v307h453l-21 -20q0 10 5 18q0 4 1 9.5t7 21.5l-2 -4q2 6 4 13t4 12l-2 -3q4 16 4 15l6 24q0 8 2 12.5t6 10.5q0 6 4 10l4 8q0 6 5 15q0 14 4 22q0 6 1 8t5 9v12q4 10 11 28.5t19 49.5v-2q4 10 6.5 19t6.5 18v-3 q2 4 4 9.5t4 9.5l20 57l-4 -6q0 -4 2 -1t5 7v4q0 2 2 6q2 2 2 4.5t2 4.5q2 4 4 11t4 11v4q0 10 6 21q2 4 1 4t1 4q10 35 23.5 57.5t25.5 22.5q37 0 37 -121h-913z" />
<glyph unicode="8" horiz-adv-x="1107" d="M-152 362q0 104 41 197.5t113 163.5q-74 68 -107.5 157t-33.5 199q0 109 40 202t110.5 160.5t166.5 106.5t209 39t209 -39t167 -106.5t111.5 -160.5t40.5 -202q0 -100 -42 -191t-107 -161q160 -148 160 -365q0 -111 -41 -205t-114 -162.5t-171 -108.5t-213 -40t-213 40 t-171 108.5t-114 163t-41 204.5zM156 362q0 -43 18.5 -80.5t50 -66.5t73.5 -45t89 -16t89 16t74 45t50 66.5t18 80.5t-18 81t-50 67t-74 45t-89 16t-89 -16t-73.5 -45t-50 -66.5t-18.5 -81.5zM168 1079q0 -41 17.5 -76.5t47 -63.5t69.5 -43t85 -15t85 15t70.5 43t48 63.5 t17.5 76.5t-17.5 78t-48 64.5t-70.5 43t-85 15.5t-85 -15.5t-69.5 -43t-47 -64.5t-17.5 -78z" />
<glyph unicode="9" horiz-adv-x="1380" d="M-154 952q0 129 50.5 244t139.5 202t209 138t259 51t259 -51t209 -138t140 -202t51 -244v-32q0 -307 -61.5 -514t-160.5 -331t-223 -176.5t-249 -52.5q-74 0 -150.5 28t-148.5 75t-136.5 112.5t-115.5 143.5l227 194q35 -53 75 -98t82 -78t85 -51t82 -18q78 0 153.5 47 t133.5 168q-119 -45 -252 -45q-139 0 -259 48t-209 133t-139.5 199.5t-50.5 247.5zM154 952q0 -66 27.5 -124t74.5 -102t111.5 -69.5t136.5 -25.5q74 0 137.5 25.5t111.5 69.5t75.5 102.5t27.5 123.5q0 68 -27.5 127.5t-75.5 104.5t-111.5 70.5t-137.5 25.5 q-72 0 -136.5 -25.5t-111.5 -70.5t-74.5 -104.5t-27.5 -127.5z" />
<glyph unicode=":" horiz-adv-x="378" d="M-113 31q0 43 16.5 77.5t42 59.5t59.5 39t71 14q86 0 138 -52t52 -138q0 -37 -14 -71t-39 -59.5t-59.5 -42t-77.5 -16.5q-37 0 -71 16.5t-59.5 42t-42 59.5t-16.5 71zM-113 850q0 43 16.5 78t42 59.5t59.5 38.5t71 14q86 0 138 -52t52 -138q0 -37 -14 -71t-39 -59.5 t-59.5 -41.5t-77.5 -16q-37 0 -71 16t-59.5 41.5t-42 59.5t-16.5 71z" />
<glyph unicode=";" horiz-adv-x="477" d="M-231 -90q55 41 84.5 96t42.5 107q14 59 14 120h299q2 -104 -23 -204q-10 -43 -28.5 -90.5t-46 -94.5t-65.5 -92t-89 -84zM-113 850q0 43 16.5 78t42 59.5t59.5 38.5t71 14q86 0 138 -52t52 -138q0 -37 -14 -71t-39 -59.5t-59.5 -41.5t-77.5 -16q-37 0 -71 16t-59.5 41.5 t-42 59.5t-16.5 71z" />
<glyph unicode="&#x3c;" horiz-adv-x="743" d="M-172 627l649 641l199 -242l-561 -537v213l106 23q2 -6 2 -16v-9q12 -8 23 -18q4 -4 7 -6t7 -6l8 -8q2 -2 8.5 -7.5t14.5 -11.5l88 -88l-9 13q-10 14 -20 29t-16 28.5t0 13.5q0 -33 -17.5 -59.5t-56.5 -26.5l31 92q31 -25 83 -69t109.5 -92t110.5 -92t82 -68l-201 -230z " />
<glyph unicode="=" horiz-adv-x="1015" d="M-92 412v307h934v-307h-934zM-92 616v308h934v-308h-934z" />
<glyph unicode="&#x3e;" horiz-adv-x="790" d="M-154 1018l203 231l647 -532l-649 -641l-199 241l506 486v-221l-86 84l-6 6l-14 14l-39 39l43 43v-29q6 -6 18.5 -17t19.5 -15.5t8 3t-13 35.5l-6 9l73 -49q-66 0 -99.5 3t-45.5 13q-27 20 -61.5 49t-71.5 59.5t-74 61.5t-66 55q-10 10 -13 12.5t-7 6.5 q-14 10 -36.5 28.5t-31.5 24.5z" />
<glyph unicode="?" horiz-adv-x="1376" d="M-154 827q0 168 51.5 315.5t140.5 257t211 173t261 63.5q141 0 262 -54t211 -145t141.5 -212t51.5 -254q0 -111 -32 -190t-82 -137t-113.5 -102t-127.5 -85q-31 -18 -60.5 -40t-53 -55.5t-37 -84t-13.5 -127.5h-307q0 139 29 233t74 157.5t101 104.5t112 78 q37 23 72.5 48.5t64 56t47 65.5t18.5 78q0 74 -28.5 139.5t-76.5 113.5t-113.5 76.5t-139.5 28.5t-138.5 -40t-113.5 -107.5t-76.5 -158.5t-27.5 -196h-308zM297 -37q0 90 56.5 146.5t146.5 56.5t146 -56.5t56 -146.5t-56 -146.5t-146 -56.5t-146.5 56.5t-56.5 146.5z" />
<glyph unicode="@" horiz-adv-x="1630" d="M-92 436q0 172 56 320.5t155.5 258t233.5 172t288 62.5q156 0 290 -72.5t233.5 -188.5t155.5 -261t56 -291q0 -100 -24.5 -168.5t-66.5 -103.5t-94 -36t-108 34q-18 12 -43.5 31.5t-53.5 41t-50.5 40t-34.5 26.5q-20 -33 -56 -59.5t-75 -45t-76 -28.5t-57 -10 q-66 0 -123 23.5t-98 64.5t-64.5 98t-23.5 123t23.5 122t64.5 98t98 65.5t123 23.5t122 -23.5t98 -65.5t65.5 -98.5t23.5 -121.5q0 -23 -2 -44.5t-10 -45.5l123 -45q4 16 8 42.5t4 61.5q0 88 -34 178.5t-92 163t-136 118.5t-166 46t-165 -40t-135 -108.5t-92 -160.5 t-34 -197q0 -104 33 -196.5t89 -162t131 -109.5t161 -40h-2q41 8 92 37q43 25 102.5 71t130.5 130l232 -189q-98 -127 -192.5 -198.5t-170.5 -106.5q-88 -41 -168 -51q-154 0 -290 63.5t-237 173t-159.5 258t-58.5 320.5zM526 467q0 -45 33 -78t78 -33q33 0 59.5 14.5 t38.5 41.5q0 4 -1 8t3 8v8q4 14 6 23.5t2 7.5q0 45 -31.5 76.5t-76.5 31.5t-78 -31.5t-33 -76.5z" />
<glyph unicode="A" horiz-adv-x="1406" d="M-225 -143l833 1964l834 -1964h-326l-178 407l-657 -4q-4 -4 -10.5 -14t-23 -50t-50 -119t-95.5 -220h-327zM410 571h397q-2 2 -15.5 34t-33 79t-43 101.5t-44 103.5t-35.5 85t-20 46z" />
<glyph unicode="B" horiz-adv-x="1214" d="M-154 -156v1743h584q115 0 213 -38t171 -103.5t115 -156.5t42 -195q0 -94 -38 -180.5t-102 -151.5q82 -72 132.5 -173.5t50.5 -211.5q0 -113 -45 -210t-123 -168t-185.5 -112t-230.5 -41zM154 152h65h105h51h26h23q2 0 3 1t3 1q57 0 107.5 17t88.5 48t59.5 71t21.5 87 q0 45 -21.5 86t-59.5 71.5t-88.5 48t-107.5 17.5h-276v-448zM154 907h280q47 0 89 15.5t73 41t49.5 59.5t18.5 71q0 39 -18.5 72.5t-50.5 59t-74 40t-91 14.5h-276v-373z" />
<glyph unicode="C" horiz-adv-x="1439" d="M-156 717q0 162 58.5 322.5t175.5 289.5t265.5 193.5t295.5 64.5q154 0 326 -94t342 -276l-230 -201q-123 135 -233.5 199.5t-204.5 64.5q-90 0 -178 -43t-156 -121q-74 -86 -113.5 -190.5t-39.5 -208.5q0 -113 35.5 -217.5t107.5 -184.5q72 -82 160 -121.5t184 -39.5 q92 0 199.5 62.5t230.5 197.5l236 -199q-170 -182 -338 -275.5t-328 -93.5q-154 0 -305.5 67t-267.5 189q-104 121 -163 284t-59 331z" />
<glyph unicode="D" horiz-adv-x="1269" d="M-154 -154v1741h439q168 0 312 -67.5t251.5 -185t169 -276.5t61.5 -341t-61.5 -341t-169 -276.5t-251.5 -185.5t-312 -68h-439zM154 154h131q100 0 189 44t154.5 120.5t104.5 179t39 219.5t-39 219t-104.5 179t-154.5 121t-189 44h-131v-1126z" />
<glyph unicode="E" horiz-adv-x="1173" d="M-154 -154v1741h1217v-307h-909v-369h847v-307h-847v-450h909v-308h-1217z" />
<glyph unicode="F" horiz-adv-x="1222" d="M-154 -143v1730h1217v-307h-909v-369h847v-307h-847v-747h-308z" />
<glyph unicode="G" horiz-adv-x="1435" d="M-156 717q0 162 58.5 322.5t175.5 289.5t265.5 193.5t295.5 64.5q150 0 323 -95t345 -280l-232 -196q-123 135 -233.5 199.5t-202.5 64.5q-90 0 -178 -43t-156 -121q-74 -86 -113.5 -190.5t-39.5 -208.5q0 -113 35.5 -217.5t107.5 -184.5q72 -82 160 -121.5t184 -39.5 q82 0 155.5 24.5t143.5 89.5v303h-576v308h883v-732q-141 -152 -293.5 -226.5t-312.5 -74.5q-154 0 -305.5 67t-267.5 189q-104 121 -163 284t-59 331z" />
<glyph unicode="H" horiz-adv-x="1155" d="M-154 -143v1720h308v-629h522v629h307v-1720h-307v784h-522v-784h-308z" />
<glyph unicode="I" horiz-adv-x="585" d="M-143 -154v308h139v1126h-139v307h585v-307h-139v-1126h139v-308h-585z" />
<glyph unicode="J" horiz-adv-x="731" d="M-348 -358q104 0 195.5 28.5t159 76.5t107.5 113.5t40 139.5v1577h307v-1577q0 -141 -63.5 -262t-173 -211t-257 -141.5t-315.5 -51.5v308z" />
<glyph unicode="K" horiz-adv-x="1421" d="M-154 -143v1720h308v-1720h-308zM-143 504l1073 1073h434l-1356 -1356zM154 782l217 217l1142 -1142h-434z" />
<glyph unicode="L" horiz-adv-x="1241" d="M-154 -154v1731h308v-1423h909v-308h-1217z" />
<glyph unicode="M" horiz-adv-x="1531" d="M-154 -143v1720h267l516 -1303l-103 -4q14 29 17.5 37t5.5 12q0 2 2 5v6q2 4 10 24.5t12 34.5q2 6 10.5 19.5t16.5 29.5l21 37l-5 -82l-41 4q4 14 13 29q4 4 6 12t4 13q4 10 10 24t10 25l-2 -2q6 20 17.5 43.5t15.5 33.5q6 16 14.5 36t14.5 36l12 33q4 10 9.5 22.5 t9.5 24.5l-2 -8q0 2 1 3t1 3q0 12 6 18l6 13q-2 -2 -2 -6q2 4 4 10t4 10q2 6 4 10q33 86 75 190.5t84 211t83 209t74 186.5h266v-1720h-307v1407l229 -41q-8 -18 -24.5 -44t-33 -47.5t-28.5 -34t-10 -7.5l39 -11l-11 -32q-4 -10 -8 -18.5t-8 -16.5q0 -8 -6 -15q-2 -4 -5 -13 t-5 -17l-29 -66q-2 -4 -2 -6t-2 -6l-2 -2l-2 -15q-4 -4 -6 -14t-2 -14q-2 -2 -4.5 -5t-4.5 -5q-4 -6 -12 -13.5t-14 -15.5l-17 -17l4 56l39 -8q-4 -8 -7 -18.5t-7 -18.5q-10 -25 -21.5 -52.5t-21.5 -52.5q-6 -16 -12 -31.5t-13 -31.5q-8 -20 -12 -29q-4 -4 -6 -12t-2 -10 q-2 -4 -3 -7.5t-3 -7.5v2q-2 -6 -4 -10t-4 -7t-2 -5q-6 -6 -7 -17q-6 -16 -14 -37.5t-16 -37.5q-4 -10 -7.5 -19.5t-7.5 -15.5v2q-2 -4 -4 -9l-4 -10q-2 -4 -4 -11t-4 -11t0 -2t0 -2q-2 -6 -5 -15.5t-5 -13.5l-41 -100l2 4q-2 -8 -10.5 -24.5t-12.5 -24.5q-8 -18 -17 -43 t-15 -41v-4q-2 -2 -3 -4q-8 -12 -8 -13q-2 -2 -2 -4q-8 -23 -11 -32t-7 -17v2q-2 -4 -5 -13t-5 -14q-4 -10 -7.5 -18t-7.5 -18l-12 -31q-18 -47 -43 -108.5t-45 -108.5q-6 -10 -11.5 -26.5t-11.5 -33.5q-4 -8 -9 -22t-10 -29.5t-10 -28t-5 -14.5l-424 1053v-776h-308z" />
<glyph unicode="N" horiz-adv-x="1277" d="M-154 -143v2130l871 -1420v1010h307v-2130l-870 1419v-1009h-308z" />
<glyph unicode="O" horiz-adv-x="1589" d="M-154 717q0 182 61.5 341t168 276.5t252 185t311.5 67.5q168 0 312.5 -67.5t252 -185t169 -276.5t61.5 -341t-61.5 -341t-169 -276.5t-252 -185.5t-312.5 -68q-166 0 -311.5 68t-252 185.5t-168 276.5t-61.5 341zM154 717q0 -117 37.5 -219.5t104 -179t155 -120.5 t188.5 -44t189.5 44t155 120.5t104 179t38.5 219.5t-38.5 219t-104 179t-155 121t-189.5 44t-188.5 -44t-155 -121t-104 -179t-37.5 -219z" />
<glyph unicode="P" horiz-adv-x="1032" d="M-154 -145v1732h504q121 0 224.5 -46t179 -124t118.5 -183.5t43 -227.5q0 -123 -44 -228.5t-120.5 -183.5t-180 -121t-224.5 -43h-192v-575h-308zM154 737h192q53 0 100.5 20.5t83 57.5t57 86t21.5 105q0 55 -19.5 105t-55 87t-83 59.5t-100.5 22.5h-196v-543z" />
<glyph unicode="Q" horiz-adv-x="1636" d="M-154 717q0 182 61.5 341t168 276.5t252 185t311.5 67.5q168 0 312.5 -67.5t252 -185t169 -276.5t61.5 -341t-61.5 -341t-169 -276.5t-252 -185.5t-312.5 -68q-166 0 -311.5 68t-252 185.5t-168 276.5t-61.5 341zM-31 -66q80 72 164 123q72 43 163 73q58 19 116 19 q32 0 65 -6q59 -10 128 -40.5t122 -77.5q41 -33 80 -55.5t61 -26.5q16 -4 44 11t55 36q31 23 63 53l205 -229q-68 -59 -139 -101q-61 -35 -137 -61q-48 -16 -94 -16q-27 0 -54 6q-63 12 -137 47t-137 92h2q-31 20 -63 38.5t-54 22.5q-5 1 -9 1q-29 0 -68 -21 q-46 -23 -89 -53q-51 -37 -102 -84zM154 717q0 -117 37.5 -219.5t104 -179t155 -120.5t188.5 -44t189.5 44t155 120.5t104 179t38.5 219.5t-38.5 219t-104 179t-155 121t-189.5 44t-188.5 -44t-155 -121t-104 -179t-37.5 -219z" />
<glyph unicode="R" horiz-adv-x="1206" d="M-154 -145v1732h584q115 0 213 -38t171 -103.5t115 -156.5t42 -195q0 -94 -38 -180.5t-102 -151.5q82 -72 132.5 -173.5t50.5 -211.5v-520h-307v520q0 45 -21.5 85t-58.5 70.5t-87.5 49t-105.5 18.5h-280v-745h-308zM154 907h280h10q45 2 85 18.5t70 41t47.5 57.5 t17.5 70q0 39 -18.5 72.5t-50.5 59t-74 40t-91 14.5h-276v-373z" />
<glyph unicode="S" horiz-adv-x="1341" d="M-154 623h308q0 -96 25.5 -182.5t70.5 -150t103.5 -100t125.5 -36.5q68 0 128.5 11t105.5 35.5t70.5 63.5t25.5 94q0 45 -38 81t-97.5 66t-134 54.5t-148.5 44.5q-102 31 -199.5 64.5t-174 84t-123 122t-46.5 180.5q0 141 51.5 241.5t138.5 165t201.5 95t241.5 30.5 q133 0 248 -60.5t200 -166t133 -245.5t48 -300h-307q0 96 -25.5 181t-69.5 147.5t-102.5 99.5t-124.5 37q-68 0 -126 -12.5t-103 -40t-70.5 -70.5t-25.5 -102q0 -16 27.5 -33.5t72.5 -36t104.5 -37t120.5 -37.5q113 -35 226.5 -73.5t203.5 -99t147.5 -151.5t57.5 -229 q0 -137 -51 -234t-139 -158.5t-203 -90.5t-244 -29q-133 0 -248.5 61.5t-200.5 167t-134.5 247t-49.5 301.5z" />
<glyph unicode="T" horiz-adv-x="1439" d="M-205 1280v307h1534v-307h-614v-1423h-307v1423h-613z" />
<glyph unicode="U" horiz-adv-x="1521" d="M-154 674v903h308v-903q0 -109 31.5 -203t87 -164.5t129 -111.5t157.5 -41q82 0 155.5 41t129 111.5t87.5 164.5t32 203v903h307v-903q0 -174 -55.5 -325.5t-150.5 -263.5t-225 -175.5t-280 -63.5q-152 0 -282 63.5t-225 175.5t-150.5 263.5t-55.5 325.5z" />
<glyph unicode="V" horiz-adv-x="1376" d="M-199 1577h310l385 -1116q6 16 26.5 75.5t63.5 186.5t112.5 335t173.5 519h316l-692 -2028z" />
<glyph unicode="W" horiz-adv-x="1638" d="M-211 1577h336l326 -1065l14 39l4 18q0 4 1 7.5t1 7.5q0 2 17.5 -5.5t37 -17.5t36 -20.5t16.5 -12.5l-89 27l-16 35q-10 29 -18.5 60.5t-18.5 72.5l-2 4q-4 4 -5 10t-1 11q0 2 -1 3t-1 3l2 -9q-2 4 -5 11.5t-5 11.5l-10 39q-14 41 -27.5 85t-26.5 95q-4 10 -6 17.5 t-4 17.5l-4 8q-2 4 -2 6t-2 6q-6 8 -6 19v-6l-19 61q-12 39 -24.5 77t-24.5 79q0 6 0 4t2 -4q-6 16 -7 20t-1 8l-8 25l-17 55q-10 27 -18 56h2q-2 4 -4 10t-4 10q-4 10 -8 27.5t-9.5 36t-9.5 35t-6 22.5h330l272 -872h-282l49 104v6q0 4 1 9t1 10q2 2 4 20t2 29q2 -2 6 -2 q6 -4 6 -7q18 59 34.5 113.5t33.5 114.5l18 61q4 14 9.5 28.5t9.5 31.5q12 41 26.5 89t29.5 95t29.5 91t24.5 79h336l-307 -983v-8q2 -4 4 -13.5t4 -13.5q0 -4 1 -6t1 -6q2 -6 3 -13.5t3 -11.5q0 -4 4 -10q2 -4 6.5 -12t8.5 -19l-25 11q4 10 7 21t7 22q37 117 80 253t86 274 t84 271t76 244h336l-664 -2114l-178 658q-2 -4 -4 -10.5t-8 -24.5t-18.5 -57t-35 -111t-57 -182.5t-84.5 -272.5z" />
<glyph unicode="X" horiz-adv-x="1247" d="M-266 -143l555 872l2 -24q-8 8 -8 14q-6 4 -9 14q-4 6 -6 10l2 -6q-4 4 -8 11.5t-6 9.5q-6 10 -11 18t-9 23l38 6l1 -11q1 -12 1 -24t2 -22l1 -11q-4 6 -14.5 20.5t-22 30t-21.5 29.5t-14 21q-10 14 -20.5 28.5t-16.5 26.5q-4 6 -8 14q-4 6 -8 11.5t-7 9.5l3 -2q2 0 -5 6 q-10 2 -12 8t-8 16q-10 14 -20.5 34t-18.5 32l-4 4q-4 4 -4 6q-2 4 -3 8t-3 7q-10 8 -13 18q-2 4 -3 4t-3 4q-4 4 -6 9t-6 10l2 -2q-2 2 -2 3t-2 3q-4 4 -12 16q-4 6 -9.5 13.5t-11.5 21.5l39 8v-11q0 -11 1 -25.5t1 -26.5v-11q-23 33 -41 65t-22 42l2 -2q-2 4 -4 6t-5 6 l3 -2q-18 27 -42 64.5t-49.5 76.5t-50 77t-43.5 67q-4 6 -12 20.5t-17.5 29.5t-17.5 28.5t-10 17.5h344l465 -727l-162 -2q0 16 4 27.5t8 19.5l9 16q0 6 3 9.5t7 7.5q2 2 2 4q4 12 14 24q4 12 19 33l24 33q6 12 17.5 29.5t15.5 27.5q4 8 8 12.5t8 10.5q2 4 6.5 8t6.5 8 q0 4 2 8q4 8 8 13q2 10 14 22l8 8l9 9l-3 -4q41 66 87.5 140.5t89.5 145.5q8 12 18 28.5t21 31.5l-3 -2q4 8 12.5 17t14.5 19q4 4 6 11.5t6 11.5h353l-553 -856q0 -2 2 -2q4 -4 6 -8t6 -9q12 -16 21 -32q4 -4 7 -13.5t5 -13.5q8 -12 15 -24.5t18 -26.5q10 -16 20 -32.5 t21 -33.5q20 -31 39.5 -60.5t35.5 -55.5q27 -43 62 -96.5t71.5 -110t72.5 -110.5t65 -99v2q6 -8 16 -23.5t20 -29.5l13 -27v2q4 -10 16 -32.5t17 -28.5h-345l-464 725l184 -2q-20 -31 -46 -70t-50.5 -71.5t-45 -55.5t-28.5 -23q-27 0 -13.5 44.5t68.5 156.5l74 -47l-11 -11 t-5 -3q-4 -10 -8.5 -16.5t-10.5 -16.5l-12 -18q-16 -25 -35.5 -54.5t-37 -53.5t-29 -36t-11.5 -3t15.5 44t52.5 109l33 -23q-2 -2 -3.5 -5t-5.5 -7l2 2q-4 -4 -24 -43q-4 -8 -6 -11t-13 -14q-4 -4 -8 -12q-4 -4 -8 -11t-8 -12q-14 -18 -24.5 -34.5t-12.5 -20.5 q-29 -45 -64.5 -102.5t-70.5 -110.5q-33 -51 -66 -103t-57 -91h-348z" />
<glyph unicode="Y" d="M-268 1577h348l545 -860l-224 -2q25 74 66 143.5t88 136.5l-2 -256l-131 23q0 10 2 18q4 18 8 25q2 4 7 10t10 10q6 6 10 9l-19 -15q2 4 6.5 13.5t6.5 13.5t5 9t7 11l8 8l2 5q4 6 8 15t21 32l104 -64q-16 -27 -35.5 -31t-37 6.5t-29.5 32t-12 45.5q4 4 9 11.5t7 11.5t2 6 t4 6l6 6q2 2 2 3.5t2 3.5t2 3t2 3l3.5 7t5.5 7q10 14 20 28.5t19 22.5q33 51 56 88t47 72t48.5 74t58.5 94q-18 -16 -12 -3t24.5 39.5t42 59.5t38.5 55v-2q2 4 3 7.5t3 5.5q4 10 15 27.5t16 25.5h339l-602 -965v-755h-307v749q-4 4 -9 11.5t-7 11.5t-5 8t-5 8q0 -2 -5 6 q-8 6 -12 19q-10 14 -26 45l67 82l14 -66q-14 10 -23 13.5t-13 5.5q-10 -8 -23.5 -18.5t-19.5 -14.5q-29 47 -66 104.5t-68 104.5v-2q-4 4 -8 10t-8 10q-6 10 -16.5 26.5t-1.5 6.5q-23 33 -50.5 77t-50.5 79v2l-6 9l-6 9q-4 10 -12 21.5t-13 19.5q-4 6 -11 15.5t-11 17.5 q-10 10 -13 17t-8 16q-6 10 -13 18t-13 18l-12 19q-8 16 -13 20q-8 14 -15 28.5t-18 31.5q-12 18 -29.5 45.5t-34.5 54.5t-31.5 49.5t-20.5 32.5z" />
<glyph unicode="Z" horiz-adv-x="1425" d="M-154 -154q0 233 58.5 401.5t149.5 286t202 195.5t217 131q66 33 132.5 72t122.5 88t100 112.5t65 147.5h-1036v307h1360q0 -233 -57.5 -400t-147.5 -284t-201 -191.5t-215 -125.5q-70 -35 -139.5 -72t-128 -87t-101.5 -115.5t-61 -157.5h1038v-308h-1358z" />
<glyph unicode="[" horiz-adv-x="647" d="M-156 -166v1847h609v-307h-301v-1233h284v-307h-592z" />
<glyph unicode="\" horiz-adv-x="714" d="M-182 1620l278 94l611 -1798l-279 -94z" />
<glyph unicode="]" horiz-adv-x="647" d="M-145 141h301v1233h-285v307h592v-1847h-608v307z" />
<glyph unicode="^" horiz-adv-x="780" d="M-186 905l403 504l377 -502l-229 -211l-369 508l481 -2l-61.5 -61.5l-55 -55t-40 -41t-17.5 -18.5q-31 -41 -83 -106.5t-95 -118.5q-6 -6 -13.5 -14.5t-15.5 -18.5q-10 -14 -22.5 -27.5t-26.5 -29.5z" />
<glyph unicode="_" horiz-adv-x="1622" d="M-92 125h1548v-307h-1548v307z" />
<glyph unicode="`" horiz-adv-x="595" d="M-471 1624l195 227l620 -409l-186 -232z" />
<glyph unicode="a" horiz-adv-x="1214" d="M-152 246q0 147 51.5 227t135.5 116t190.5 42t214.5 6q78 0 145.5 4t88.5 21q-14 37 -40 74.5t-60.5 66t-74.5 47t-83 18.5q-33 0 -67 -9t-62.5 -28.5t-51 -47t-30.5 -64.5h-162q-61 0 -111.5 -1t-50.5 1q0 94 48 178t125 145.5t172.5 97.5t189.5 36q121 0 225 -41 t181 -112t121 -167t44 -209v-790h-307v116q-90 -66 -187.5 -96.5t-189.5 -30.5q-90 0 -173 28t-145.5 80t-99.5 126t-37 166zM156 246q0 -45 43 -68.5t104 -23.5q80 0 159 41t136 137q-33 -3 -64 -3h-15q-38 1 -79 1q-53 0 -103 -1t-91 -9.5t-65.5 -24.5t-24.5 -49z" />
<glyph unicode="b" horiz-adv-x="1310" d="M-154 -143v655v20v1147h308v-602q74 47 157.5 74t173.5 27q135 0 253 -51.5t204 -141.5t135 -211t49 -262t-49 -262t-135 -211t-203.5 -141.5t-253.5 -51.5q-90 0 -175 27t-156 72v-88h-308zM154 508q0 -74 26.5 -138.5t71.5 -112.5t105.5 -75.5t127.5 -27.5 q70 0 130.5 28.5t105.5 76.5t71.5 113.5t26.5 139.5t-26.5 139.5t-71.5 113.5t-105.5 76.5t-130.5 28.5q-59 0 -113.5 -31.5t-99.5 -84t-75.5 -117t-42.5 -129.5z" />
<glyph unicode="c" horiz-adv-x="1241" d="M-154 512q0 141 49.5 262t135.5 211t202.5 141.5t251.5 51.5q88 0 174 -31t165 -86t147.5 -133t124.5 -170l-242 -213q-86 150 -183.5 237.5t-185.5 87.5q-68 0 -128 -28.5t-105 -76.5t-71.5 -113.5t-26.5 -139.5t26.5 -139.5t71.5 -113.5t105.5 -76.5t127.5 -28.5h551 v-308h-551q-135 0 -251.5 51.5t-202.5 141.5t-135.5 211t-49.5 262z" />
<glyph unicode="d" d="M-154 512q0 141 49.5 262t135.5 211t202.5 141.5t251.5 51.5q190 0 334 -91v592h307v-1167v-23v-303q0 -14 52.5 -23t124.5 -9v-308q-100 0 -188.5 26t-154 72t-103.5 107.5t-38 134.5v189l305 -56q-55 -104 -126.5 -191t-153.5 -149.5t-173 -97.5t-186 -35 q-135 0 -251.5 51.5t-202.5 141.5t-135.5 211t-49.5 262zM154 512q0 -74 26.5 -139.5t71.5 -113.5t105 -76.5t128 -28.5q61 0 116.5 30.5t99.5 81.5t75 113.5t43 128.5v6q-12 63 -44 127t-76 115t-99 82.5t-115 31.5q-68 0 -128 -28.5t-105 -76.5t-71.5 -113.5t-26.5 -139.5 z" />
<glyph unicode="e" horiz-adv-x="1306" d="M-154 512q0 141 49.5 262t135.5 211t202.5 141.5t251.5 51.5q90 0 177.5 -32t168 -90.5t153.5 -140t132 -182.5l-829 -514q41 -31 91 -48t107 -17h551v-308h-551q-135 0 -251.5 51.5t-202.5 141.5t-135.5 211t-49.5 262zM141 481l19 13q123 78 255 158.5t255 166.5 q-37 23 -87.5 37t-97.5 14q-68 0 -128 -28.5t-105 -76.5t-71.5 -113.5t-26.5 -139.5q0 -12 2 -26.5t2 -22.5q0 -6 -2 -6h-1q-3 2 -14 24z" />
<glyph unicode="f" horiz-adv-x="669" d="M-154 -143v1167q0 141 61.5 262t168 211t249 141.5t304.5 51.5v-308q-98 0 -185.5 -28.5t-152 -76.5t-101 -113.5t-36.5 -139.5v-35h313v-307h-313v-825h-308z" />
<glyph unicode="g" horiz-adv-x="1361" d="M-154 143h308q0 -104 26.5 -195t71.5 -159t105.5 -107.5t127.5 -39.5q70 0 130.5 28.5t105.5 76.5t71.5 113.5t26.5 139.5v55l94 -41q-94 -74 -205.5 -121t-222.5 -47q-135 0 -251.5 51.5t-202.5 141.5t-135.5 211t-49.5 262t49.5 262t135.5 211t202.5 141.5t251.5 51.5 q190 0 334 -91v80h307v-655v-23v-489q0 -141 -49 -262t-135 -211t-203.5 -141.5t-253.5 -51.5q-135 0 -251.5 63.5t-202.5 173.5t-135.5 257t-49.5 315zM154 512q0 -74 26.5 -139.5t71.5 -113.5t105.5 -76.5t127.5 -28.5q70 0 130.5 28.5t105.5 76.5t71.5 113.5t26.5 139.5 v2q-12 63 -43 127t-75 115t-99 82.5t-117 31.5q-68 0 -128 -28.5t-105 -76.5t-71.5 -113.5t-26.5 -139.5z" />
<glyph unicode="h" horiz-adv-x="1288" d="M-154 -143v1822h308v-602q74 47 157.5 74t173.5 27q135 0 253 -51.5t204 -141.5t135 -211t49 -262v-655h-307v655q0 74 -26.5 139.5t-71.5 113.5t-105.5 76.5t-130.5 28.5q-59 0 -113.5 -31.5t-99.5 -82.5t-75.5 -114.5t-42.5 -127.5v-657h-308z" />
<glyph unicode="i" horiz-adv-x="673" d="M-184 870v308h497v-994q0 -14 52.5 -24t126.5 -10v-308q-100 0 -188.5 26t-155 72t-104.5 108.5t-38 135.5v686h-190zM-33 1401q0 35 15.5 67.5t41 58t58.5 41t68 15.5t67.5 -15.5t58 -41t41 -58t15.5 -67.5t-15.5 -68t-41 -58.5t-58.5 -40.5t-67 -15q-35 0 -68 15 t-58.5 40.5t-41 58.5t-15.5 68z" />
<glyph unicode="j" horiz-adv-x="581" d="M-426 -358q98 0 184 28.5t150.5 76.5t102.5 113.5t38 139.5v870h-192v308h499v-1178q0 -141 -61.5 -262t-168 -211t-248.5 -141.5t-304 -51.5v308zM4 1401q0 35 15.5 67.5t41 58t58.5 41t67 15.5q41 0 75 -15.5t57.5 -41t37 -58t13.5 -67.5t-13.5 -68t-37 -58.5 t-57.5 -40.5t-75 -15q-35 0 -67.5 15t-58 40.5t-41 58.5t-15.5 68z" />
<glyph unicode="k" horiz-adv-x="1073" d="M-154 -143v1822h308v-1013h135q68 0 128 39.5t105 107.5t72 159t27 195h307q0 -229 -57.5 -400t-174.5 -267q49 -53 91 -123t74 -153t49.5 -176t17.5 -191h-307q0 104 -27 195t-72 159t-105.5 107.5t-127.5 39.5h-135v-501h-308z" />
<glyph unicode="l" horiz-adv-x="524" d="M-307 1382v308h497v-1506q0 -14 52.5 -24t126.5 -10v-308q-100 0 -188.5 26t-155 72t-104.5 108.5t-38 135.5v1198h-190z" />
<glyph unicode="m" horiz-adv-x="1718" d="M-154 -143v1310l297 -10l11 -14q43 20 87 27.5t97 7.5q98 0 185 -37t155 -103q66 59 154 99.5t184 40.5q104 0 194 -39t156 -107.5t103.5 -162t37.5 -201.5v-811h-307v811q0 84 -53 143t-131 59t-131.5 -59t-53.5 -143v-811h-307v817v-2q-4 41 -19.5 76.5t-41 63.5 t-58 43t-67.5 15q-37 0 -68.5 -15t-57.5 -41t-41 -60.5t-17 -73.5v2v-825h-308z" />
<glyph unicode="n" horiz-adv-x="1335" d="M-154 -143v1310h308v-90q74 47 157.5 74t173.5 27q135 0 253 -51.5t204 -141.5t135 -211t49 -262v-655h-307v655q0 74 -26.5 139.5t-71.5 113.5t-105.5 76.5t-130.5 28.5q-59 0 -113.5 -31.5t-99.5 -82.5t-75.5 -114.5t-42.5 -127.5v-657h-308z" />
<glyph unicode="o" horiz-adv-x="1343" d="M-154 512q0 141 49.5 262t135.5 211t202.5 141.5t251.5 51.5t253 -51.5t204 -141.5t135 -211t49 -262t-49 -262t-135 -211t-203.5 -141.5t-253.5 -51.5q-135 0 -251.5 51.5t-202.5 141.5t-135.5 211t-49.5 262zM154 512q0 -74 26.5 -139.5t71.5 -113.5t105.5 -76.5 t127.5 -28.5q70 0 130.5 28.5t105.5 76.5t71.5 113.5t26.5 139.5t-26.5 139.5t-71.5 113.5t-105.5 76.5t-130.5 28.5q-68 0 -128 -28.5t-105 -76.5t-71.5 -113.5t-26.5 -139.5z" />
<glyph unicode="p" horiz-adv-x="1320" d="M-154 512v20v635h308v-90q74 47 157.5 74t173.5 27q135 0 253 -51.5t204 -141.5t135 -211t49 -262t-49 -262t-135 -211t-203.5 -141.5t-253.5 -51.5q-90 0 -175 27t-156 72v-600h-308v1167zM154 508q0 -74 26.5 -138.5t71.5 -112.5t105.5 -75.5t127.5 -27.5 q70 0 130.5 28.5t105.5 76.5t71.5 113.5t26.5 139.5t-26.5 139.5t-71.5 113.5t-105.5 76.5t-130.5 28.5q-59 0 -113.5 -31.5t-99.5 -84t-75.5 -117t-42.5 -129.5z" />
<glyph unicode="q" horiz-adv-x="1343" d="M-154 512q0 141 49.5 262t135.5 211t202.5 141.5t251.5 51.5q190 0 334 -91v80h307v-1493q0 -14 52.5 -23t124.5 -9v-308q-100 0 -188.5 26t-154 72t-103.5 107.5t-38 134.5v271q-72 -41 -162 -70t-172 -29q-135 0 -251.5 51.5t-202.5 141.5t-135.5 211t-49.5 262z M154 512q0 -74 26.5 -139.5t71.5 -113.5t105 -76.5t128 -28.5q61 0 116.5 30.5t99.5 81.5t75 113.5t43 128.5v6q-12 63 -44 127t-76 115t-99 82.5t-115 31.5q-68 0 -128 -28.5t-105 -76.5t-71.5 -113.5t-26.5 -139.5z" />
<glyph unicode="r" horiz-adv-x="778" d="M-154 -143v1310h308v-96q92 51 210.5 79t264.5 28v-308q-92 0 -173 -31.5t-143.5 -81.5t-103.5 -113.5t-55 -127.5v-659h-308z" />
<glyph unicode="s" horiz-adv-x="1091" d="M-131 303l20 -16q-2 0 10.5 2t34 5t48 6t55.5 7q68 8 153 23v-27q12 -43 35 -70.5t47.5 -43t49 -23.5t40.5 -10q4 0 5.5 -1t5.5 -1q92 0 155.5 27.5t63.5 88.5q0 20 -19.5 36t-52.5 29t-76 24.5t-90 23.5q-78 18 -161.5 46t-154.5 71t-117 105.5t-46 148.5q0 100 36 179 t101.5 133t156.5 83t204 29q76 0 147.5 -32t133 -85t112.5 -125t88 -154h-322l-12 27v-2q-12 21 -47 43q-32 21 -90 20h-10q-86 0 -138.5 -29.5t-52.5 -86.5q0 -23 18.5 -37.5t49.5 -25.5t71.5 -19t88.5 -17q82 -16 168 -36.5t157.5 -60.5t117.5 -108.5t46 -179.5 t-41 -190.5t-111.5 -131.5t-167 -77t-206.5 -25q-92 0 -173 34t-146.5 94.5t-112.5 144.5t-72 184z" />
<glyph unicode="t" horiz-adv-x="710" d="M-154 512v1065h308v-399h313v-308h-313v-358q0 -74 36.5 -139.5t101 -113.5t151.5 -76.5t186 -28.5v-308q-162 0 -304.5 51.5t-249 141.5t-168 211t-61.5 262z" />
<glyph unicode="u" d="M-154 512v655h308v-655q0 -74 26.5 -139.5t71.5 -113.5t105.5 -76.5t127.5 -28.5q70 0 130.5 39.5t105.5 107.5t71.5 159t26.5 195h307q0 -168 -49 -315t-135 -257t-203.5 -173.5t-253.5 -63.5q-135 0 -251.5 51.5t-202.5 141.5t-135.5 211t-49.5 262zM819 186v981h307 v-981q0 -14 52.5 -23t124.5 -9v-308q-100 0 -188.5 26t-154 72t-103.5 107.5t-38 134.5z" />
<glyph unicode="v" horiz-adv-x="1280" d="M-240 1167h338l475 -981h-167l475 981h338l-730 -1523z" />
<glyph unicode="w" horiz-adv-x="1443" d="M-211 1167h279l272 -733q27 -20 32 0q2 6 2 15q0 20 -8 54q-12 48 -35.5 115.5t-51 141.5t-57 146.5t-54.5 130t-41 93.5l-16 37h315l281 -747l-336 2q8 8 35.5 78.5t66.5 176t85 234.5t89 256h293l-256 -692l23 -43q0 -8 2 -10q0 -2 2 -4v-2q2 -6 4 -12.5t1 -8.5t-4 1 t-10 18q0 2 2.5 4t4.5 6t4 6q4 12 15 43t40 108.5t81 217t138 368.5h318l-596 -1593l-150 463q-4 -10 -44 -115.5t-130 -343.5z" />
<glyph unicode="x" horiz-adv-x="1015" d="M-283 -143l924 1310h367l-924 -1310h-367zM-283 1167h367l909 -1282l-352 -43z" />
<glyph unicode="y" horiz-adv-x="1304" d="M-154 143h308q0 -104 26.5 -195t71.5 -159t105.5 -107.5t127.5 -39.5q70 0 130.5 28.5t105.5 76.5t71.5 113.5t26.5 139.5v55l94 -41q-94 -74 -205.5 -121t-222.5 -47q-135 0 -251.5 51.5t-202.5 141.5t-135.5 211t-49.5 262v655h308v-655q0 -74 26.5 -139.5t71.5 -113.5 t105.5 -76.5t127.5 -28.5q70 0 130.5 28.5t105.5 76.5t71.5 113.5t26.5 139.5v655h307v-1167q0 -141 -49 -262t-135 -211t-203.5 -141.5t-253.5 -51.5q-135 0 -251.5 63.5t-202.5 173.5t-135.5 257t-49.5 315z" />
<glyph unicode="z" horiz-adv-x="1161" d="M-154 -154q0 215 45.5 352.5t119 224.5t167.5 139t191 97q6 2 12 4.5t16 6.5l17 4l-8 -2q80 33 150.5 77t105.5 121h-805v308h1140q0 -195 -47 -329t-120.5 -226.5t-165 -149.5t-179.5 -96q-6 -4 -16 -8t-20 -9q-43 -18 -84 -37.5t-77 -43t-63.5 -54t-46.5 -71.5h807 v-308h-1139z" />
<glyph unicode="{" horiz-adv-x="733" d="M-145 641v307q137 0 220 -46t131 -119.5t69.5 -165t33.5 -179.5v2q8 -49 22.5 -106.5t39 -106.5t60.5 -81.5t87 -32.5v-308q-154 0 -247 54.5t-148 140.5t-81 189.5t-40 201.5q-6 39 -16.5 83t-27.5 81t-42 61.5t-61 24.5v307q37 0 61.5 16.5t38.5 43t21.5 59.5t13.5 66 v-3q12 90 39.5 188.5t86 179.5t155 134.5t247.5 53.5v-308q-61 0 -101 -26.5t-64.5 -67.5t-37 -90t-18.5 -96q-10 -78 -32.5 -159t-72 -146.5t-131 -108.5t-206.5 -43z" />
<glyph unicode="|" horiz-adv-x="575" d="M-8 -403v2138h307v-2138h-307z" />
<glyph unicode="}" horiz-adv-x="747" d="M-117 121q57 0 94 30.5t59.5 77.5t34 103.5t21.5 109.5v-2q12 92 31.5 184.5t66 166t131.5 119.5t226 46v-307q-123 0 -204 43t-131 109.5t-74.5 147.5t-33.5 157q-6 45 -18 95t-36.5 91t-64.5 67.5t-102 26.5v308q152 0 248 -53.5t154.5 -134.5t86 -179t40.5 -188 q2 -35 9 -67t21.5 -58.5t39 -42t65.5 -15.5v-307q-43 0 -68.5 -21.5t-42 -55t-23.5 -77.5t-14 -89q-10 -70 -22 -141.5t-32.5 -137.5t-55.5 -123t-88.5 -99t-131 -66.5t-186.5 -24.5v307z" />
<glyph unicode="~" horiz-adv-x="966" d="M-156 651q49 70 105 125q47 47 109.5 86t129.5 39q47 0 100.5 -13.5t110.5 -53.5l-2 2q66 -33 92 -33q10 0 31 12t43 29q25 18 55 43l207 -217q-57 -51 -114 -88q-49 -33 -108.5 -59.5t-113.5 -26.5q-53 0 -116.5 18t-122.5 53q-14 4 -23 11l-20 10t-8 2q-2 0 -3 1t-3 1 t-5 2q-8 0 -25.5 -22.5t-35.5 -49.5l-49 -69z" />
<glyph unicode="&#xa1;" horiz-adv-x="495" d="M-98 1223q0 -35 15 -68t41 -58.5t58.5 -40.5t67.5 -15t67.5 15t58.5 40.5t41 58.5t15 68t-15 67.5t-41 58t-58.5 41t-67.5 15.5t-67.5 -15.5t-58.5 -41t-41 -58t-15 -67.5zM-70 -348h308v1378h-308v-1378z" />
<glyph unicode="&#xa2;" horiz-adv-x="1253" d="M-154 512q0 123 36 230.5t100.5 193.5t154.5 145.5t199 81.5v223h307v-225q129 -41 248 -144.5t205 -244.5l-232 -227q-86 150 -188.5 237.5t-190.5 87.5q-68 0 -128 -28.5t-105 -76.5t-71.5 -113.5t-26.5 -139.5t30.5 -139.5t77.5 -113.5t106.5 -76.5t116.5 -28.5 q47 2 89 3t90 5l4 -19q2 4 4 11q4 10 10 10q10 2 25.5 2h25.5h15q2 0 3 1t3 1h20q2 0 4 1t6 1h13h18q6 2 15.5 2h15.5q2 0 4 1t4 1h10h23l4 2q23 2 70 3t106 1v-311l-424 -21v-210h-307v231q-96 29 -184.5 89t-156 144t-108.5 188.5t-41 221.5z" />
<glyph unicode="&#xa3;" horiz-adv-x="1193" d="M-195 453v307h84q135 903 584 903q127 0 281.5 -95t355.5 -296l-217 -217q-154 154 -259.5 227.5t-160.5 73.5q-92 0 -163.5 -148.5t-112.5 -447.5h542v-307h-573q-4 -70 -7 -141.5t-5 -157.5h909v-308h-1206v449l438 -438h-449v127v59v53q0 53 1 98.5t2 86.5t3.5 83 t6.5 89h-54z" />
<glyph unicode="&#xa4;" horiz-adv-x="1376" d="M-66 289l152 147q-35 61 -57.5 137t-22.5 150q0 66 15.5 130.5t41.5 119.5l-118 119l245 245l115 -114q53 27 117.5 39t132.5 12q70 0 135.5 -12.5t118.5 -38.5l152 151l245 -246l-155 -155q27 -53 41 -119t14 -131q0 -66 -14.5 -111t-31 -72.5t-30.5 -39.5l-14 -13 l135 -147l-246 -246l-123 123q-49 -20 -109.5 -31.5t-117.5 -11.5q-66 0 -131.5 15.5t-120.5 43.5l-184 -184zM354 723q0 -84 58.5 -142.5t142.5 -58.5q41 0 78 15.5t64.5 43t44 64.5t16.5 78t-16.5 78t-44 64.5t-64.5 44t-78 16.5t-78 -16.5t-64.5 -44t-43 -64.5t-15.5 -78 z" />
<glyph unicode="&#xa5;" d="M-193 1460l222 195l473 -748q49 76 101 160t104.5 170t102.5 170t97 160q10 18 28.5 45.5t29.5 44.5l229 -197l-539 -848v-143l-229 229h539v-307h-469l102 103h367v-308h-310v-329h-307v329h-317v308h477l-102 -103h-375v307h602l-238 -155q-27 29 -46 60.5t-19 37.5h41 l4 -80q-4 4 -12.5 18.5t-18.5 30t-19.5 29.5t-11.5 18q-2 2 -10 15q-2 4 -4 6q-4 4 -6 9t-4 9t-5 10.5t-3 4.5q-4 8 -10.5 18t-10.5 19q-10 8 -12 18q-4 4 -10.5 14.5t-8.5 14.5v-2q-6 10 -15 23t-13 18q-6 10 -13.5 20t-15.5 27v-2l-12 24q-12 16 -23.5 35.5t-19.5 34.5 q-2 4 -4 6t-4 6q-10 8 -13 19q-6 10 -9 16t-7 12l2 -2q-31 47 -69 105.5t-74.5 117t-71.5 112.5t-60 95z" />
<glyph unicode="&#xa6;" horiz-adv-x="481" d="M-57 -164v897h307v-897h-307zM-57 -164v897h307v-897h-307zM-57 655v897h307v-897h-307zM-57 655v897h307v-897h-307z" />
<glyph unicode="&#xa7;" horiz-adv-x="1132" d="M-154 326h308q0 -76 17 -141.5t47 -115t70 -78t85 -28.5q92 0 155.5 27.5t63.5 89.5q0 23 -20.5 38t-52.5 26.5t-72.5 18.5t-81.5 13q-80 10 -166 32.5t-159 65.5t-119 114t-46 175q0 201 163 292t451 91l27 -266q-152 0 -243 -29.5t-91 -87.5q0 -16 19.5 -29.5 t50.5 -22.5t69.5 -15.5t75.5 -12.5q82 -10 171 -32.5t163 -67.5t121 -119t47 -184q0 -111 -41 -190.5t-111.5 -132t-167 -77t-206.5 -24.5q-113 0 -209 52t-167 143.5t-111 213t-40 261.5zM-125 1075q0 100 36 179t101.5 133.5t156.5 83t204 28.5q111 0 207 -53 t166.5 -143.5t111.5 -213t41 -260.5h-307q0 74 -17.5 140.5t-47 116t-69.5 78t-85 28.5q-86 0 -138.5 -29.5t-52.5 -87.5q0 -23 18.5 -37t49.5 -24t70.5 -17.5t80.5 -11.5q90 -16 179.5 -36.5t160 -63.5t114.5 -117t44 -197q0 -117 -47 -188.5t-130 -109t-199.5 -51 t-254.5 -13.5l-39 272q74 0 140.5 4t116 15.5t78 29t28.5 41.5q0 25 -22.5 42.5t-57.5 29.5t-78 20.5t-84 14.5q-82 14 -166 36.5t-152.5 65.5t-112.5 113t-44 182z" />
<glyph unicode="&#xa8;" horiz-adv-x="555" d="M-319 1485q0 43 16 77.5t41.5 59.5t59.5 39t71 14q86 0 138 -52t52 -138q0 -37 -14 -71t-38.5 -59.5t-59.5 -42t-78 -16.5q-37 0 -71 16.5t-59.5 42t-41.5 59.5t-16 71zM59 1485q0 43 16.5 77.5t42 59.5t59.5 39t71 14q86 0 138 -52t52 -138q0 -37 -14 -71t-39 -59.5 t-59.5 -42t-77.5 -16.5q-37 0 -71 16.5t-59.5 42t-42 59.5t-16.5 71z" />
<glyph unicode="&#xa9;" horiz-adv-x="1529" d="M10 760q0 141 51.5 262t140.5 211t211 141t261 51q141 0 262 -51t211 -141t141 -211t51 -262q0 -139 -51 -261t-141 -211t-211 -140.5t-262 -51.5q-139 0 -261 51.5t-211 140.5t-140.5 211t-51.5 261zM317 760q0 -74 28 -138.5t77 -113.5t113.5 -77t138.5 -28t139.5 28 t113.5 77t76.5 113.5t28.5 138.5t-28.5 139.5t-76.5 113.5t-113.5 76.5t-139.5 28.5t-138.5 -28.5t-113.5 -76.5t-77 -113.5t-28 -139.5zM389 766q0 61 22.5 115.5t60.5 96.5t87 66.5t105 24.5q43 0 83.5 -7t77.5 -35t67 -80t50 -142l-190 -2q-14 35 -38 57.5t-50 22.5 q-37 0 -64 -34t-27 -83q0 -45 27 -79t64 -34q27 0 43 14.5t38 59.5l197 -6l-12 -53q-29 -88 -99.5 -143.5t-166.5 -55.5q-55 0 -104.5 24.5t-87.5 65.5t-60.5 94.5t-22.5 112.5z" />
<glyph unicode="&#xaa;" horiz-adv-x="595" d="M-55 471q0 53 18.5 81.5t49 41.5t68.5 15t77 2q28 0 52 1.5t32 7.5q-5 14 -14.5 27.5t-22 23.5t-26.5 16.5t-30 6.5q-12 0 -24 -3t-22 -10t-18.5 -17t-10.5 -23h-59q-21 0 -39.5 -0.5t-18.5 0.5q0 34 17.5 64t45 52t62 35t67.5 13q44 0 81 -15t64.5 -40.5t43.5 -59.5 t16 -75v-283h-110v41q-32 -23 -67 -34t-68 -11t-62.5 10t-52 28.5t-36 45t-13.5 59.5zM56 471q0 -16 15.5 -24.5t37.5 -8.5q28 0 56.5 15t49.5 49q-15 -1 -28.5 -1h-28.5h-37t-32.5 -3t-23.5 -9t-9 -18z" />
<glyph unicode="&#xab;" horiz-adv-x="1300" d="M-172 627l637 628l211 -221l-561 -549v217l106 23q2 -6 2 -16v-9q12 -8 23 -18q4 -4 7 -6t7 -6l8 -8q-25 18 2 -4.5t87.5 -71.5t141.5 -118t165 -142l-191 -232zM381 627l637 628l211 -221l-561 -549v217l106 23q2 -6 2 -16v-9q12 -8 23 -18q4 -4 7 -6t7 -6l8 -8l9 -8 q8 -7 45.5 -39.5t117.5 -99t224 -189.5l-191 -232z" />
<glyph unicode="&#xac;" horiz-adv-x="1484" d="M29 797v295l1202 -43l-14 -662h-308l15 377l20 -21q-4 0 -8 1t-8 1h-15q-72 4 -157.5 8.5t-151.5 8.5q-57 2 -137 7t-162 10t-156.5 9.5t-119.5 8.5z" />
<glyph unicode="&#xad;" horiz-adv-x="1060" d="M-92 555v307h934v-307h-934z" />
<glyph unicode="&#xae;" horiz-adv-x="1605" d="M43 694q0 141 51 262t140.5 211t211 141.5t261.5 51.5q141 0 262 -51.5t211 -141.5t141 -211t51 -262q0 -139 -51 -261t-141 -211t-211 -140t-262 -51q-139 0 -261 51t-211.5 140t-140.5 211t-51 261zM350 694q0 -74 28 -138t77 -113.5t113.5 -77t138.5 -27.5t139 27.5 t113.5 77t77 113.5t28.5 138t-28.5 139.5t-77 113.5t-114 77t-138.5 29q-74 0 -138.5 -29t-113.5 -77t-77 -113.5t-28 -139.5zM541 440v482h174q76 0 125 -49.5t49 -124.5q0 -29 -4 -50.5t-19 -44.5q10 -18 16.5 -41.5t6.5 -44.5v-123h-168v123q0 6 -6 6h-6v-133h-168z M709 741h6q6 0 6 7q0 6 -6 6h-6v-13z" />
<glyph unicode="&#xb0;" horiz-adv-x="595" d="M-102 1276q0 63 22.5 118.5t61 94.5t93 61.5t118.5 22.5q63 0 118.5 -22.5t94 -61.5t61 -94.5t22.5 -118.5t-22.5 -117.5t-61 -93.5t-94 -61.5t-118.5 -22.5t-118 22.5t-93.5 61.5t-61 93t-22.5 118zM182 1276q0 -10 11 -10q12 0 12 10q0 12 -12 12q-11 0 -11 -12z" />
<glyph unicode="&#xb1;" horiz-adv-x="1007" d="M-92 -59v307h934v-307h-934zM-92 453v307h323v311h308v-311h303v-307h-303v-316h-308v316h-323z" />
<glyph unicode="&#xb2;" horiz-adv-x="583" d="M-58 261q12 52 37 100q11 19 26.5 41t36 42t46.5 37.5t58 30.5q29 11 48.5 23t31 25.5t16.5 28.5t5 32q0 15 -8 31.5t-20.5 29.5t-30 21t-37.5 8t-37.5 -11t-30.5 -29t-20.5 -42.5t-7.5 -52.5h-96q0 48 14.5 90t40.5 73.5t61 50t76 18.5q40 0 75.5 -17t61 -43.5 t40.5 -59.5t15 -67q0 -28 -11 -56t-31.5 -53.5t-50 -47.5t-64.5 -40q-9 -4 -23 -15t-28 -23q-17 -13 -36 -29h252v-96h-409z" />
<glyph unicode="&#xb3;" horiz-adv-x="565" d="M-50 479h97q0 -26 6.5 -48t18 -39t27.5 -26.5t34 -9.5t33.5 6t27 16.5t18.5 25t7 29.5q-3 18 -14 31q-11 12 -32.5 22t-60.5 10q0 3 -1 9q-1 4 -1 9v10q0 10 1.5 20t6.5 15v16q9 0 25.5 2.5t33.5 8.5t29.5 16t12.5 26t-7 31t-18.5 26t-27 17t-33.5 6t-34 -9.5t-27.5 -27 t-18 -40t-6.5 -48.5h-97q0 45 14.5 85.5t39 70.5t57.5 48t72 18q38 0 71.5 -14.5t58.5 -39t38.5 -56.5t13.5 -67q0 -33 -11.5 -58t-26.5 -42q14 -16 22 -32.5t12 -30.5q3 -17 4 -32q0 -37 -13.5 -68.5t-38.5 -55t-58.5 -36.5t-71.5 -13q-39 0 -72 17t-57.5 46.5t-39 69.5 t-14.5 86z" />
<glyph unicode="&#xb4;" horiz-adv-x="679" d="M-201 1473l592 378l189 -215l-592 -391z" />
<glyph unicode="&#xb5;" horiz-adv-x="1372" d="M-154 -229v718v23v655h308v-655q0 -74 26.5 -139.5t71.5 -113.5t105.5 -76.5t127.5 -28.5q61 0 116.5 30.5t99.5 81.5t75 113.5t43 128.5v659h307v-981q0 -14 52.5 -23t124.5 -9v-308q-100 0 -188.5 26t-154 72t-103.5 107.5t-38 134.5v189l305 -56q-55 -104 -126.5 -191 t-153.5 -149.5t-173 -97.5t-186 -35q-90 0 -175 27t-156 72v-174q0 -53 50 -89t120 -36v-308q-98 0 -185.5 33t-152 91.5t-102.5 137t-38 171.5z" />
<glyph unicode="&#xb6;" horiz-adv-x="2187" d="M88 629v4q10 2 18 10q4 4 9 29l12 137q-12 10 -27 14v6h52l63 -157l66 157h47v-6q-23 0 -23 -26v-4l10 -125q4 -23 7 -27q4 -4 18 -8v-4h-72v4q10 2 17 8q6 6 6 18l-2 5l-10 131l-70 -166h-4l-68 166l-12 -125v-4q0 -27 27 -33v-4h-64zM94 922q0 25 17 41q14 16 39 16 q10 0 18 -2q6 -2 10 -2q2 0 6 4h2v-31h-2q-6 14 -12 21q-10 6 -22 6q-20 0 -29 -12q-10 -14 -10 -35q0 -23 12 -37q8 -14 29 -14q25 0 34 22l4 -2q-6 -10 -18 -20q-10 -6 -27 -7q-14 0 -26 7q-10 6 -19 18q-6 12 -6 27zM96 1092q0 16 8 36q8 18 27 27q14 8 33 8q14 0 22 -2 q12 -4 13 -4q4 0 8 6h4v-39h-4q-4 16 -14 25q-14 10 -29 10q-18 0 -35 -16q-12 -18 -12 -43q0 -27 14 -47q14 -18 39 -19q23 0 23 13v14q0 10 -5 18q-4 4 -10 4h-6v4h53v-4q-8 0 -12 -4t-4 -14v-35q-2 0 -6 -1t-10 -1h-21q-37 0 -55 16q-20 18 -21 48zM207 926q0 23 16 39 q14 14 41 14q23 0 39 -14q16 -16 16 -39q0 -25 -18 -39q-14 -16 -39 -17q-25 0 -39 17q-16 16 -16 39zM223 926q0 -23 10 -37q12 -14 29 -15q20 0 29 15q12 14 12 35q0 23 -12 39q-10 12 -27 12q-18 0 -31 -12q-10 -17 -10 -37zM240 1030v4q8 0 12 4q2 4 2 17v82q0 12 -2 16 q-4 4 -12 4v4h94v-22h-2l-6 12q-4 4 -17 4h-37v-55h37q8 0 10 2q1 0 5 10h4v-33h-4q-4 10 -7 11q-2 2 -12 2h-33v-45q0 -6 2 -9q2 -2 9 -2h22q14 0 17 2q4 0 8 4q2 4 3 6.5t3 6.5h4l-6 -25h-94zM334 872v2q8 4 8 7q2 2 6 14l6 72q-6 4 -14 8v2h27l32 -82l35 82h25v-2 q-12 0 -13 -14v-3l7 -65q0 -6 4 -14l8 -5v-2h-37v2q8 4 8 5q2 2 2 10v2l-6 67l-35 -86h-4l-35 86l-6 -63v-4q0 -12 15 -17v-2h-33zM354 1137v28h4q8 -4 21 -4h67q12 0 21 4h4v-28h-2q-4 12 -8 14q-13 4 -21 4h-18v-100q0 -14 2 -17q4 -4 10 -4v-4h-45v4q8 0 12 4q2 4 2 17 v100h-18q-12 0 -20 -4q-6 -6 -7 -14h-4zM358 629v4q14 4 17 8q8 6 14 25l55 165h21l57 -174q6 -16 13 -18q6 -6 18 -6v-4h-72v4q16 0 17 12v8l-19 58h-65l-15 -41q-4 -8 -4 -13.5v-9.5q0 -12 17 -14v-4h-54zM418 721h55l-27 86zM444 562q0 -9 2 -19q4 -10 10.5 -21.5 t16.5 -21.5q16 -16 51 -27q12 -4 38 -9t67 -5t97 5t130 17q76 12 168 29.5t209 40.5q59 10 121.5 21.5t134.5 15.5q35 4 71.5 4t75.5 -8q18 -4 36 -10.5t34 -18.5q14 -12 25 -31q8 -20 8 -39q0 -20 -5 -39.5t-22 -35.5q-16 -16 -36.5 -22.5t-43.5 -8.5q-45 -4 -91 3t-93 17 q-96 23 -194.5 54.5t-206.5 66.5q-53 16 -107.5 32.5t-114.5 33.5q-29 6 -59.5 11t-60.5 9q-16 2 -32 2h-32q-35 -4 -61 -14q-31 -12 -48 -45q-14 -35 -8 -66q0 -16 11 -30q8 -16 24 -25q14 -10 30.5 -15t33.5 -10q35 -4 68.5 -4t68.5 4q35 2 70.5 7.5t70.5 11.5 q72 10 144.5 24.5t148.5 30.5q37 6 75 13.5t77 11.5q41 4 79.5 8t79.5 4l40 -4t40 -8q18 -4 35.5 -16.5t26.5 -30.5q8 -16 8 -41q-2 -10 -4 -19.5t-6 -19.5q-12 -23 -27 -31q-14 -10 -39 -16q-20 -4 -41.5 -4t-44.5 2q-20 4 -41.5 7t-44.5 7q-41 10 -84 21.5t-86 25.5 q-86 27 -174 55.5t-180 51.5q-23 4 -46.5 9t-48.5 9t-48 5t-48 -3q-29 -4 -47 -14q-20 -8 -35 -35q-4 -10 -6 -23.5t-2 -25.5q0 -27 19 -45q16 -16 43 -25q12 -4 24 -5t27 -3q25 -2 50.5 -1t49.5 5q53 4 103.5 12t101.5 19q53 10 104.5 19t104.5 20q27 4 53.5 8t52.5 8 q29 4 54.5 6t54.5 0q27 0 55 -6q12 -4 24.5 -8t22.5 -14q18 -16 23 -48q0 -12 -2 -25.5t-11 -23.5q-6 -12 -17 -19t-23 -11q-25 -6 -52 -7q-27 0 -52.5 4.5t-49.5 8.5q-51 10 -99.5 23.5t-97.5 27.5q-47 16 -93 29.5t-93 27.5q-47 12 -92 21.5t-92 11.5h-24.5t-22.5 -2 q-10 -4 -21.5 -8t-19.5 -13q-18 -12 -25 -38q-2 -10 -2 -21.5t4 -21.5q6 -23 31 -33q16 -8 43 -13q23 -4 43 -3t43 3q43 4 85 10.5t83 14.5q82 16 159.5 30.5t153.5 20.5q39 6 76 0q18 -2 36.5 -7t30.5 -17q12 -14 13.5 -33t-4.5 -35t-23 -27q-8 -4 -15 -6t-18 -4 q-16 -4 -34.5 -3t-34.5 3q-16 4 -34 6t-34 7q-70 16 -129 32q-63 18 -122.5 36t-119.5 28q-16 2 -29.5 3t-29.5 1q-14 0 -28.5 -1t-28.5 -7q-6 -4 -12.5 -7.5t-12.5 -9.5q-10 -12 -12 -26q-2 -6 -2 -13.5v-13.5q4 -18 14 -27q10 -10 23.5 -13t25.5 -5q14 -2 27.5 -2h25.5 q27 2 52.5 5t50.5 7q49 10 95 18.5t91 16.5q23 4 43.5 7t42.5 7q23 2 42.5 3t41.5 -1q10 -2 18.5 -4t18.5 -6q8 -4 14.5 -11t8.5 -15q6 -16 -2 -37q-6 -16 -25 -25q-16 -6 -33.5 -6h-34.5q-16 2 -32.5 4t-32.5 6q-66 14 -120 29.5t-103 26.5q-27 4 -50.5 8t-46.5 4t-43 -6 t-30 -27q-10 -20 -4 -39q8 -18 26 -24q29 -8 62 -5q29 2 52 5.5t42 7.5q20 4 35.5 6t27.5 4q49 10 66.5 12t42.5 6q29 4 56.5 5.5t45.5 -7.5q16 -10 17 -22q0 -4 1 -5t1 -3v-2q2 0 2 10t-4 14q-2 6 -15 15q-20 10 -47 10q-14 0 -28.5 -1t-30.5 -3q-35 -4 -62.5 -10.5 t-56.5 -10.5q-29 -6 -59.5 -12t-69.5 -10q-10 0 -20.5 -1t-20.5 -1q-10 2 -21.5 3t-21.5 7q-12 8 -12 18q-4 8 0 25q2 8 14 20q6 4 13.5 6.5l13.5 4.5q33 6 67 0q35 -2 76 -13q41 -10 85 -21t95 -24q25 -4 52.5 -9t56.5 -7q16 0 30.5 2t28.5 10q12 6 21 25q6 12 2 32 q0 18 -17 29q-14 10 -30 14q-33 6 -72 3q-35 -2 -72 -7.5t-78 -13.5q-39 -8 -78.5 -16.5t-82.5 -14.5q-23 -4 -44.5 -7t-43.5 -5h-45q-12 2 -24.5 4t-23.5 6q-10 4 -17 13.5t-9 21.5q-4 23 10 45q14 18 41 25q12 2 25.5 3t25.5 -1q47 -2 105 -17q27 -6 53.5 -12t54.5 -14 q53 -16 110.5 -32.5t117.5 -29.5q16 -4 31.5 -5t31.5 -3q35 -4 64 2q16 4 28 12q14 12 21 27q6 18 4 35q0 14 -10 31q-10 14 -27.5 19t-34.5 9q-16 4 -33.5 4h-33.5q-35 -2 -71 -7t-71 -11q-72 -12 -144.5 -27.5t-150.5 -25.5q-18 -4 -37.5 -5t-40.5 -3q-45 -4 -77 2 q-10 2 -19.5 4t-19.5 6q-20 10 -27 28q-8 16 -4 39q4 25 16 37q16 16 35 23q20 6 41 6q47 0 86 -8q41 -6 84 -17.5t86 -23.5t86 -25.5t88 -27.5q45 -12 90 -24.5t93 -21.5q49 -10 98 -6q27 4 47 13q25 14 31 39q10 25 4 49q-4 29 -27 41q-18 14 -47 20q-12 2 -24.5 3 t-26.5 1q-33 2 -64.5 -1t-64.5 -7t-64.5 -9t-64.5 -11q-61 -12 -123 -24.5t-123 -23.5q-31 -4 -61.5 -8t-61.5 -8q-29 -4 -59.5 -5t-61.5 3q-29 4 -55 16q-29 16 -35 45t6 58q10 27 39 39q12 8 26.5 10t29.5 4h27.5t29.5 -2q29 -4 55.5 -9t54.5 -11q55 -12 107.5 -29 t105.5 -33t103.5 -31.5t101.5 -31.5q51 -14 101.5 -26.5t101.5 -16.5q27 -4 52.5 -3t47.5 9q12 4 23.5 10t19.5 16q14 20 19 47q0 12 -1 24.5t-5 25.5q-10 25 -31 36q-23 14 -46.5 18.5t-45.5 8.5q-47 4 -94.5 -1t-92.5 -11q-92 -12 -178 -31q-88 -16 -171 -32.5t-165 -26.5 q-41 -6 -80.5 -9.5t-80.5 -1.5q-20 2 -39 4.5t-37 8.5t-33.5 18t-24.5 29q-12 35 0.5 72.5t47.5 54.5q16 6 33.5 9t35.5 5h35.5t34.5 -4q35 -4 68.5 -11t66.5 -16q33 -10 64.5 -18t62.5 -18q125 -39 236.5 -77t218.5 -63q47 -14 104 -20q27 -4 52.5 -5t49.5 3q27 4 48 12 q27 14 36 31q12 23 17 45q4 29 -2 47q-2 20 -21 41q-14 14 -34 24t-41 13.5t-41 5.5q-41 4 -79 3t-75 -5q-72 -8 -136.5 -19.5t-119.5 -21.5q-57 -10 -106.5 -19.5t-94.5 -17.5q-88 -16 -152.5 -26.5t-111.5 -14.5q-49 -4 -82 -4t-55 2q-23 2 -37 4t-27 6q-33 10 -49 27 q-10 8 -15 17.5t-9 19.5q-6 18 -6 30.5t-3 12.5v-4q0 -2 -1 -3t-1 -6v-13zM475 872v2q4 2 5 3.5t5 3.5q0 2 1 5t1 9l9 72q-6 4 -15 8v2h27l33 -82l34 82h25v-2q-12 0 -12 -14v-3l6 -65q0 -4 1 -7t1 -7q2 -2 4 -2t6 -3v-2h-37v2q8 4 9 5q2 2 2 10v2l-7 67l-34 -86h-4l-35 86 l-6 -63v-4q0 -14 14 -17v-2h-33zM532 823v6h74v-6q-18 -4 -18 -12q0 -4 1 -6l3 -6l47 -127l43 116l-6 13q-2 10 -10 18q-8 4 -17 4v6h74v-6q-20 0 -21 -12l5 -12l47 -127l41 112q4 16 4 23q0 16 -19 16v6h60v-6q-12 0 -19 -10q-4 -4 -8 -11t-8 -20l-57 -157h-7l-55 149 l-53 -149h-6l-62 168q-2 6 -4 11t-4 9t-4 5t-4 3q-4 2 -17 2zM537 1030v4q10 0 10 4q4 8 4 17v82q0 6 -1 9t-1 7q-4 4 -12 4v4h90v-24h-4q-4 12 -7 14q-4 4 -14 4h-35v-55h35q6 0 10 4t4 12h5v-37h-5q0 15 -14 15h-35v-39q0 -8 4 -17q4 -4 13 -4v-4h-47zM616 872v2 q10 0 11 5q2 2 2 14v65q0 10 -2 13q-4 4 -11 4v2h78v-16h-4q0 8 -4 8q-4 4 -12 4h-31v-45h31q6 0 6 2q4 4 4 8h4v-27h-4q-4 8 -4 9q-2 2 -10 2h-27v-37q0 -4 2 -6h6h19h12q4 0 8 4q0 -2 4 10h4l-4 -21h-78zM641 1157v4h47v-4q-8 0 -12 -4q-2 -4 -2 -16v-66q0 -18 8 -27 q8 -8 25 -8q24 1 36 21v80q0 12 -2 16q-4 4 -12 4v4h47v-4q-8 0 -12 -4q-2 -4 -2 -16v-82q0 -12 2 -17q4 -4 12 -4v-4h-33v19q-18 -20 -43 -21q-20 0 -32 12t-13 33v64q0 12 -2 16q-4 4 -12 4zM711 872v2q6 0 10 5q2 2 2 14v65q0 10 -2 13q-4 4 -10 4v2h43q18 0 26 -8t8 -19 q0 -20 -20 -26q2 -2 4 -3t4 -6q4 -4 6 -7l6 -9q8 -16 13 -18q4 -4 5 -4t5 -3v-2h-23q-4 4 -7 9.5t-7 13.5q-12 18 -16 20q-7 7 -13 7h-8v-29q0 -12 2 -14q4 -4 11 -5v-2h-39zM737 926h13q12 0 18 6t6 18q0 10 -6 17q-10 6 -20 6h-11v-47zM795 1030v4q6 0 10 4t4 19v82 q0 12 -4 14q-4 4 -10 4v4h47v-4q-8 0 -13 -4q-2 -4 -2 -16v-88q0 -8 2 -9q4 -4 13 -4h26q8 0 17 4q2 4 4 7.5t4 11.5h4l-8 -29h-94zM825 922q0 27 15 41q14 16 39 16q12 0 20 -2q4 -2 8 -2q2 0 6 4h5v-31h-5q-2 14 -12 21q-10 6 -22 6q-16 0 -29 -12q-8 -10 -8 -35t10 -37 q8 -14 29 -14q25 0 37 22l2 -2q-6 -12 -17 -20q-12 -6 -26 -7q-14 0 -27 7q-12 6 -19 18q-6 12 -6 27zM854 823v6h51l127 -157v119q0 16 -6 26q-4 6 -18 6v6h61v-6q-14 0 -20 -6t-7 -24v-164h-6l-141 174v-141q0 -16 6 -21q4 -8 19 -8v-4h-62v4q12 0 21 8q6 8 6 27v118 q0 20 -8 27q-6 10 -23 10zM909 1030v4q6 0 11 4q4 8 4 19v82q0 10 -4 14t-11 4v4h45v-4q-6 0 -10 -4q-4 -8 -4 -16v-88q0 -8 4 -9q4 -4 10 -4h27q12 0 16 4q5 5 11 19h4l-8 -29h-95zM930 872v2q6 0 10 5q2 2 2 14v65q0 10 -2 13q-4 4 -10 4v2h39v-2q-6 0 -11 -4 q-2 -2 -2 -13v-65q0 -12 2 -14q4 -4 11 -5v-2h-39zM977 872v2q4 2 6 2.5t4 2.5q4 4 6 14l29 86h10l31 -90q4 -10 6 -10q4 -4 8 -5v-2h-37v2q10 0 11 7q0 4 -2 6l-9 28h-34l-7 -22q-4 -8 -4 -10q0 -8 9 -9v-2h-27zM1008 922h30l-16 45zM1071 1030v4q8 0 12 4q2 4 2 17v82 q0 12 -2 16q-4 4 -12 4v4h90v-24h-2q-2 10 -6 14t-16 4h-33v-55h35q4 0 8 4q2 2 6 12h2v-37h-2q-2 15 -14 15h-35v-39q0 -12 2 -17q8 -4 12 -4v-4h-47zM1090 872v2q6 0 10 5q0 4 1 7t1 7v65q0 4 -1 7.5t-1 5.5q-4 4 -10 4v2h36v-2q-4 0 -8 -4q-2 -2 -2 -13v-71q0 -6 2 -6 q2 -2 8 -2h23q10 0 12 2q4 2 8 14h2l-6 -23h-75zM1102 627v53h6q0 -23 14 -35q14 -14 33 -14q16 0 31 10q10 10 10 27q0 12 -8 22t-39 29q-23 14 -31 22q-10 8 -12 19q-2 6 -3 11t-1 11q0 25 16 37q12 14 39 15h13.5t15.5 -5q6 -2 10 -2h4q0 3 2 7h4v-50h-4q-4 23 -14 31 q-12 12 -31 12q-14 0 -27 -8q-10 -10 -10 -22q0 -10 8 -23q6 -8 37 -29q33 -20 41 -32q12 -12 13 -33q0 -20 -17 -41q-20 -16 -41 -16q-16 0 -35 8q-4 0 -5 1t-3 1h-2q-6 0 -8 -6h-6zM1182 1096q0 29 20 49q18 18 49 18q27 0 49 -18q20 -20 21 -49q0 -25 -21 -49 q-23 -18 -49 -19q-31 0 -49 19q-20 20 -20 49zM1202 1096q0 -31 12 -45q14 -18 37 -19q23 0 35 19q14 16 14 45q0 31 -14 45q-12 18 -35 18q-20 0 -37 -16q-12 -18 -12 -47zM1223 872v2q8 0 8 5q4 8 4 14v65q0 4 -1 7.5t-1 5.5q-4 4 -10 4v2h37v-2q-4 0 -9 -4q-4 -4 -4 -13 v-71q0 -6 4 -6q2 -2 9 -2h20q12 0 14 2q5 4 9 14h2l-7 -23h-75zM1264 637q0 6 4 10q6 6 12 6t12 -6q4 -4 4 -10q0 -8 -4 -12q-6 -6 -12 -7q-6 0 -12 7q-4 4 -4 12zM1311 872v2q6 0 10 5q0 2 1 6t1 8v65q0 4 -1 7.5t-1 5.5q-4 4 -10 4v2h37v-2q-4 0 -9 -4q-2 -2 -2 -13v-65 q0 -12 2 -14q4 -4 9 -5v-2h-37zM1339 1157v4h33l82 -102v76q0 10 -4 18q-4 4 -12 4v4h39v-4q-8 0 -13 -4q-4 -8 -4 -16v-107h-4l-92 113v-90q0 -10 4 -15q4 -4 12 -4v-4h-39v4q8 0 13 4q4 4 4 19v76q0 10 -4 18q-6 6 -15 6zM1354 723q0 51 28 80q31 31 76 31h17.5t19.5 -5 q8 -2 11 -3t7 -1q6 0 13 9h4v-62h-6q-6 29 -23 41q-18 14 -43 14q-35 0 -53 -24q-20 -23 -21 -66q0 -47 21 -73q20 -27 55 -27q47 0 72 43l4 -4q-8 -25 -33 -39q-20 -14 -51 -14q-29 0 -51 14q-23 12 -35 35q-12 20 -12 51zM1364 922q0 25 16 41q14 16 39 16q12 0 21 -2 q4 -2 8 -2q2 0 6 4h2v-31h-2q-2 14 -12 21q-10 6 -23 6q-16 0 -28 -12q-10 -14 -11 -35q0 -23 13 -37q8 -14 28 -14q25 0 37 22l2 -2q-6 -12 -16 -20q-12 -6 -29 -7q-12 0 -24 7q-12 6 -19 18q-8 10 -8 27zM1473 872v2q6 0 10 5q2 2 2 14v65q0 10 -2 13q-4 4 -10 4v2h75v-16 h-2l-4 8q-4 4 -14 4h-29v-45h29q6 0 8 2q0 2 1 3t1 5h4v-27h-4q0 8 -4 9q0 2 -10 2h-25v-37v-6h6h19h14q2 0 6 4t6 10h2l-4 -21h-75zM1491 1137v28h4q8 -4 21 -4h67q12 0 21 4h4v-28h-2q-4 12 -9 14q-8 4 -18 4h-20v-100q0 -6 1 -10.5t1 -6.5q4 -4 12 -4v-4h-47v4q8 0 12 4 q4 8 4 17v100h-20q-10 0 -19 -4q-8 -8 -8 -14h-4zM1563 975v2h26l66 -82v61q0 12 -2 15q-5 4 -11 4v2h33v-2q-4 0 -12 -4q0 -2 -1 -5t-1 -8v-86h-4l-74 91v-74q0 -6 4 -10t10 -5v-2h-30v2q8 0 8 5q4 8 4 14v61q0 10 -4 15q-2 2 -12 6zM1569 729q0 45 30 76q29 29 78 29 q47 0 76 -29q31 -31 31 -76t-31 -76t-78 -30q-45 0 -76 30q-30 31 -30 76zM1599 729q0 -41 21 -72q20 -27 55 -26q39 0 56 28q23 25 22 68q0 47 -20 74q-23 27 -56 26q-35 0 -55 -26q-23 -29 -23 -72zM1653 1030v4q8 0 12 4l8 17l35 108h14l39 -112q2 -10 6 -15q2 -2 11 -2 v-4h-45v4q12 0 12 8q-2 2 -2 5l-12 36h-41l-11 -26q-2 -6 -2 -15q0 -8 11 -8v-4h-35zM1692 872v27h2q0 -10 8 -18q8 -6 18 -7q10 0 15 5q6 6 6 14q0 4 -4 12q-6 4 -21 15q-6 4 -10 6t-6 6q-2 2 -6 10q0 2 -1 4t-1 6q0 12 8 21q6 6 20 6q10 0 15 -2q2 0 2 -1t2 -1h2q2 0 2 2 v2h4v-25h-4q0 10 -6 17q-4 4 -17 4q-10 0 -14 -4t-4 -10q0 -8 4 -13q2 -4 18 -14t23 -19q4 -4 4 -16t-8 -20t-21 -9q-10 0 -18 4h-6q-2 0 -4 -2h-2zM1692 1092h37l-19 55zM1763 872v2q6 0 11 5q2 2 2 14v65q0 10 -2 13q-4 4 -11 4v2h76v-16h-2q0 8 -4 8q-4 4 -12 4h-31v-45 h29q6 0 8 2l4 8h2v-27h-2q-4 8 -4 9q-2 2 -10 2h-27v-37q0 -4 2 -6h6h19h12q6 0 6 4q4 4 6 10h2l-4 -21h-76zM1788 1157v4h35l82 -102v76q0 10 -4 18q-5 4 -13 4v4h39v-4q-8 0 -12 -4t-4 -16v-107h-4l-92 113v-90q0 -12 4 -15q4 -4 12 -4v-4h-39v4q8 0 12 4q4 8 4 19v76 q0 12 -6 18q-4 6 -14 6zM1815 629v4q12 4 16 10q4 4 8 29l12 137q-8 10 -26 14v6h51l66 -157l65 157h47v-6q-23 0 -22 -26v-4l10 -125q0 -20 6 -27q4 -4 18 -8v-4h-71v4q10 2 16 8q4 8 4 18v5l-10 131l-70 -166h-6l-67 166l-13 -125v-4q0 -27 27 -33v-4h-61zM1882 872v2 q8 4 8 5q6 2 8 14l29 86h10l31 -90q4 -10 6 -10q4 -4 8 -5v-2h-36v2q10 0 10 7q0 4 -2 6l-8 28h-35l-6 -22q-4 -8 -4 -10q0 -8 8 -9v-2h-27zM1913 922h31l-17 45zM1944 1030v4q6 0 10 4q4 8 4 17v82q0 8 -4 16q-4 4 -10 4v4h59q35 0 53 -18q20 -20 21 -49q0 -31 -19 -45 q-18 -18 -53 -19h-61zM1974 1059q0 -10 4 -19q2 -4 13 -4h14q25 0 39 15q12 14 12 43q0 31 -14 45q-14 16 -43 16h-25v-96zM1976 956v25h4q4 -4 17 -4h53q12 0 16 4h5v-25h-3q-4 8 -6 13q-8 4 -16 4h-14v-82q0 -10 2 -12q4 -4 8 -5v-2h-37v2q6 0 10 5q0 4 1 7t1 7v80h-16 q-10 0 -14 -4q-6 -4 -7 -13h-4z" />
<glyph unicode="&#xb7;" horiz-adv-x="909" d="M31 705q0 68 23.5 126t64.5 100t99 65.5t126 23.5t126 -23.5t100 -65.5t65.5 -100.5t23.5 -125.5q0 -68 -23.5 -126.5t-65.5 -99.5t-100 -64.5t-126 -23.5t-126 23.5t-99 64.5t-64.5 99.5t-23.5 126.5zM338 705q0 -6 6 -7q8 0 8 7q0 8 -8 8q-6 0 -6 -8z" />
<glyph unicode="&#xb8;" horiz-adv-x="864" d="M-164 -463l94 307q59 -20 113 -43q47 -18 96 -37.5t84 -31.5q12 -4 38 -10.5t57.5 -1t63.5 26t56 69.5q-2 2 -18.5 3t-35.5 2t-36.5 1h-23.5q-2 0 -47.5 2t-98.5 6l-143 8l158 363l280 -123l-80 -158q6 -4 40 -5t72 -19.5t66.5 -63.5t26.5 -135q-2 -74 -25.5 -122 t-64.5 -76.5t-96.5 -40t-120.5 -11.5q-68 0 -146.5 14.5t-148.5 30.5q-82 20 -160 45z" />
<glyph unicode="&#xb9;" horiz-adv-x="589" d="M-66 679l85 176h84v-582h-104v527l82 -3q-9 -9 -11 -20t-1 -20.5t3 -16.5t2 -8q-4 -5 -7 -12.5t-7 -14.5l-22 5l1 18h27q0 -1 -0.5 -4.5t-0.5 -4.5q-2 -5 -3 -9t-2 -6l-2 -4q-2 -2 -3 -5t-1 -4q-1 -1 -3 -4l-4 -6l-5 -9l-31 26q22 35 34.5 48t16.5 13q10 0 11 -8t-2 -20 t-10 -25.5t-12 -23.5l-14 1q-2 -2 -2.5 -4.5t-1.5 -4.5l13 -5l-3 -5q0 -2 -1 -5t-2 -5q-2 -3 -4.5 -9t-2.5 -8z" />
<glyph unicode="&#xba;" horiz-adv-x="763" d="M-69 625q0 58 20.5 108t56 87t83.5 58t104 21t104.5 -21t84 -58t56 -87t20.5 -108t-20.5 -108t-56 -87t-84 -58t-104.5 -21t-104 21t-83.5 58t-56 87t-20.5 108zM59 625q0 -31 10.5 -58t29.5 -46.5t43.5 -31.5t52.5 -12q29 0 54 12t43.5 31.5t29.5 46.5t11 58 q0 30 -11 57t-29.5 47t-43.5 31.5t-54 11.5q-28 0 -52.5 -11.5t-43.5 -31.5t-29.5 -47t-10.5 -57z" />
<glyph unicode="&#xbb;" horiz-adv-x="1353" d="M-154 1018l203 231l647 -532l-649 -641l-199 241l506 486v-221l-86 84l-6 6l-14 14l-39 39l43 43v-29q6 -6 18.5 -17t19.5 -15.5t8 3t-13 35.5l-6 9l73 -49q-66 0 -99.5 3t-45.5 13q-25 20 -74 61t-103.5 86t-104.5 86t-79 64zM420 1018l203 231l647 -532l-649 -641 l-199 241l506 486v-221l-86 84l-6 6l-15 14l-39 39l43 43v-29q6 -6 18.5 -17t19.5 -15.5t8 3t-13 35.5l-6 9l74 -49q-51 0 -92 4t-54 12q-25 18 -74 59t-103 86t-104 87t-79 65z" />
<glyph unicode="&#xbc;" horiz-adv-x="1138" d="M-135 -84l626 1798l279 -94l-627 -1813zM-68 880l120 246h119v-814h-147v737l116 -4q-13 -12 -16 -27.5t-1.5 -29.5t4.5 -23.5t3 -10.5q-5 -7 -9.5 -17.5t-9.5 -20.5l-32 7l1 25h39q0 -1 -0.5 -6t-0.5 -6q-3 -8 -4.5 -13t-3.5 -9l-3 -5q-1 -2 -2.5 -6.5t-2.5 -6.5 q-1 -1 -4 -5t-5 -8l-8 -12l-44 36q31 48 48.5 66.5t23.5 18.5q14 0 16 -11t-3 -28t-14 -36t-17 -33l-20 1q-2 -2 -3 -5.5t-2 -5.5l18 -8l-4 -7q-1 -2 -2.5 -6.5t-2.5 -6.5q-2 -5 -5.5 -13.5t-4.5 -10.5zM110 205l621 825v-1094h-165v269h-456zM438 371h128v284 q10 14 8.5 3.5t-12 -36t-26.5 -60t-34 -71t-35 -69t-29 -51.5z" />
<glyph unicode="&#xbd;" horiz-adv-x="1144" d="M-155 -109l626 1798l279 -94l-627 -1813zM-85 992l138 287h136v-949h-168v859l133 -4q-15 -15 -18.5 -33t-1.5 -34t5 -27t3 -13q-5 -7 -10.5 -19.5t-10.5 -24.5l-37 9l1 29h45q0 -1 -1 -7t-1 -7q-3 -9 -4.5 -15.5t-3.5 -10.5l-4 -6q-2 -3 -3.5 -8t-2.5 -7q-1 -1 -4 -5.5 l-7 -10.5l-9 -14l-50 42q36 57 56 78.5t27 21.5q16 0 18 -13t-3.5 -32.5t-16 -42t-20.5 -39.5l-22 3q-2 -4 -3 -8t-3 -6l21 -9l-5 -9q-1 -2 -2.5 -7.5t-2.5 -7.5q-2 -5 -6.5 -15.5t-5.5 -12.5zM70 -58q17 70 51 134q15 27 36 56t48 56t62 50.5t79 41.5q38 15 64.5 31.5 t42 34.5t22 38t6.5 43q0 21 -10.5 42.5t-27.5 39t-40.5 28.5t-50.5 11q-26 0 -49.5 -14.5t-41.5 -39t-28 -57.5t-10 -71h-129q0 65 19.5 121.5t54.5 99t82.5 67t101.5 24.5q55 0 102.5 -22.5t82 -58.5t54.5 -80.5t20 -89.5q0 -38 -15 -75.5t-42.5 -72t-67 -64.5t-87.5 -53 q-11 -6 -30 -20.5t-38 -30.5q-23 -18 -48 -39h339v-130h-552z" />
<glyph unicode="&#xbe;" horiz-adv-x="1034" d="M-145 -90l626 1798l279 -94l-627 -1813zM-100 604h117q0 -31 8 -58.5t21.5 -48t32.5 -32.5t41 -12q21 0 40.5 7.5t33 20.5t21.5 30.5t8 37.5q-3 21 -17 38q-12 14 -38 26.5t-73 12.5q-1 4 -1 11q-1 4 -1 10.5v12.5q0 13 1.5 25t7.5 19v19q10 1 30 4t40.5 10t35.5 19.5 t15 31.5q0 21 -8 39t-21.5 31.5t-33 21.5t-40.5 8q-22 0 -41 -12t-32.5 -33.5t-21.5 -49.5t-8 -60h-117q0 56 17 106t46.5 87t70 58.5t86.5 21.5t86.5 -17.5t70 -47.5t46 -69.5t16.5 -83.5q0 -40 -13.5 -71t-32.5 -52q18 -19 27.5 -39.5t13.5 -37.5q4 -21 5 -39 q0 -46 -16.5 -85t-46 -68t-70 -45t-86.5 -16t-86.5 21t-70 57.5t-46.5 85.5t-17 105zM85 180l537 715v-949h-143v234h-394zM369 323h110v247q9 12 7.5 2.5t-10.5 -31.5t-22.5 -52t-29 -61.5t-30 -59.5t-25.5 -45z" />
<glyph unicode="&#xbf;" horiz-adv-x="1376" d="M-154 282q0 111 32 190t82 137t113.5 102t127.5 85q31 18 60.5 40t53 55.5t37 84t13.5 127.5h307q0 -139 -29 -233t-74 -157.5t-101 -104.5t-112 -78q-37 -23 -72.5 -48.5t-64 -56t-47 -65.5t-18.5 -78q0 -74 28.5 -139.5t76.5 -113.5t113.5 -76.5t139.5 -28.5t138.5 40 t113.5 107.5t76.5 158.5t27.5 196h308q0 -168 -51.5 -315.5t-140.5 -257t-211 -173t-261 -63.5q-141 0 -262 54t-211 145t-141.5 212t-51.5 254zM320 1290q0 90 56 146.5t146 56.5t146.5 -56.5t56.5 -146.5t-56.5 -146.5t-146.5 -56.5t-146 56.5t-56 146.5z" />
<glyph unicode="&#xc0;" horiz-adv-x="1503" d="M-225 -143l833 1964l834 -1964h-326l-178 407l-657 -4q-4 -4 -10.5 -14t-23 -50t-50 -119t-95.5 -220h-327zM205 2034l195 227l620 -409l-186 -232zM410 571h397q-2 2 -15.5 34t-33 79t-43 101.5t-44 103.5t-35.5 85t-20 46z" />
<glyph unicode="&#xc1;" horiz-adv-x="1503" d="M-225 -143l833 1964l834 -1964h-326l-178 407l-657 -4q-4 -4 -10.5 -14t-23 -50t-50 -119t-95.5 -220h-327zM272 1883l592 378l189 -215l-592 -391zM410 571h397q-2 2 -15.5 34t-33 79t-43 101.5t-44 103.5t-35.5 85t-20 46z" />
<glyph unicode="&#xc2;" horiz-adv-x="1503" d="M-225 -143l833 1964l834 -1964h-326l-178 407l-657 -4q-4 -4 -10.5 -14t-23 -50t-50 -119t-95.5 -220h-327zM203 1848l403 504l377 -502l-229 -211l-271 385l250 45q-31 -31 -41 -49.5t-9 -28.5t6 -15t3 -7q-31 -41 -83 -107t-95 -119q-6 -6 -13 -14t-16 -19 q-10 -14 -22 -27t-27 -30zM410 571h397q-2 2 -15.5 34t-33 79t-43 101.5t-44 103.5t-35.5 85t-20 46z" />
<glyph unicode="&#xc3;" horiz-adv-x="1503" d="M-225 -143l833 1964l834 -1964h-326l-178 407l-657 -4q-4 -4 -10.5 -14t-23 -50t-50 -119t-95.5 -220h-327zM95 1880q49 70 104 125q47 47 109.5 86t130.5 39q47 0 100 -13t111 -54l-2 2q66 -33 92 -33q10 0 30.5 12.5t42.5 28.5q25 18 56 43l207 -217q-57 -51 -115 -88 q-49 -33 -108.5 -59.5t-112.5 -26.5t-117 18.5t-123 52.5q-14 4 -22 11q-8 4 -20.5 10t-8.5 2q-2 0 -3 1t-3 1t-4 2q-8 0 -25.5 -22.5t-36.5 -49.5l-49 -69zM410 571h397q-2 2 -15.5 34t-33 79t-43 101.5t-44 103.5t-35.5 85t-20 46z" />
<glyph unicode="&#xc4;" horiz-adv-x="1503" d="M-225 -143l833 1964l834 -1964h-326l-178 407l-657 -4q-4 -4 -10.5 -14t-23 -50t-50 -119t-95.5 -220h-327zM222 1895q0 43 16 77.5t41.5 59.5t59.5 39t71 14q86 0 138 -52t52 -138q0 -37 -14 -71t-38.5 -59.5t-59.5 -42t-78 -16.5q-37 0 -71 16.5t-59.5 42t-41.5 59.5 t-16 71zM410 571h397q-2 2 -15.5 34t-33 79t-43 101.5t-44 103.5t-35.5 85t-20 46zM600 1895q0 43 16.5 77.5t42 59.5t59.5 39t71 14q86 0 138 -52t52 -138q0 -37 -14 -71t-39 -59.5t-59.5 -42t-77.5 -16.5q-37 0 -71 16.5t-59.5 42t-42 59.5t-16.5 71z" />
<glyph unicode="&#xc5;" horiz-adv-x="1503" d="M-225 -143l833 1964l834 -1964h-326l-178 407l-657 -4q-4 -4 -10.5 -14t-23 -50t-50 -119t-95.5 -220h-327zM301 1911q0 63 22.5 118.5t61.5 94.5t93.5 61.5t117.5 22.5t118.5 -22.5t94.5 -61.5t61.5 -94.5t22.5 -118.5t-22.5 -117.5t-61.5 -93.5t-94 -61.5t-119 -22.5 q-63 0 -117.5 22.5t-93.5 61.5t-61.5 93.5t-22.5 117.5zM410 571h397q-2 2 -15.5 34t-33 79t-43 101.5t-44 103.5t-35.5 85t-20 46zM586 1911q0 -10 10 -10q12 0 12 10q0 12 -12 12q-10 0 -10 -12z" />
<glyph unicode="&#xc6;" horiz-adv-x="2492" d="M-225 -143l833 1964l834 -1964h-326l-178 407l-657 -4q-4 -4 -10.5 -14t-23 -50t-50 -119t-95.5 -220h-327zM395 1573l520 4l-438 -438v448h1206v-307h-940l80 111v-54.5t2 -11.5l6 -6q4 -12 13.5 -33.5t13.5 -32.5l6 -12q2 -2 -1 -10t-8 -16.5t-9 -13.5t-6 -3l34 21 l19 -50q2 -4 5 -8t5 -8v-4q2 -6 4 -10t2 -7.5t2 -7.5v2q6 -14 11.5 -26.5t11.5 -28.5q0 -4 18 -35q0 -4 4 -12q2 -4 7 -8q2 -6 3 -10.5t3 -8.5q4 -10 6 -16t6 -14q0 -4 6 -13q4 -10 10 -20q4 -6 7 -12q2 -6 1 -6.5t3 -4.5h897v-307h-1014l149 211l60 -129l2 -14h-41 q0 -4 4 -8l33 22l8 -16q29 -72 60.5 -146.5t62.5 -148.5l2 -15h-41q0 -4 4 -8l35 15l2 -5h2q2 0 2 1.5t4 1.5v-11q0 -10 2 -10q14 -35 30.5 -75t20.5 -58t-12 0t-72 100l-4 62l-7 -11q-7 -12 -16.5 -25t-17.5 -23l-8 -11l92 19q0 -6 4 -13q2 -6 5.5 -12t7.5 -10l12 -31 q4 -4 6 -11t6 -18q2 -4 4 -9l6 -15q4 -6 5.5 -11.5t5.5 -11.5q2 -4 1 -4t1 -4q4 -4 4 -6t4 -12h965v-308h-1207v449l439 -438h-263q-2 0 -3 -1t-5 -1h-8h-14q-12 -2 -29.5 -2h-34.5h-39zM410 571h397q-2 2 -15.5 34t-33 79t-43 101.5t-44 103.5t-35.5 85t-20 46z" />
<glyph unicode="&#xc7;" horiz-adv-x="1439" d="M-156 717q0 162 58.5 322.5t175.5 289.5t265.5 193.5t295.5 64.5q154 0 326 -94t342 -276l-230 -201q-123 135 -233.5 199.5t-204.5 64.5q-90 0 -178 -43t-156 -121q-74 -86 -113.5 -190.5t-39.5 -208.5q0 -113 35.5 -217.5t107.5 -184.5q72 -82 160 -121.5t184 -39.5 q92 0 199.5 62.5t230.5 197.5l236 -199q-170 -182 -338 -275.5t-328 -93.5q-154 0 -305.5 67t-267.5 189q-104 121 -163 284t-59 331zM225 -598l94 307q59 -20 113 -43q47 -18 96 -37.5t84 -31.5q12 -4 38 -10.5t57.5 -1t63.5 26t56 69.5q-2 2 -18.5 3t-35.5 2t-36.5 1 h-23.5q-2 0 -47.5 2t-98.5 6l-143 8l158 363l280 -123l-80 -158q6 -4 40 -5t72 -19.5t66.5 -63.5t26.5 -135q-2 -74 -25.5 -122t-64.5 -76.5t-96.5 -40t-120.5 -11.5q-68 0 -146.5 14.5t-148.5 30.5q-82 20 -160 45z" />
<glyph unicode="&#xc8;" horiz-adv-x="1173" d="M-154 -154v1741h1217v-307h-909v-369h847v-307h-847v-450h909v-308h-1217zM41 2034l195 227l620 -409l-186 -232z" />
<glyph unicode="&#xc9;" horiz-adv-x="1173" d="M-154 -154v1741h1217v-307h-909v-369h847v-307h-847v-450h909v-308h-1217zM106 1883l592 378l189 -215l-592 -391z" />
<glyph unicode="&#xca;" horiz-adv-x="1173" d="M-154 -154v1741h1217v-307h-909v-369h847v-307h-847v-450h909v-308h-1217zM37 1848l403 504l377 -502l-229 -211l-271 385l250 45q-31 -31 -41 -49.5t-9 -28.5t6 -15t3 -7q-31 -41 -83 -107t-95 -119q-6 -6 -13 -14t-16 -19q-10 -14 -22 -27t-27 -30z" />
<glyph unicode="&#xcb;" horiz-adv-x="1173" d="M-154 -154v1741h1217v-307h-909v-369h847v-307h-847v-450h909v-308h-1217zM99 1895q0 43 16 77.5t41.5 59.5t59.5 39t71 14q86 0 138 -52t52 -138q0 -37 -14 -71t-38.5 -59.5t-59.5 -42t-78 -16.5q-37 0 -71 16.5t-59.5 42t-41.5 59.5t-16 71zM477 1895q0 43 16.5 77.5 t42 59.5t59.5 39t71 14q86 0 138 -52t52 -138q0 -37 -14 -71t-39 -59.5t-59.5 -42t-77.5 -16.5q-37 0 -71 16.5t-59.5 42t-42 59.5t-16.5 71z" />
<glyph unicode="&#xcc;" horiz-adv-x="585" d="M-254 2034l195 227l620 -409l-186 -232zM-143 -154v308h139v1126h-139v307h585v-307h-139v-1126h139v-308h-585z" />
<glyph unicode="&#xcd;" horiz-adv-x="585" d="M-187 1883l592 378l189 -215l-592 -391zM-143 -154v308h139v1126h-139v307h585v-307h-139v-1126h139v-308h-585z" />
<glyph unicode="&#xce;" horiz-adv-x="585" d="M-256 1848l403 504l377 -502l-229 -211l-271 385l250 45q-31 -31 -41 -49.5t-9 -28.5t6 -15t3 -7q-31 -41 -83 -107t-95 -119q-6 -6 -13 -14t-16 -19q-10 -14 -22 -27t-27 -30zM-143 -154v308h139v1126h-139v307h585v-307h-139v-1126h139v-308h-585z" />
<glyph unicode="&#xcf;" horiz-adv-x="585" d="M-237 1895q0 43 16 77.5t41.5 59.5t59.5 39t71 14q86 0 138 -52t52 -138q0 -37 -14 -71t-38.5 -59.5t-59.5 -42t-78 -16.5q-37 0 -71 16.5t-59.5 42t-41.5 59.5t-16 71zM-143 -154v308h139v1126h-139v307h585v-307h-139v-1126h139v-308h-585zM141 1895q0 43 16.5 77.5 t42 59.5t59.5 39t71 14q86 0 138 -52t52 -138q0 -37 -14 -71t-39 -59.5t-59.5 -42t-77.5 -16.5q-37 0 -71 16.5t-59.5 42t-42 59.5t-16.5 71z" />
<glyph unicode="&#xd0;" horiz-adv-x="1269" d="M-295 561v307h141v719h439q168 0 312 -67.5t251.5 -185t169 -276.5t61.5 -341t-61.5 -341t-169 -276.5t-251.5 -185.5t-312 -68h-439v715h-141zM154 154h131q100 0 189 44t154.5 120.5t104.5 179t39 219.5t-39 219t-104.5 179t-154.5 121t-189 44h-131v-412h485v-307 h-485v-407z" />
<glyph unicode="&#xd1;" horiz-adv-x="1277" d="M-154 -143v2130l871 -1420v1010h307v-2130l-870 1419v-1009h-308zM-18 1880q49 70 104 125q47 47 109.5 86t130.5 39q47 0 100 -13t111 -54l-2 2q66 -33 92 -33q10 0 30.5 12.5t42.5 28.5q25 18 56 43l207 -217q-57 -51 -115 -88q-49 -33 -108.5 -59.5t-112.5 -26.5 t-117 18.5t-123 52.5q-14 4 -22 11q-8 4 -20.5 10t-8.5 2q-2 0 -3 1t-3 1t-4 2q-8 0 -25.5 -22.5t-36.5 -49.5l-49 -69z" />
<glyph unicode="&#xd2;" horiz-adv-x="1589" d="M-154 717q0 182 61.5 341t168 276.5t252 185t311.5 67.5q168 0 312.5 -67.5t252 -185t169 -276.5t61.5 -341t-61.5 -341t-169 -276.5t-252 -185.5t-312.5 -68q-166 0 -311.5 68t-252 185.5t-168 276.5t-61.5 341zM154 717q0 -117 37.5 -219.5t104 -179t155 -120.5 t188.5 -44t189.5 44t155 120.5t104 179t38.5 219.5t-38.5 219t-104 179t-155 121t-189.5 44t-188.5 -44t-155 -121t-104 -179t-37.5 -219zM248 2034l195 227l620 -409l-186 -232z" />
<glyph unicode="&#xd3;" horiz-adv-x="1589" d="M-154 717q0 182 61.5 341t168 276.5t252 185t311.5 67.5q168 0 312.5 -67.5t252 -185t169 -276.5t61.5 -341t-61.5 -341t-169 -276.5t-252 -185.5t-312.5 -68q-166 0 -311.5 68t-252 185.5t-168 276.5t-61.5 341zM154 717q0 -117 37.5 -219.5t104 -179t155 -120.5 t188.5 -44t189.5 44t155 120.5t104 179t38.5 219.5t-38.5 219t-104 179t-155 121t-189.5 44t-188.5 -44t-155 -121t-104 -179t-37.5 -219zM315 1883l592 378l189 -215l-592 -391z" />
<glyph unicode="&#xd4;" horiz-adv-x="1589" d="M-154 717q0 182 61.5 341t168 276.5t252 185t311.5 67.5q168 0 312.5 -67.5t252 -185t169 -276.5t61.5 -341t-61.5 -341t-169 -276.5t-252 -185.5t-312.5 -68q-166 0 -311.5 68t-252 185.5t-168 276.5t-61.5 341zM154 717q0 -117 37.5 -219.5t104 -179t155 -120.5 t188.5 -44t189.5 44t155 120.5t104 179t38.5 219.5t-38.5 219t-104 179t-155 121t-189.5 44t-188.5 -44t-155 -121t-104 -179t-37.5 -219zM246 1848l403 504l377 -502l-229 -211l-271 385l250 45q-31 -31 -41 -49.5t-9 -28.5t6 -15t3 -7q-31 -41 -83 -107t-95 -119 q-6 -6 -13 -14t-16 -19q-10 -14 -22 -27t-27 -30z" />
<glyph unicode="&#xd5;" horiz-adv-x="1589" d="M-154 717q0 182 61.5 341t168 276.5t252 185t311.5 67.5q168 0 312.5 -67.5t252 -185t169 -276.5t61.5 -341t-61.5 -341t-169 -276.5t-252 -185.5t-312.5 -68q-166 0 -311.5 68t-252 185.5t-168 276.5t-61.5 341zM138 1880q49 70 104 125q47 47 109.5 86t130.5 39 q47 0 100 -13t111 -54l-2 2q66 -33 92 -33q10 0 30.5 12.5t42.5 28.5q25 18 56 43l207 -217q-57 -51 -115 -88q-49 -33 -108.5 -59.5t-112.5 -26.5t-117 18.5t-123 52.5q-14 4 -22 11q-8 4 -20.5 10t-8.5 2q-2 0 -3 1t-3 1t-4 2q-8 0 -25.5 -22.5t-36.5 -49.5l-49 -69z M154 717q0 -117 37.5 -219.5t104 -179t155 -120.5t188.5 -44t189.5 44t155 120.5t104 179t38.5 219.5t-38.5 219t-104 179t-155 121t-189.5 44t-188.5 -44t-155 -121t-104 -179t-37.5 -219z" />
<glyph unicode="&#xd6;" horiz-adv-x="1589" d="M-154 717q0 182 61.5 341t168 276.5t252 185t311.5 67.5q168 0 312.5 -67.5t252 -185t169 -276.5t61.5 -341t-61.5 -341t-169 -276.5t-252 -185.5t-312.5 -68q-166 0 -311.5 68t-252 185.5t-168 276.5t-61.5 341zM154 717q0 -117 37.5 -219.5t104 -179t155 -120.5 t188.5 -44t189.5 44t155 120.5t104 179t38.5 219.5t-38.5 219t-104 179t-155 121t-189.5 44t-188.5 -44t-155 -121t-104 -179t-37.5 -219zM265 1895q0 43 16 77.5t41.5 59.5t59.5 39t71 14q86 0 138 -52t52 -138q0 -37 -14 -71t-38.5 -59.5t-59.5 -42t-78 -16.5 q-37 0 -71 16.5t-59.5 42t-41.5 59.5t-16 71zM643 1895q0 43 16.5 77.5t42 59.5t59.5 39t71 14q86 0 138 -52t52 -138q0 -37 -14 -71t-39 -59.5t-59.5 -42t-77.5 -16.5q-37 0 -71 16.5t-59.5 42t-42 59.5t-16.5 71z" />
<glyph unicode="&#xd7;" horiz-adv-x="1007" d="M-61 825l217 217l227 -227l219 219l217 -217l-219 -219l213 -213l-217 -217l-213 213l-221 -221l-217 217l221 221z" />
<glyph unicode="&#xd8;" horiz-adv-x="1589" d="M-154 717q0 182 61.5 341t168 276.5t252 185t311.5 67.5q168 0 312.5 -67.5t252 -185t169 -276.5t61.5 -341t-61.5 -341t-169 -276.5t-252 -185.5t-312.5 -68q-166 0 -311.5 68t-252 185.5t-168 276.5t-61.5 341zM154 717q0 -117 37.5 -219.5t104 -179t155 -120.5 t188.5 -44t189.5 44t155 120.5t104 179t38.5 219.5t-38.5 219t-104 179t-155 121t-189.5 44t-188.5 -44t-155 -121t-104 -179t-37.5 -219zM216 -141l626 1798l279 -94l-627 -1813z" />
<glyph unicode="&#xd9;" horiz-adv-x="1521" d="M-154 674v903h308v-903q0 -109 31.5 -203t87 -164.5t129 -111.5t157.5 -41q82 0 155.5 41t129 111.5t87.5 164.5t32 203v903h307v-903q0 -174 -55.5 -325.5t-150.5 -263.5t-225 -175.5t-280 -63.5q-152 0 -282 63.5t-225 175.5t-150.5 263.5t-55.5 325.5zM215 2034 l195 227l620 -409l-186 -232z" />
<glyph unicode="&#xda;" horiz-adv-x="1521" d="M-154 674v903h308v-903q0 -109 31.5 -203t87 -164.5t129 -111.5t157.5 -41q82 0 155.5 41t129 111.5t87.5 164.5t32 203v903h307v-903q0 -174 -55.5 -325.5t-150.5 -263.5t-225 -175.5t-280 -63.5q-152 0 -282 63.5t-225 175.5t-150.5 263.5t-55.5 325.5zM280 1883 l592 378l189 -215l-592 -391z" />
<glyph unicode="&#xdb;" horiz-adv-x="1521" d="M-154 674v903h308v-903q0 -109 31.5 -203t87 -164.5t129 -111.5t157.5 -41q82 0 155.5 41t129 111.5t87.5 164.5t32 203v903h307v-903q0 -174 -55.5 -325.5t-150.5 -263.5t-225 -175.5t-280 -63.5q-152 0 -282 63.5t-225 175.5t-150.5 263.5t-55.5 325.5zM211 1848 l403 504l377 -502l-229 -211l-271 385l250 45q-31 -31 -41 -49.5t-9 -28.5t6 -15t3 -7q-31 -41 -83 -107t-95 -119q-6 -6 -13 -14t-16 -19q-10 -14 -22 -27t-27 -30z" />
<glyph unicode="&#xdc;" horiz-adv-x="1521" d="M-154 674v903h308v-903q0 -109 31.5 -203t87 -164.5t129 -111.5t157.5 -41q82 0 155.5 41t129 111.5t87.5 164.5t32 203v903h307v-903q0 -174 -55.5 -325.5t-150.5 -263.5t-225 -175.5t-280 -63.5q-152 0 -282 63.5t-225 175.5t-150.5 263.5t-55.5 325.5zM189 1895 q0 43 16 77.5t41.5 59.5t59.5 39t71 14q86 0 138 -52t52 -138q0 -37 -14 -71t-38.5 -59.5t-59.5 -42t-78 -16.5q-37 0 -71 16.5t-59.5 42t-41.5 59.5t-16 71zM567 1895q0 43 16.5 77.5t42 59.5t59.5 39t71 14q86 0 138 -52t52 -138q0 -37 -14 -71t-39 -59.5t-59.5 -42 t-77.5 -16.5q-37 0 -71 16.5t-59.5 42t-42 59.5t-16.5 71z" />
<glyph unicode="&#xdd;" d="M-268 1577h348l545 -860l-224 -2q25 74 66 143.5t88 136.5l-2 -256l-131 23q0 10 2 18q4 18 8 25q2 4 7 10t10 10q6 6 10 9l-19 -15q2 4 6.5 13.5t6.5 13.5t5 9t7 11l8 8l2 5q4 6 8 15t21 32l104 -64q-16 -27 -35.5 -31t-37 6.5t-29.5 32t-12 45.5q4 4 9 11.5t7 11.5t2 6 t4 6l6 6q2 2 2 3.5t2 3.5t2 3t2 3l3.5 7t5.5 7q10 14 20 28.5t19 22.5q33 51 56 88t47 72t48.5 74t58.5 94q-18 -16 -12 -3t24.5 39.5t42 59.5t38.5 55v-2q2 4 3 7.5t3 5.5q4 10 15 27.5t16 25.5h339l-602 -965v-755h-307v749q-4 4 -9 11.5t-7 11.5t-5 8t-5 8q0 -2 -5 6 q-8 6 -12 19q-10 14 -26 45l67 82l14 -66q-14 10 -23 13.5t-13 5.5q-10 -8 -23.5 -18.5t-19.5 -14.5q-29 47 -66 104.5t-68 104.5v-2q-4 4 -8 10t-8 10q-6 10 -16.5 26.5t-1.5 6.5q-23 33 -50.5 77t-50.5 79v2l-6 9l-6 9q-4 10 -12 21.5t-13 19.5q-4 6 -11 15.5t-11 17.5 q-10 10 -13 17t-8 16q-6 10 -13 18t-13 18l-12 19q-8 16 -13 20q-8 14 -15 28.5t-18 31.5q-12 18 -29.5 45.5t-34.5 54.5t-31.5 49.5t-20.5 32.5zM192 1883l592 378l189 -215l-592 -391z" />
<glyph unicode="&#xde;" horiz-adv-x="1329" d="M-152 -143v1726h308v-299l-90 90h67h41h8q2 0 4 -1t9 -1h28q2 0 3 -1t5 -1h17h28h56h60.5t53.5 -2h-2q131 -4 252 -58.5t213 -145.5t146.5 -209.5t54.5 -252.5q0 -139 -51 -261t-141.5 -211t-211 -140t-262.5 -51h-288v-182h-308zM156 346h288q74 0 139.5 27.5t113.5 77 t77 114t29 137.5q0 74 -29 139.5t-77 114t-113.5 77t-139.5 28.5l-288 6v-721z" />
<glyph unicode="&#xdf;" horiz-adv-x="1136" d="M-156 -125v1301h308v-314h-308q0 166 40 311.5t111 254t167 171t207 62.5t205 -52.5t164.5 -141.5t111.5 -207.5t43 -251.5v-7q2 -14 3 -37.5t1 -43.5q0 -49 -6 -113t-25.5 -128.5t-55.5 -123.5t-93 -98q63 -74 110 -162t47 -176q0 -68 -31.5 -123t-103 -96t-189.5 -63.5 t-292 -22.5v307h241.5t67.5 -2q0 18 -25.5 52t-67.5 79t-96 96t-110 100q-131 117 -297 256q201 0 326 35t194.5 81t97 93t34.5 74h-37q0 76 -17.5 143.5t-47 117.5t-68.5 79t-84 29t-84 -39t-69 -105.5t-47 -156.5t-17 -191h-308v314h308v-1301h-308z" />
<glyph unicode="&#xe0;" horiz-adv-x="1157" d="M-152 246q0 147 51.5 227t135.5 116t190.5 42t214.5 6q78 0 145.5 4t88.5 21q-14 37 -40 74.5t-60.5 66t-74.5 47t-83 18.5q-33 0 -67 -9t-62.5 -28.5t-51 -47t-30.5 -64.5h-162q-61 0 -111.5 -1t-50.5 1q0 94 48 178t125 145.5t172.5 97.5t189.5 36q121 0 225 -41 t181 -112t121 -167t44 -209v-790h-307v116q-90 -66 -187.5 -96.5t-189.5 -30.5q-90 0 -173 28t-145.5 80t-99.5 126t-37 166zM33 1624l195 227l620 -409l-186 -232zM156 246q0 -45 43 -68.5t104 -23.5q80 0 159 41t136 137q-41 -4 -79 -3t-79 1q-53 0 -103 -1t-91 -9.5 t-65.5 -24.5t-24.5 -49z" />
<glyph unicode="&#xe1;" horiz-adv-x="1157" d="M-152 246q0 147 51.5 227t135.5 116t190.5 42t214.5 6q78 0 145.5 4t88.5 21q-14 37 -40 74.5t-60.5 66t-74.5 47t-83 18.5q-33 0 -67 -9t-62.5 -28.5t-51 -47t-30.5 -64.5h-162q-61 0 -111.5 -1t-50.5 1q0 94 48 178t125 145.5t172.5 97.5t189.5 36q121 0 225 -41 t181 -112t121 -167t44 -209v-790h-307v116q-90 -66 -187.5 -96.5t-189.5 -30.5q-90 0 -173 28t-145.5 80t-99.5 126t-37 166zM98 1473l592 378l189 -215l-592 -391zM156 246q0 -45 43 -68.5t104 -23.5q80 0 159 41t136 137q-41 -4 -79 -3t-79 1q-53 0 -103 -1t-91 -9.5 t-65.5 -24.5t-24.5 -49z" />
<glyph unicode="&#xe2;" horiz-adv-x="1157" d="M-152 246q0 147 51.5 227t135.5 116t190.5 42t214.5 6q78 0 145.5 4t88.5 21q-14 37 -40 74.5t-60.5 66t-74.5 47t-83 18.5q-33 0 -67 -9t-62.5 -28.5t-51 -47t-30.5 -64.5h-162q-61 0 -111.5 -1t-50.5 1q0 94 48 178t125 145.5t172.5 97.5t189.5 36q121 0 225 -41 t181 -112t121 -167t44 -209v-790h-307v116q-90 -66 -187.5 -96.5t-189.5 -30.5q-90 0 -173 28t-145.5 80t-99.5 126t-37 166zM29 1438l403 504l377 -502l-229 -211l-271 385l250 45q-31 -31 -41 -49.5t-9 -28.5t6 -15t3 -7q-31 -41 -83 -107t-95 -119q-6 -6 -13 -14t-16 -19 q-10 -14 -22 -27t-27 -30zM156 246q0 -45 43 -68.5t104 -23.5q80 0 159 41t136 137q-41 -4 -79 -3t-79 1q-53 0 -103 -1t-91 -9.5t-65.5 -24.5t-24.5 -49z" />
<glyph unicode="&#xe3;" horiz-adv-x="1157" d="M-152 246q0 147 51.5 227t135.5 116t190.5 42t214.5 6q78 0 145.5 4t88.5 21q-14 37 -40 74.5t-60.5 66t-74.5 47t-83 18.5q-33 0 -67 -9t-62.5 -28.5t-51 -47t-30.5 -64.5h-162q-61 0 -111.5 -1t-50.5 1q0 94 48 178t125 145.5t172.5 97.5t189.5 36q121 0 225 -41 t181 -112t121 -167t44 -209v-790h-307v116q-90 -66 -187.5 -96.5t-189.5 -30.5q-90 0 -173 28t-145.5 80t-99.5 126t-37 166zM-79 1470q49 70 104 125q47 47 109.5 86t130.5 39q47 0 100 -13t111 -54l-2 2q66 -33 92 -33q10 0 30.5 12.5t42.5 28.5q25 18 56 43l207 -217 q-57 -51 -115 -88q-49 -33 -108.5 -59.5t-112.5 -26.5t-117 18.5t-123 52.5q-14 4 -22 11q-8 4 -20.5 10t-8.5 2q-2 0 -3 1t-3 1t-4 2q-8 0 -25.5 -22.5t-36.5 -49.5l-49 -69zM156 246q0 -45 43 -68.5t104 -23.5q80 0 159 41t136 137q-41 -4 -79 -3t-79 1q-53 0 -103 -1 t-91 -9.5t-65.5 -24.5t-24.5 -49z" />
<glyph unicode="&#xe4;" horiz-adv-x="1157" d="M-152 246q0 147 51.5 227t135.5 116t190.5 42t214.5 6q78 0 145.5 4t88.5 21q-14 37 -40 74.5t-60.5 66t-74.5 47t-83 18.5q-33 0 -67 -9t-62.5 -28.5t-51 -47t-30.5 -64.5h-162q-61 0 -111.5 -1t-50.5 1q0 94 48 178t125 145.5t172.5 97.5t189.5 36q121 0 225 -41 t181 -112t121 -167t44 -209v-790h-307v116q-90 -66 -187.5 -96.5t-189.5 -30.5q-90 0 -173 28t-145.5 80t-99.5 126t-37 166zM48 1485q0 43 16 77.5t41.5 59.5t59.5 39t71 14q86 0 138 -52t52 -138q0 -37 -14 -71t-38.5 -59.5t-59.5 -42t-78 -16.5q-37 0 -71 16.5t-59.5 42 t-41.5 59.5t-16 71zM156 246q0 -45 43 -68.5t104 -23.5q80 0 159 41t136 137q-41 -4 -79 -3t-79 1q-53 0 -103 -1t-91 -9.5t-65.5 -24.5t-24.5 -49zM426 1485q0 43 16.5 77.5t42 59.5t59.5 39t71 14q86 0 138 -52t52 -138q0 -37 -14 -71t-39 -59.5t-59.5 -42t-77.5 -16.5 q-37 0 -71 16.5t-59.5 42t-42 59.5t-16.5 71z" />
<glyph unicode="&#xe5;" horiz-adv-x="1157" d="M-152 246q0 147 51.5 227t135.5 116t190.5 42t214.5 6q78 0 145.5 4t88.5 21q-14 37 -40 74.5t-60.5 66t-74.5 47t-83 18.5q-33 0 -67 -9t-62.5 -28.5t-51 -47t-30.5 -64.5h-162q-61 0 -111.5 -1t-50.5 1q0 94 48 178t125 145.5t172.5 97.5t189.5 36q121 0 225 -41 t181 -112t121 -167t44 -209v-790h-307v116q-90 -66 -187.5 -96.5t-189.5 -30.5q-90 0 -173 28t-145.5 80t-99.5 126t-37 166zM129 1501q0 63 22.5 118.5t61.5 94.5t93.5 61.5t117.5 22.5t118.5 -22.5t94.5 -61.5t61.5 -94.5t22.5 -118.5t-22.5 -117.5t-61.5 -93.5t-94 -61.5 t-119 -22.5q-63 0 -117.5 22.5t-93.5 61.5t-61.5 93.5t-22.5 117.5zM156 246q0 -45 43 -68.5t104 -23.5q80 0 159 41t136 137q-41 -4 -79 -3t-79 1q-53 0 -103 -1t-91 -9.5t-65.5 -24.5t-24.5 -49zM414 1501q0 -10 10 -10q12 0 12 10q0 12 -12 12q-10 0 -10 -12z" />
<glyph unicode="&#xe6;" horiz-adv-x="2121" d="M-154 504q0 139 44 261t121 213t180.5 144.5t224.5 53.5q117 0 220 -41t181 -112t123 -167t43 -209v-8q-6 -211 -69.5 -361.5t-161 -245.5t-216 -140.5t-233.5 -45.5q-90 0 -173 28t-145.5 80t-99.5 126t-37 166q0 147 51.5 227t135.5 116t190.5 42t214.5 6q78 0 145.5 4 t88.5 21q-14 37 -40 74.5t-60.5 66t-74.5 47t-83 18.5q-53 0 -101.5 -28.5t-84 -77.5t-56 -115.5t-20.5 -142.5h-308zM156 246q0 -45 43 -68.5t104 -23.5q80 0 159 41t136 137q-41 -4 -79 -3t-79 1q-53 0 -103 -1t-91 -9.5t-65.5 -24.5t-24.5 -49zM676 512q0 141 49 262 t135 211t203 141.5t252 51.5q90 0 177 -32t168 -90.5t153.5 -140t132.5 -182.5l-830 -514q41 -31 91 -48t108 -17h551v-308h-551q-135 0 -252 51.5t-203 141.5t-135 211t-49 262zM971 481l18 13q123 78 255 158.5t255 166.5q-37 23 -87 37t-97 14q-68 0 -128.5 -28.5 t-105.5 -76.5t-71.5 -113.5t-26.5 -139.5q0 -12 2 -26.5t2 -22.5t-3 -6t-13 24z" />
<glyph unicode="&#xe7;" horiz-adv-x="1265" d="M-154 512q0 141 49.5 262t135.5 211t202.5 141.5t251.5 51.5q88 0 174 -31t165 -86t147.5 -133t124.5 -170l-242 -213q-86 150 -183.5 237.5t-185.5 87.5q-68 0 -128 -28.5t-105 -76.5t-71.5 -113.5t-26.5 -139.5t26.5 -139.5t71.5 -113.5t105.5 -76.5t127.5 -28.5h551 v-308h-551q-135 0 -251.5 51.5t-202.5 141.5t-135.5 211t-49.5 262zM137 -578l94 307q59 -20 113 -43q47 -18 96 -37.5t84 -31.5q12 -4 38 -10.5t57.5 -1t63.5 26t56 69.5q-2 2 -18.5 3t-35.5 2t-36.5 1h-23.5q-2 0 -47.5 2t-98.5 6l-143 8l158 363l280 -123l-80 -158 q6 -4 40 -5t72 -19.5t66.5 -63.5t26.5 -135q-2 -74 -25.5 -122t-64.5 -76.5t-96.5 -40t-120.5 -11.5q-68 0 -146.5 14.5t-148.5 30.5q-82 20 -160 45z" />
<glyph unicode="&#xe8;" horiz-adv-x="1230" d="M-154 512q0 141 49.5 262t135.5 211t202.5 141.5t251.5 51.5q90 0 177.5 -32t168 -90.5t153.5 -140t132 -182.5l-829 -514q41 -31 91 -48t107 -17h551v-308h-551q-135 0 -251.5 51.5t-202.5 141.5t-135.5 211t-49.5 262zM70 1624l195 227l620 -409l-186 -232zM141 481 l19 13q123 78 255 158.5t255 166.5q-37 23 -87.5 37t-97.5 14q-68 0 -128 -28.5t-105 -76.5t-71.5 -113.5t-26.5 -139.5q0 -12 2 -26.5t2 -22.5t-3 -6t-14 24z" />
<glyph unicode="&#xe9;" horiz-adv-x="1230" d="M-154 512q0 141 49.5 262t135.5 211t202.5 141.5t251.5 51.5q90 0 177.5 -32t168 -90.5t153.5 -140t132 -182.5l-829 -514q41 -31 91 -48t107 -17h551v-308h-551q-135 0 -251.5 51.5t-202.5 141.5t-135.5 211t-49.5 262zM135 1473l592 378l189 -215l-592 -391zM141 481 l19 13q123 78 255 158.5t255 166.5q-37 23 -87.5 37t-97.5 14q-68 0 -128 -28.5t-105 -76.5t-71.5 -113.5t-26.5 -139.5q0 -12 2 -26.5t2 -22.5t-3 -6t-14 24z" />
<glyph unicode="&#xea;" horiz-adv-x="1230" d="M-154 512q0 141 49.5 262t135.5 211t202.5 141.5t251.5 51.5q90 0 177.5 -32t168 -90.5t153.5 -140t132 -182.5l-829 -514q41 -31 91 -48t107 -17h551v-308h-551q-135 0 -251.5 51.5t-202.5 141.5t-135.5 211t-49.5 262zM66 1438l403 504l377 -502l-229 -211l-271 385 l250 45q-31 -31 -41 -49.5t-9 -28.5t6 -15t3 -7q-31 -41 -83 -107t-95 -119q-6 -6 -13 -14t-16 -19q-10 -14 -22 -27t-27 -30zM141 481l19 13q123 78 255 158.5t255 166.5q-37 23 -87.5 37t-97.5 14q-68 0 -128 -28.5t-105 -76.5t-71.5 -113.5t-26.5 -139.5q0 -12 2 -26.5 t2 -22.5t-3 -6t-14 24z" />
<glyph unicode="&#xeb;" horiz-adv-x="1230" d="M-154 512q0 141 49.5 262t135.5 211t202.5 141.5t251.5 51.5q90 0 177.5 -32t168 -90.5t153.5 -140t132 -182.5l-829 -514q41 -31 91 -48t107 -17h551v-308h-551q-135 0 -251.5 51.5t-202.5 141.5t-135.5 211t-49.5 262zM84 1485q0 43 16 77.5t41.5 59.5t59.5 39t71 14 q86 0 138 -52t52 -138q0 -37 -14 -71t-38.5 -59.5t-59.5 -42t-78 -16.5q-37 0 -71 16.5t-59.5 42t-41.5 59.5t-16 71zM141 481l19 13q123 78 255 158.5t255 166.5q-37 23 -87.5 37t-97.5 14q-68 0 -128 -28.5t-105 -76.5t-71.5 -113.5t-26.5 -139.5q0 -12 2 -26.5t2 -22.5 t-3 -6t-14 24zM462 1485q0 43 16.5 77.5t42 59.5t59.5 39t71 14q86 0 138 -52t52 -138q0 -37 -14 -71t-39 -59.5t-59.5 -42t-77.5 -16.5q-37 0 -71 16.5t-59.5 42t-42 59.5t-16.5 71z" />
<glyph unicode="&#xec;" horiz-adv-x="567" d="M-262 1624l194 227l621 -409l-186 -232zM-143 870v308h497v-994q0 -14 52.5 -24t125.5 -10v-308q-100 0 -188 26t-154.5 72t-104.5 108.5t-38 135.5v686h-190z" />
<glyph unicode="&#xed;" horiz-adv-x="567" d="M-197 1473l592 378l189 -215l-592 -391zM-143 870v308h497v-994q0 -14 52.5 -24t125.5 -10v-308q-100 0 -188 26t-154.5 72t-104.5 108.5t-38 135.5v686h-190z" />
<glyph unicode="&#xee;" horiz-adv-x="567" d="M-266 1438l403 504l377 -502l-229 -211l-271 385l250 45q-31 -31 -41 -49.5t-9 -28.5t6 -15t3 -7q-31 -41 -83 -107t-95 -119q-6 -6 -13 -14t-16 -19q-10 -14 -22 -27t-27 -30zM-143 870v308h497v-994q0 -14 52.5 -24t125.5 -10v-308q-100 0 -188 26t-154.5 72 t-104.5 108.5t-38 135.5v686h-190z" />
<glyph unicode="&#xef;" horiz-adv-x="567" d="M-248 1485q0 43 16.5 77.5t42 59.5t59.5 39t71 14q86 0 138 -52t52 -138q0 -37 -14.5 -71t-39 -59.5t-59 -42t-77.5 -16.5q-37 0 -71 16.5t-59.5 42t-42 59.5t-16.5 71zM-143 870v308h497v-994q0 -14 52.5 -24t125.5 -10v-308q-100 0 -188 26t-154.5 72t-104.5 108.5 t-38 135.5v686h-190zM131 1485q0 43 16.5 77.5t42 59.5t59.5 39t70 14q86 0 138.5 -52t52.5 -138q0 -37 -14.5 -71t-39 -59.5t-59.5 -42t-78 -16.5q-37 0 -70.5 16.5t-59 42t-42 59.5t-16.5 71z" />
<glyph unicode="&#xf0;" horiz-adv-x="1380" d="M-154 479q0 133 50.5 248t139.5 200t209 133t259 48h42.5t41.5 -2q-33 35 -72 75t-70 70l363 4q-70 -45 -124 -81.5t-56 -38.5q-29 -18 -63 -41t-62 -43l-23 -17q-4 -2 -7 -5l-5 -5q-8 -4 -10 -6q-4 -4 -12.5 -8t-18.5 -11l4 2q-6 -4 -14 -8q-6 -4 -14.5 -7t-12.5 -5 l-211 217l166 113q-45 29 -96 61.5t-98 59.5q-53 31 -107 61l215 170q59 -10 125 -33q53 -20 119.5 -54t130.5 -91l-14 6h-7q6 6 19 14q16 8 22 15q10 6 30 19t32 24q6 4 10 7t10 7q4 4 11.5 9t15.5 9q6 4 17.5 13.5t25.5 19.5l215 -231l-184 -123q61 -74 118.5 -157 t101.5 -175t71.5 -194.5t31.5 -212.5v2q2 -12 2 -32v-26q0 -133 -51 -248.5t-140 -201.5t-209 -135.5t-259 -49.5t-259 49.5t-209 135.5t-139.5 201.5t-50.5 248.5zM154 479q0 -68 27.5 -127t74.5 -104t111.5 -70.5t136.5 -25.5q74 0 137.5 25.5t111.5 70.5t75.5 104.5 t27.5 126.5q0 66 -27.5 124.5t-75.5 102.5t-111.5 69.5t-137.5 25.5q-72 0 -136.5 -25.5t-111.5 -69.5t-74.5 -102.5t-27.5 -124.5z" />
<glyph unicode="&#xf1;" horiz-adv-x="1302" d="M-154 -143v1310h308v-90q74 47 157.5 74t173.5 27q135 0 253 -51.5t204 -141.5t135 -211t49 -262v-655h-307v655q0 74 -26.5 139.5t-71.5 113.5t-105.5 76.5t-130.5 28.5q-59 0 -113.5 -31.5t-99.5 -82.5t-75.5 -114.5t-42.5 -127.5v-657h-308zM-6 1470q49 70 104 125 q47 47 109.5 86t130.5 39q47 0 100 -13t111 -54l-2 2q66 -33 92 -33q10 0 30.5 12.5t42.5 28.5q25 18 56 43l207 -217q-57 -51 -115 -88q-49 -33 -108.5 -59.5t-112.5 -26.5t-117 18.5t-123 52.5q-14 4 -22 11q-8 4 -20.5 10t-8.5 2q-2 0 -3 1t-3 1t-4 2q-8 0 -25.5 -22.5 t-36.5 -49.5l-49 -69z" />
<glyph unicode="&#xf2;" horiz-adv-x="1292" d="M-154 512q0 141 49.5 262t135.5 211t202.5 141.5t251.5 51.5t253 -51.5t204 -141.5t135 -211t49 -262t-49 -262t-135 -211t-203.5 -141.5t-253.5 -51.5q-135 0 -251.5 51.5t-202.5 141.5t-135.5 211t-49.5 262zM100 1624l195 227l620 -409l-186 -232zM154 512 q0 -74 26.5 -139.5t71.5 -113.5t105.5 -76.5t127.5 -28.5q70 0 130.5 28.5t105.5 76.5t71.5 113.5t26.5 139.5t-26.5 139.5t-71.5 113.5t-105.5 76.5t-130.5 28.5q-68 0 -128 -28.5t-105 -76.5t-71.5 -113.5t-26.5 -139.5z" />
<glyph unicode="&#xf3;" horiz-adv-x="1292" d="M-154 512q0 141 49.5 262t135.5 211t202.5 141.5t251.5 51.5t253 -51.5t204 -141.5t135 -211t49 -262t-49 -262t-135 -211t-203.5 -141.5t-253.5 -51.5q-135 0 -251.5 51.5t-202.5 141.5t-135.5 211t-49.5 262zM154 512q0 -74 26.5 -139.5t71.5 -113.5t105.5 -76.5 t127.5 -28.5q70 0 130.5 28.5t105.5 76.5t71.5 113.5t26.5 139.5t-26.5 139.5t-71.5 113.5t-105.5 76.5t-130.5 28.5q-68 0 -128 -28.5t-105 -76.5t-71.5 -113.5t-26.5 -139.5zM166 1473l592 378l189 -215l-592 -391z" />
<glyph unicode="&#xf4;" horiz-adv-x="1292" d="M-154 512q0 141 49.5 262t135.5 211t202.5 141.5t251.5 51.5t253 -51.5t204 -141.5t135 -211t49 -262t-49 -262t-135 -211t-203.5 -141.5t-253.5 -51.5q-135 0 -251.5 51.5t-202.5 141.5t-135.5 211t-49.5 262zM97 1438l403 504l377 -502l-229 -211l-271 385l250 45 q-31 -31 -41 -49.5t-9 -28.5t6 -15t3 -7q-31 -41 -83 -107t-95 -119q-6 -6 -13 -14t-16 -19q-10 -14 -22 -27t-27 -30zM154 512q0 -74 26.5 -139.5t71.5 -113.5t105.5 -76.5t127.5 -28.5q70 0 130.5 28.5t105.5 76.5t71.5 113.5t26.5 139.5t-26.5 139.5t-71.5 113.5 t-105.5 76.5t-130.5 28.5q-68 0 -128 -28.5t-105 -76.5t-71.5 -113.5t-26.5 -139.5z" />
<glyph unicode="&#xf5;" horiz-adv-x="1292" d="M-154 512q0 141 49.5 262t135.5 211t202.5 141.5t251.5 51.5t253 -51.5t204 -141.5t135 -211t49 -262t-49 -262t-135 -211t-203.5 -141.5t-253.5 -51.5q-135 0 -251.5 51.5t-202.5 141.5t-135.5 211t-49.5 262zM-12 1470q49 70 104 125q47 47 109.5 86t130.5 39 q47 0 100 -13t111 -54l-2 2q66 -33 92 -33q10 0 30.5 12.5t42.5 28.5q25 18 56 43l207 -217q-57 -51 -115 -88q-49 -33 -108.5 -59.5t-112.5 -26.5t-117 18.5t-123 52.5q-14 4 -22 11q-8 4 -20.5 10t-8.5 2q-2 0 -3 1t-3 1t-4 2q-8 0 -25.5 -22.5t-36.5 -49.5l-49 -69z M154 512q0 -74 26.5 -139.5t71.5 -113.5t105.5 -76.5t127.5 -28.5q70 0 130.5 28.5t105.5 76.5t71.5 113.5t26.5 139.5t-26.5 139.5t-71.5 113.5t-105.5 76.5t-130.5 28.5q-68 0 -128 -28.5t-105 -76.5t-71.5 -113.5t-26.5 -139.5z" />
<glyph unicode="&#xf6;" horiz-adv-x="1292" d="M-154 512q0 141 49.5 262t135.5 211t202.5 141.5t251.5 51.5t253 -51.5t204 -141.5t135 -211t49 -262t-49 -262t-135 -211t-203.5 -141.5t-253.5 -51.5q-135 0 -251.5 51.5t-202.5 141.5t-135.5 211t-49.5 262zM115 1485q0 43 16 77.5t41.5 59.5t59.5 39t71 14 q86 0 138 -52t52 -138q0 -37 -14 -71t-38.5 -59.5t-59.5 -42t-78 -16.5q-37 0 -71 16.5t-59.5 42t-41.5 59.5t-16 71zM154 512q0 -74 26.5 -139.5t71.5 -113.5t105.5 -76.5t127.5 -28.5q70 0 130.5 28.5t105.5 76.5t71.5 113.5t26.5 139.5t-26.5 139.5t-71.5 113.5 t-105.5 76.5t-130.5 28.5q-68 0 -128 -28.5t-105 -76.5t-71.5 -113.5t-26.5 -139.5zM493 1485q0 43 16.5 77.5t42 59.5t59.5 39t71 14q86 0 138 -52t52 -138q0 -37 -14 -71t-39 -59.5t-59.5 -42t-77.5 -16.5q-37 0 -71 16.5t-59.5 42t-42 59.5t-16.5 71z" />
<glyph unicode="&#xf7;" horiz-adv-x="378" d="M-366 283v307h934v-307h-934zM-113 31q0 43 16.5 77.5t42 59.5t59.5 39t71 14q86 0 138 -52t52 -138q0 -37 -14 -71t-39 -59.5t-59.5 -42t-77.5 -16.5q-37 0 -71 16.5t-59.5 42t-42 59.5t-16.5 71zM-113 850q0 43 16.5 78t42 59.5t59.5 38.5t71 14q86 0 138 -52t52 -138 q0 -37 -14 -71t-39 -59.5t-59.5 -41.5t-77.5 -16q-37 0 -71 16t-59.5 41.5t-42 59.5t-16.5 71z" />
<glyph unicode="&#xf8;" horiz-adv-x="1292" d="M-154 512q0 141 49.5 262t135.5 211t202.5 141.5t251.5 51.5t253 -51.5t204 -141.5t135 -211t49 -262t-49 -262t-135 -211t-203.5 -141.5t-253.5 -51.5q-135 0 -251.5 51.5t-202.5 141.5t-135.5 211t-49.5 262zM45 -92l643 1299l286 -68l-644 -1309zM154 512 q0 -74 26.5 -139.5t71.5 -113.5t105.5 -76.5t127.5 -28.5q70 0 130.5 28.5t105.5 76.5t71.5 113.5t26.5 139.5t-26.5 139.5t-71.5 113.5t-105.5 76.5t-130.5 28.5q-68 0 -128 -28.5t-105 -76.5t-71.5 -113.5t-26.5 -139.5z" />
<glyph unicode="&#xf9;" d="M-154 512v655h308v-655q0 -74 26.5 -139.5t71.5 -113.5t105.5 -76.5t127.5 -28.5q70 0 130.5 39.5t105.5 107.5t71.5 159t26.5 195h307q0 -168 -49 -315t-135 -257t-203.5 -173.5t-253.5 -63.5q-135 0 -251.5 51.5t-202.5 141.5t-135.5 211t-49.5 262zM127 1624l195 227 l620 -409l-186 -232zM819 186v981h307v-981q0 -14 52.5 -23t124.5 -9v-308q-100 0 -188.5 26t-154 72t-103.5 107.5t-38 134.5z" />
<glyph unicode="&#xfa;" d="M-154 512v655h308v-655q0 -74 26.5 -139.5t71.5 -113.5t105.5 -76.5t127.5 -28.5q70 0 130.5 39.5t105.5 107.5t71.5 159t26.5 195h307q0 -168 -49 -315t-135 -257t-203.5 -173.5t-253.5 -63.5q-135 0 -251.5 51.5t-202.5 141.5t-135.5 211t-49.5 262zM192 1473l592 378 l189 -215l-592 -391zM819 186v981h307v-981q0 -14 52.5 -23t124.5 -9v-308q-100 0 -188.5 26t-154 72t-103.5 107.5t-38 134.5z" />
<glyph unicode="&#xfb;" d="M-154 512v655h308v-655q0 -74 26.5 -139.5t71.5 -113.5t105.5 -76.5t127.5 -28.5q70 0 130.5 39.5t105.5 107.5t71.5 159t26.5 195h307q0 -168 -49 -315t-135 -257t-203.5 -173.5t-253.5 -63.5q-135 0 -251.5 51.5t-202.5 141.5t-135.5 211t-49.5 262zM123 1438l403 504 l377 -502l-229 -211l-271 385l250 45q-31 -31 -41 -49.5t-9 -28.5t6 -15t3 -7q-31 -41 -83 -107t-95 -119q-6 -6 -13 -14t-16 -19q-10 -14 -22 -27t-27 -30zM819 186v981h307v-981q0 -14 52.5 -23t124.5 -9v-308q-100 0 -188.5 26t-154 72t-103.5 107.5t-38 134.5z" />
<glyph unicode="&#xfc;" d="M-154 512v655h308v-655q0 -74 26.5 -139.5t71.5 -113.5t105.5 -76.5t127.5 -28.5q70 0 130.5 39.5t105.5 107.5t71.5 159t26.5 195h307q0 -168 -49 -315t-135 -257t-203.5 -173.5t-253.5 -63.5q-135 0 -251.5 51.5t-202.5 141.5t-135.5 211t-49.5 262zM123 1485 q0 43 16 77.5t41.5 59.5t59.5 39t71 14q86 0 138 -52t52 -138q0 -37 -14 -71t-38.5 -59.5t-59.5 -42t-78 -16.5q-37 0 -71 16.5t-59.5 42t-41.5 59.5t-16 71zM501 1485q0 43 16.5 77.5t42 59.5t59.5 39t71 14q86 0 138 -52t52 -138q0 -37 -14 -71t-39 -59.5t-59.5 -42 t-77.5 -16.5q-37 0 -71 16.5t-59.5 42t-42 59.5t-16.5 71zM819 186v981h307v-981q0 -14 52.5 -23t124.5 -9v-308q-100 0 -188.5 26t-154 72t-103.5 107.5t-38 134.5z" />
<glyph unicode="&#xfd;" horiz-adv-x="1304" d="M-154 143h308q0 -104 26.5 -195t71.5 -159t105.5 -107.5t127.5 -39.5q70 0 130.5 28.5t105.5 76.5t71.5 113.5t26.5 139.5v55l94 -41q-94 -74 -205.5 -121t-222.5 -47q-135 0 -251.5 51.5t-202.5 141.5t-135.5 211t-49.5 262v655h308v-655q0 -74 26.5 -139.5t71.5 -113.5 t105.5 -76.5t127.5 -28.5q70 0 130.5 28.5t105.5 76.5t71.5 113.5t26.5 139.5v655h307v-1167q0 -141 -49 -262t-135 -211t-203.5 -141.5t-253.5 -51.5q-135 0 -251.5 63.5t-202.5 173.5t-135.5 257t-49.5 315zM172 1473l592 378l189 -215l-592 -391z" />
<glyph unicode="&#xfe;" horiz-adv-x="1251" d="M-154 512v20v1147h308v-602q74 47 157.5 74t173.5 27q135 0 253 -51.5t204 -141.5t135 -211t49 -262t-49 -262t-135 -211t-203.5 -141.5t-253.5 -51.5q-90 0 -175 27t-156 72v-600h-308v1167zM154 508q0 -74 26.5 -138.5t71.5 -112.5t105.5 -75.5t127.5 -27.5 q70 0 130.5 28.5t105.5 76.5t71.5 113.5t26.5 139.5t-26.5 139.5t-71.5 113.5t-105.5 76.5t-130.5 28.5q-59 0 -113.5 -31.5t-99.5 -84t-75.5 -117t-42.5 -129.5z" />
<glyph unicode="&#xff;" horiz-adv-x="1304" d="M-154 143h308q0 -104 26.5 -195t71.5 -159t105.5 -107.5t127.5 -39.5q70 0 130.5 28.5t105.5 76.5t71.5 113.5t26.5 139.5v55l94 -41q-94 -74 -205.5 -121t-222.5 -47q-135 0 -251.5 51.5t-202.5 141.5t-135.5 211t-49.5 262v655h308v-655q0 -74 26.5 -139.5t71.5 -113.5 t105.5 -76.5t127.5 -28.5q70 0 130.5 28.5t105.5 76.5t71.5 113.5t26.5 139.5v655h307v-1167q0 -141 -49 -262t-135 -211t-203.5 -141.5t-253.5 -51.5q-135 0 -251.5 63.5t-202.5 173.5t-135.5 257t-49.5 315zM109 1485q0 43 16 77.5t41.5 59.5t59.5 39t71 14q86 0 138 -52 t52 -138q0 -37 -14 -71t-38.5 -59.5t-59.5 -42t-78 -16.5q-37 0 -71 16.5t-59.5 42t-41.5 59.5t-16 71zM487 1485q0 43 16.5 77.5t42 59.5t59.5 39t71 14q86 0 138 -52t52 -138q0 -37 -14 -71t-39 -59.5t-59.5 -42t-77.5 -16.5q-37 0 -71 16.5t-59.5 42t-42 59.5t-16.5 71z " />
<glyph unicode="&#x152;" horiz-adv-x="2533" d="M-154 717q0 182 61.5 341t168 276.5t252 185t311.5 67.5q168 0 312.5 -67.5t252 -185t169 -276.5t61.5 -341t-61.5 -341t-169 -276.5t-252 -185.5t-312.5 -68q-166 0 -311.5 68t-252 185.5t-168 276.5t-61.5 341zM154 717q0 -117 37.5 -219.5t104 -179t155 -120.5 t188.5 -44t189.5 44t155 120.5t104 179t38.5 219.5t-38.5 219t-104 179t-155 121t-189.5 44t-188.5 -44t-155 -121t-104 -179t-37.5 -219zM1128 -154v1741h1217v-307h-909v-369h848v-307h-848v-450h909v-308h-1217z" />
<glyph unicode="&#x153;" horiz-adv-x="2244" d="M-154 512q0 141 49.5 262t135.5 211t202.5 141.5t251.5 51.5t253 -51.5t204 -141.5t135 -211t49 -262t-49 -262t-135 -211t-203.5 -141.5t-253.5 -51.5q-135 0 -251.5 51.5t-202.5 141.5t-135.5 211t-49.5 262zM154 512q0 -74 26.5 -139.5t71.5 -113.5t105.5 -76.5 t127.5 -28.5q70 0 130.5 28.5t105.5 76.5t71.5 113.5t26.5 139.5t-26.5 139.5t-71.5 113.5t-105.5 76.5t-130.5 28.5q-68 0 -128 -28.5t-105 -76.5t-71.5 -113.5t-26.5 -139.5zM815 512q0 141 49.5 262t135.5 211t202.5 141.5t251.5 51.5q90 0 177.5 -32t168 -90.5 t153.5 -140t132 -182.5l-829 -514q41 -31 91 -48t107 -17h551v-308h-551q-135 0 -251.5 51.5t-202.5 141.5t-135.5 211t-49.5 262zM1110 481l19 13q123 78 255 158.5t255 166.5q-37 23 -87.5 37t-97.5 14q-68 0 -128 -28.5t-105 -76.5t-71.5 -113.5t-26.5 -139.5 q0 -12 2 -26.5t2 -22.5t-3 -6t-14 24z" />
<glyph unicode="&#x178;" d="M-268 1577h348l545 -860l-224 -2q25 74 66 143.5t88 136.5l-2 -256l-131 23q0 10 2 18q4 18 8 25q2 4 7 10t10 10q6 6 10 9l-19 -15q2 4 6.5 13.5t6.5 13.5t5 9t7 11l8 8l2 5q4 6 8 15t21 32l104 -64q-16 -27 -35.5 -31t-37 6.5t-29.5 32t-12 45.5q4 4 9 11.5t7 11.5t2 6 t4 6l6 6q2 2 2 3.5t2 3.5t2 3t2 3l3.5 7t5.5 7q10 14 20 28.5t19 22.5q33 51 56 88t47 72t48.5 74t58.5 94q-18 -16 -12 -3t24.5 39.5t42 59.5t38.5 55v-2q2 4 3 7.5t3 5.5q4 10 15 27.5t16 25.5h339l-602 -965v-755h-307v749q-4 4 -9 11.5t-7 11.5t-5 8t-5 8q0 -2 -5 6 q-8 6 -12 19q-10 14 -26 45l67 82l14 -66q-14 10 -23 13.5t-13 5.5q-10 -8 -23.5 -18.5t-19.5 -14.5q-29 47 -66 104.5t-68 104.5v-2q-4 4 -8 10t-8 10q-6 10 -16.5 26.5t-1.5 6.5q-23 33 -50.5 77t-50.5 79v2l-6 9l-6 9q-4 10 -12 21.5t-13 19.5q-4 6 -11 15.5t-11 17.5 q-10 10 -13 17t-8 16q-6 10 -13 18t-13 18l-12 19q-8 16 -13 20q-8 14 -15 28.5t-18 31.5q-12 18 -29.5 45.5t-34.5 54.5t-31.5 49.5t-20.5 32.5zM142 1895q0 43 16 77.5t41.5 59.5t59.5 39t71 14q86 0 138 -52t52 -138q0 -37 -14 -71t-38.5 -59.5t-59.5 -42t-78 -16.5 q-37 0 -71 16.5t-59.5 42t-41.5 59.5t-16 71zM520 1895q0 43 16.5 77.5t42 59.5t59.5 39t71 14q86 0 138 -52t52 -138q0 -37 -14 -71t-39 -59.5t-59.5 -42t-77.5 -16.5q-37 0 -71 16.5t-59.5 42t-42 59.5t-16.5 71z" />
<glyph unicode="&#x2c6;" horiz-adv-x="598" d="M-309 1438l403 504l377 -502l-229 -211l-271 385l250 45q-31 -31 -41 -49.5t-9 -28.5t6 -15t3 -7q-31 -41 -83 -107t-95 -119q-6 -6 -13 -14t-16 -19q-10 -14 -22 -27t-27 -30z" />
<glyph unicode="&#x2dc;" horiz-adv-x="868" d="M-360 1470q49 70 104 125q47 47 109.5 86t130.5 39q47 0 100 -13t111 -54l-2 2q66 -33 92 -33q10 0 30.5 12.5t42.5 28.5q25 18 56 43l207 -217q-57 -51 -115 -88q-49 -33 -108.5 -59.5t-112.5 -26.5t-117 18.5t-123 52.5q-14 4 -22 11q-8 4 -20.5 10t-8.5 2q-2 0 -3 1 t-3 1t-4 2q-8 0 -25.5 -22.5t-36.5 -49.5l-49 -69z" />
<glyph unicode="&#x2000;" horiz-adv-x="1176" />
<glyph unicode="&#x2001;" horiz-adv-x="2352" />
<glyph unicode="&#x2002;" horiz-adv-x="1176" />
<glyph unicode="&#x2003;" horiz-adv-x="2352" />
<glyph unicode="&#x2004;" horiz-adv-x="784" />
<glyph unicode="&#x2005;" horiz-adv-x="588" />
<glyph unicode="&#x2006;" horiz-adv-x="392" />
<glyph unicode="&#x2007;" horiz-adv-x="392" />
<glyph unicode="&#x2008;" horiz-adv-x="294" />
<glyph unicode="&#x2009;" horiz-adv-x="470" />
<glyph unicode="&#x200a;" horiz-adv-x="130" />
<glyph unicode="&#x2010;" horiz-adv-x="1060" d="M-92 555v307h934v-307h-934z" />
<glyph unicode="&#x2011;" horiz-adv-x="1060" d="M-92 555v307h934v-307h-934z" />
<glyph unicode="&#x2012;" horiz-adv-x="1060" d="M-92 555v307h934v-307h-934z" />
<glyph unicode="&#x2013;" horiz-adv-x="1060" d="M-92 555v307h934v-307h-934z" />
<glyph unicode="&#x2014;" horiz-adv-x="1622" d="M-92 555v307h1548v-307h-1548z" />
<glyph unicode="&#x2018;" horiz-adv-x="544" d="M90 1372h299q0 -57 17 -115q14 -49 44.5 -104t90.5 -100l-211 -228q-98 72 -148.5 167t-70.5 179q-23 98 -21 201z" />
<glyph unicode="&#x2019;" horiz-adv-x="544" d="M-168 1040q59 45 90 102.5t45 108.5q16 59 17 121h299q0 -102 -23 -203q-20 -86 -69.5 -182t-147.5 -168z" />
<glyph unicode="&#x201a;" horiz-adv-x="544" d="M-188 -86q59 45 89.5 102.5t45.5 108.5q16 59 16 121h299q0 -102 -22 -203q-20 -86 -69.5 -182.5t-147.5 -167.5z" />
<glyph unicode="&#x201c;" horiz-adv-x="763" d="M-72 1372h299q0 -59 15 -117q12 -49 40.5 -102t84.5 -94l-189 -244q-104 76 -154.5 172t-72.5 182q-25 100 -23 203zM254 1372h299q0 -57 16 -115q14 -49 45 -104t91 -100l-211 -228q-98 72 -148.5 167t-71.5 179q-23 98 -20 201z" />
<glyph unicode="&#x201d;" horiz-adv-x="657" d="M-158 1049q55 41 85 96t42 106q14 59 15 121h299q2 -104 -23 -205q-10 -43 -28.5 -90t-46 -94t-65.5 -92t-89 -84zM150 1049q55 41 84.5 96t41.5 106q14 59 15 121h299q2 -104 -23 -205q-10 -43 -28.5 -90t-46 -94t-65.5 -92t-89 -84z" />
<glyph unicode="&#x201e;" horiz-adv-x="544" d="M-178 -78q55 41 85 96.5t42 106.5q14 59 14 121h299q2 -104 -22 -205q-10 -43 -28.5 -90t-46.5 -94t-66 -92.5t-89 -83.5zM-14 -78q55 41 84.5 96.5t42.5 106.5q14 59 14 121h299q2 -104 -23 -205q-10 -43 -28.5 -90t-46 -94t-65.5 -92.5t-89 -83.5z" />
<glyph unicode="&#x2022;" horiz-adv-x="909" d="M31 705q0 68 23.5 126t64.5 100t99 65.5t126 23.5t126 -23.5t100 -65.5t65.5 -100.5t23.5 -125.5q0 -68 -23.5 -126.5t-65.5 -99.5t-100 -64.5t-126 -23.5t-126 23.5t-99 64.5t-64.5 99.5t-23.5 126.5zM338 705q0 -6 6 -7q8 0 8 7q0 8 -8 8q-6 0 -6 -8z" />
<glyph unicode="&#x2026;" horiz-adv-x="768" d="M-207 113l295 -193l90 117q-43 43 -68.5 60.5t-35.5 -15.5h-45v-16.5t2 -22.5q0 -8 6 -16q4 -6 8 -11q10 2 25.5 1t25.5 1l-22 13q-4 6 2 6t6 -6q0 -4 -6 -4l-15 6l56 -56v132zM-113 31q0 43 16.5 77.5t42 59.5t59.5 39t71 14q86 0 138 -52t52 -138q0 -37 -14 -71 t-39 -59.5t-59.5 -42t-77.5 -16.5q-37 0 -71 16.5t-59.5 42t-42 59.5t-16.5 71zM-12 113l295 -193l90 117q-43 43 -68.5 60.5t-36.5 -15.5h-45v-16.5t2 -22.5q0 -8 6 -16q4 -6 9 -11q10 2 25.5 1t25.5 1l-23 13q-4 6 2 6t6 -6q0 -4 -6 -4l-14 6l55 -56v132zM82 31 q0 43 16.5 77.5t42 59.5t59 39t70.5 14q86 0 138.5 -52t52.5 -138q0 -37 -14.5 -71t-39 -59.5t-59.5 -42t-78 -16.5q-37 0 -70.5 16.5t-59 42t-42 59.5t-16.5 71zM182 113l295 -193l90 117q-43 43 -68.5 60.5t-35.5 -15.5h-45v-16.5t2 -22.5q0 -8 6 -16q4 -6 8 -11 q10 2 25.5 1t25.5 1l-22 13q-4 6 2 6t6 -6q0 -4 -6 -4l-14 6l55 -56v132zM276 31q0 43 16.5 77.5t42 59.5t59.5 39t71 14q86 0 138 -52t52 -138q0 -37 -14 -71t-38.5 -59.5t-59.5 -42t-78 -16.5q-37 0 -71 16.5t-59.5 42t-42 59.5t-16.5 71z" />
<glyph unicode="&#x202f;" horiz-adv-x="470" />
<glyph unicode="&#x2039;" horiz-adv-x="743" d="M-172 627l649 641l199 -242l-561 -537v213l106 23q2 -6 2 -16v-9q12 -8 23 -18q4 -4 7 -6t7 -6l8 -8q2 -2 8.5 -7.5t14.5 -11.5l88 -88l-9 13q-10 14 -20 29t-16 28.5t0 13.5q0 -33 -17.5 -59.5t-56.5 -26.5l31 92q31 -25 83 -69t109.5 -92t110.5 -92t82 -68l-201 -230z " />
<glyph unicode="&#x203a;" horiz-adv-x="790" d="M-154 1018l203 231l647 -532l-649 -641l-199 241l506 486v-221l-86 84l-6 6l-14 14l-39 39l43 43v-29q6 -6 18.5 -17t19.5 -15.5t8 3t-13 35.5l-6 9l73 -49q-66 0 -99.5 3t-45.5 13q-27 20 -61.5 49t-71.5 59.5t-74 61.5t-66 55q-10 10 -13 12.5t-7 6.5 q-14 10 -36.5 28.5t-31.5 24.5z" />
<glyph unicode="&#x205f;" horiz-adv-x="588" />
<glyph unicode="&#x20ac;" horiz-adv-x="1036" d="M-156 717q0 160 34 313.5t106 269.5q86 135 197.5 211t236.5 76q121 0 248 -97t243 -290l-243 -213q-82 147 -146.5 220t-101.5 73t-79 -31.5t-81 -103.5q-29 -49 -51.5 -104.5t-36.5 -116.5h625v-308l-803 -8l160 160v-209l-160 160h803v-307h-596q12 -39 25.5 -69 t29.5 -56q39 -70 82 -101.5t82 -31.5q43 0 109.5 71.5t150.5 218.5l229 -225q-115 -184 -239.5 -278.5t-249.5 -94.5t-236.5 75t-197.5 210q-72 117 -106 271.5t-34 314.5z" />
<glyph unicode="&#x2122;" horiz-adv-x="1177" d="M-143 1280v307h661v-307h-178v-420h-307v420h-176zM256 860v721l264 4l74 -287q-14 6 -23 13q-8 4 -14 8t-4 6q2 4 6 16q2 6 4 11v-2q2 4 5 12t5 12q-2 -4 0 3t5 12q2 4 6 13t6 13l74 -29q-18 -43 -34 -88t-16 -55h-41q0 18 7.5 49t27.5 76l-4 4l-8 25q-4 10 -5 18t1 10 q0 8 2 11q0 14 10 22l4 10l2 5q4 8 6 16t5 12q2 4 8 23.5t18 60.5l264 -4v-721h-307v539l285 -49q-4 -10 -15.5 -38t-25.5 -60.5t-25.5 -61.5t-15.5 -39q-8 -20 -18.5 -49t-16.5 -45q-10 -18 -13 -27.5t-5 -15.5q-2 -4 -1 -4t-1 -4t-3 -5.5t-3.5 -5.5t-5.5 -12t-9 -27 l-74 45q59 88 87 123t38 35q23 0 14.5 -38t-30.5 -85q-10 -20 -18.5 -39.5t-16.5 -38.5q-4 -8 -12 -28q-6 -12 -6 -21q-2 -4 -4 -10t-4 -10l-3 -2q-8 -20 -25.5 -63.5t-29.5 -71.5l2 8q0 -2 -2 -6q-4 -8 -4 -11q-4 -6 -7 -15t-7 -17v2q-2 -2 -6 -19q-2 -8 -5 -14l-65 -12 l-127 313l137 25v-146h-307z" />
<glyph unicode="&#xe000;" horiz-adv-x="1167" d="M0 0v1167h1167v-1167h-1167z" />
<glyph unicode="&#xfb01;" horiz-adv-x="888" d="M-154 -143v1167q0 141 61.5 262t168 211t249 141.5t304.5 51.5v-308q-156 0 -272.5 -54t-166.5 -150h465v-994q0 -14 52.5 -24t126.5 -10v-308q-100 0 -188.5 26t-155 72t-104.5 108.5t-38 135.5v686h-194v-1013h-308z" />
<glyph unicode="&#xfb02;" horiz-adv-x="1062" d="M-154 -143v1167q0 141 61.5 262t168 211t249 141.5t304.5 51.5v-308q-98 0 -185.5 -28.5t-152 -76.5t-101 -113.5t-36.5 -139.5v-35h313v-307h-313v-825h-308zM178 1382v308h497v-1506q0 -14 52.5 -24t126.5 -10v-308q-100 0 -188.5 26t-155 72t-104.5 108.5t-38 135.5 v1198h-190z" />
</font>
</defs>
</svg>
