<?xml version="1.0" encoding="utf-8"?>
<!-- Generator: Adobe Illustrator 14.0.0, SVG Export Plug-In . SVG Version: 6.00 Build 43363)  -->
<!DOCTYPE svg PUBLIC "-//W3C//DTD SVG 1.1//EN" "http://www.w3.org/Graphics/SVG/1.1/DTD/svg11.dtd">
<svg version="1.1" id="Layer_1" xmlns="http://www.w3.org/2000/svg" xmlns:xlink="http://www.w3.org/1999/xlink" x="0px" y="0px"
	 width="128.75px" height="41.5px" viewBox="0 0 128.75 41.5" enable-background="new 0 0 128.75 41.5" xml:space="preserve">
<g>
	<path fill="#FFFFFF" d="M67.692,36.982c0.212,0.884,0.074,1.724-0.413,2.52c-0.458,0.746-1.115,1.232-1.973,1.461
		c-0.858,0.227-1.686,0.096-2.482-0.391c-0.797-0.488-1.302-1.174-1.513-2.056c-0.213-0.884-0.089-1.698,0.369-2.444
		c0.487-0.796,1.171-1.301,2.056-1.514c0.881-0.212,1.722-0.075,2.519,0.414C67,35.429,67.479,36.099,67.692,36.982z M75.331,32.726
		c0.211,0.883,0.089,1.698-0.369,2.444c-0.487,0.797-1.172,1.302-2.056,1.514c-0.883,0.212-1.723,0.074-2.519-0.413
		c-0.747-0.458-1.228-1.127-1.438-2.011c-0.214-0.883-0.075-1.722,0.414-2.519c0.457-0.746,1.125-1.227,2.01-1.439
		c0.882-0.212,1.698-0.089,2.445,0.369C74.613,31.157,75.118,31.843,75.331,32.726z M82.938,28.351
		c0.212,0.883,0.073,1.722-0.414,2.519c-0.457,0.746-1.127,1.227-2.009,1.438c-0.883,0.212-1.699,0.09-2.444-0.368
		c-0.798-0.488-1.302-1.171-1.514-2.056c-0.213-0.883-0.091-1.698,0.367-2.445c0.487-0.796,1.173-1.3,2.058-1.513
		c0.884-0.212,1.722-0.075,2.518,0.413C82.246,26.797,82.727,27.466,82.938,28.351z M90.578,24.094
		c0.21,0.884,0.089,1.697-0.369,2.444c-0.487,0.797-1.172,1.302-2.056,1.514c-0.883,0.212-1.726,0.073-2.519-0.414
		c-0.748-0.458-1.226-1.127-1.439-2.011c-0.213-0.883-0.076-1.722,0.414-2.52c0.456-0.748,1.126-1.226,2.012-1.438
		c0.883-0.212,1.696-0.091,2.444,0.368C89.859,22.524,90.365,23.211,90.578,24.094z M98.187,19.716
		c0.211,0.885,0.075,1.725-0.413,2.52c-0.458,0.748-1.128,1.227-2.011,1.439c-0.886,0.212-1.697,0.09-2.444-0.367
		c-0.798-0.489-1.303-1.173-1.516-2.057c-0.21-0.882-0.089-1.698,0.369-2.444c0.488-0.796,1.173-1.302,2.058-1.514
		c0.881-0.212,1.697-0.09,2.444,0.368C97.47,18.148,97.972,18.834,98.187,19.716z M105.773,15.377
		c0.227,0.858,0.097,1.688-0.39,2.482c-0.489,0.797-1.176,1.301-2.058,1.513c-0.883,0.213-1.696,0.091-2.444-0.367
		c-0.798-0.488-1.302-1.173-1.513-2.056c-0.215-0.884-0.075-1.723,0.413-2.52c0.458-0.746,1.124-1.226,2.01-1.438
		c0.883-0.213,1.723-0.075,2.519,0.413C105.059,13.863,105.546,14.52,105.773,15.377z M113.433,11.084
		c0.213,0.884,0.091,1.699-0.364,2.445c-0.488,0.797-1.175,1.301-2.058,1.513c-0.886,0.213-1.724,0.075-2.52-0.413
		c-0.748-0.458-1.228-1.127-1.438-2.012c-0.215-0.882-0.091-1.697,0.369-2.443c0.485-0.795,1.17-1.301,2.054-1.514
		c0.883-0.211,1.699-0.089,2.444,0.368C112.718,9.515,113.22,10.201,113.433,11.084z M121.019,6.746
		c0.229,0.857,0.098,1.685-0.389,2.481c-0.49,0.797-1.175,1.302-2.056,1.514c-0.885,0.212-1.699,0.09-2.446-0.369
		c-0.796-0.487-1.3-1.171-1.513-2.056c-0.213-0.883-0.075-1.722,0.413-2.518c0.486-0.796,1.164-1.29,2.033-1.477
		c0.867-0.187,1.699-0.036,2.497,0.452C120.306,5.229,120.792,5.886,121.019,6.746z M128.636,2.526
		c0.211,0.884,0.089,1.698-0.368,2.445c-0.488,0.797-1.173,1.302-2.056,1.514c-0.886,0.212-1.724,0.073-2.52-0.414
		c-0.747-0.457-1.228-1.127-1.44-2.011c-0.212-0.882-0.072-1.723,0.413-2.52c0.458-0.746,1.129-1.225,2.014-1.438
		c0.881-0.212,1.695-0.091,2.444,0.367C127.919,0.958,128.421,1.645,128.636,2.526z"/>
</g>
<g>
	<path fill="#FFFFFF" d="M1.927,0.471c0.747-0.457,1.562-0.579,2.444-0.369c0.884,0.213,1.553,0.693,2.01,1.44
		C6.87,2.338,7.008,3.177,6.795,4.061C6.584,4.944,6.103,5.616,5.356,6.073C4.561,6.56,3.722,6.697,2.837,6.485
		C1.955,6.272,1.269,5.769,0.781,4.973C0.323,4.226,0.202,3.41,0.413,2.527C0.626,1.645,1.131,0.958,1.927,0.471z M9.49,4.772
		c0.797-0.488,1.629-0.638,2.496-0.45c0.869,0.188,1.546,0.681,2.034,1.477c0.489,0.796,0.627,1.636,0.414,2.52
		c-0.211,0.883-0.716,1.568-1.513,2.056c-0.747,0.457-1.561,0.58-2.444,0.369c-0.882-0.213-1.568-0.718-2.056-1.514
		S7.802,7.604,8.029,6.746C8.257,5.887,8.743,5.229,9.49,4.772z M17.128,9.029c0.747-0.457,1.562-0.581,2.444-0.369
		c0.885,0.213,1.569,0.718,2.056,1.514c0.458,0.747,0.581,1.561,0.368,2.445c-0.212,0.883-0.692,1.554-1.438,2.011
		c-0.796,0.488-1.635,0.625-2.52,0.413c-0.883-0.213-1.568-0.718-2.057-1.514c-0.457-0.746-0.579-1.562-0.367-2.444
		C15.827,10.202,16.332,9.517,17.128,9.029z M24.737,13.406c0.797-0.488,1.637-0.627,2.519-0.414
		c0.885,0.212,1.554,0.691,2.011,1.438c0.487,0.797,0.627,1.636,0.413,2.52c-0.21,0.884-0.716,1.567-1.513,2.056
		c-0.747,0.457-1.56,0.581-2.445,0.369c-0.883-0.213-1.568-0.717-2.056-1.514c-0.488-0.796-0.617-1.625-0.391-2.482
		C23.504,14.52,23.99,13.863,24.737,13.406z M32.375,17.662c0.747-0.458,1.562-0.58,2.445-0.367
		c0.885,0.212,1.568,0.717,2.056,1.513c0.457,0.746,0.581,1.562,0.367,2.443c-0.21,0.886-0.715,1.57-1.513,2.057
		c-0.747,0.457-1.56,0.582-2.444,0.368c-0.882-0.212-1.553-0.692-2.01-1.438c-0.487-0.796-0.624-1.636-0.414-2.519
		C31.075,18.834,31.579,18.149,32.375,17.662z M39.984,22.038c0.747-0.457,1.562-0.58,2.444-0.368
		c0.885,0.213,1.554,0.692,2.011,1.44c0.489,0.796,0.627,1.635,0.414,2.519c-0.212,0.883-0.692,1.555-1.438,2.012
		c-0.796,0.487-1.636,0.625-2.52,0.413c-0.883-0.213-1.569-0.718-2.057-1.514c-0.457-0.747-0.579-1.562-0.367-2.445
		C38.684,23.211,39.188,22.525,39.984,22.038z M47.547,26.339c0.797-0.488,1.637-0.625,2.52-0.413
		c0.885,0.213,1.569,0.716,2.056,1.512c0.458,0.748,0.582,1.563,0.368,2.446c-0.212,0.883-0.716,1.568-1.514,2.056
		c-0.747,0.457-1.561,0.58-2.445,0.369c-0.882-0.213-1.553-0.693-2.01-1.44c-0.488-0.796-0.625-1.635-0.413-2.518
		C46.322,27.466,46.8,26.795,47.547,26.339z M55.231,30.67c0.747-0.458,1.562-0.579,2.444-0.368
		c0.885,0.213,1.553,0.692,2.011,1.439c0.487,0.796,0.626,1.636,0.414,2.519c-0.212,0.884-0.692,1.553-1.439,2.011
		c-0.796,0.488-1.635,0.625-2.519,0.413c-0.883-0.211-1.569-0.716-2.057-1.514c-0.458-0.746-0.578-1.56-0.368-2.443
		C53.932,31.843,54.436,31.158,55.231,30.67z M62.794,34.972c0.797-0.489,1.637-0.625,2.52-0.413
		c0.884,0.212,1.569,0.717,2.056,1.513c0.458,0.746,0.581,1.561,0.369,2.445c-0.213,0.883-0.718,1.568-1.515,2.056
		c-0.795,0.487-1.623,0.618-2.481,0.391c-0.858-0.228-1.516-0.715-1.974-1.461c-0.487-0.796-0.625-1.637-0.414-2.519
		C61.569,36.099,62.048,35.429,62.794,34.972z"/>
</g>
</svg>
